<svg xmlns="http://www.w3.org/2000/svg" width="258.114" height="284.305" viewBox="0 0 258.11355 284.30515" enable-background="new 0 0 3000 2000"><g transform="matrix(.268 0 0 .268 -90.282 -118.841)"><path d="m1141.505 1399.266c0 55.405-144.853 100.32-323.538 100.32s-323.538-44.915-323.538-100.32c0-55.405 144.853-100.32 323.538-100.32s323.538 44.915 323.538 100.32z" fill-opacity=".157" fill-rule="evenodd"/><path d="m1048.908 1035.973c-3.114.207-5.694.521-7.526.96-1.314 6.769-3.142 13.921-5.666 20.103-3.213 7.869-6.703 15.558-10.801 22.197l1.274-.028c.697-.015 1.397-.025 2.099-.036.853-.012 1.707-.021 2.565-.027l2.196-.01.257-.001c6.005-4.683 13.685-21.929 15.602-43.161z" fill="#f2f2f2"/><path d="m1123.505 1011.418c-13.292-2.86-25.847-4.316-37.264-4.885l-1.659-.084-.878-.03c-.668-.025-1.327-.044-1.988-.063 11.967.528 26.195 1.979 41.794 5.08v-.018z" fill="#f2f2f2"/><path d="m1221.82 1196.008c-1.614.854-3.079 1.62-4.413 2.312 4.733-2.143 9.445-5.156 13.863-9.333.518-1.897 1.059-4.031 1.596-6.384-.557 2.099-1.154 4.222-1.796 6.405 0 0-4.783 4.638-9.25 7z" fill="#f2f2f2"/><path d="m1210.776 1152.348c-6.751 2.207-13.548 3.053-19.878 3.053-9.135 0-17.282-1.75-22.926-3.67 1.047 14.742-3.213 28.187-6.211 37.649-.511 1.614-.97 3.064-1.36 4.383 3.988 3.38 15.997 8.633 30.607 9.303 4.41.203 9.573 0 15.021-1.103 3.29-7.201 5.439-27.984 4.747-49.615z" fill="#f2f2f2"/><path d="m1184.99 1078.99c-13.534-15.995-30.831-29.381-54.09-36.504-2.681 20.414-12.818 36.521-20.361 44.02 14.093 4.32 25.92 11.542 35.938 21.923l-.023-.094c7.525-1.917 26.78-12.022 38.536-29.345z" fill="#f2f2f2"/><path d="m1167.309 1146.146c5.372 2.127 16.614 5.032 29.295 3.908 4.959-.438 9.604-1.442 13.947-2.975-.99-18.446-4.133-36.754-10.48-47.072-3.579-5.818-7.479-11.512-11.767-16.956-2.877 4.038-6.004 7.524-9.009 10.44-10.441 10.138-22.427 16.525-29.185 18.932 3.108 3.625 6.037 7.578 8.791 11.887 4.67 7.305 7.228 14.679 8.408 21.836z" fill="#f2f2f2"/><path d="m1125.988 1041.11c-3.122-.809-6.335-1.521-9.668-2.103-8.76-1.53-42.246-3.881-62.38-3.272-1.655 19.179-7.919 35.37-13.964 43.466l.284.01c.779.015 1.557.029 2.336.049l2.396.068c.781.023 1.561.045 2.34.073.833.029 1.663.064 2.494.099l2.203.089c1.5.067 2.993.141 4.476.22l2.009.113 2.636.152 1.998.127c.87.056 1.738.111 2.597.17l1.887.132c.879.062 1.751.124 2.615.188l1.753.133c.905.069 1.799.139 2.685.21l1.55.125 2.781.232 1.332.114c.999.086 1.972.172 2.934.258l1.018.091c1.284.116 2.54.231 3.749.345 1.992.187 3.948.414 5.868.682 1.92.269 3.804.578 5.653.929.924.175 1.84.361 2.748.558.849.184 1.689.379 2.523.58 6.384-4.942 18.437-21.688 21.147-43.834z" fill="#f2f2f2"/><path d="m1044.501 1008.232l.017.77.049-.778-.066.01z" fill="#f2f2f2"/><path d="m1035.319 994.914c.177.214.334.426.498.639-.163-.22-.328-.433-.498-.639z" fill="#adadad"/><path d="m1016.398 1082.602c-1.542 1.869-2.494 2.74-2.494 2.74s18.541-34.209 13.666-50.334c-2.398-7.934-13.333-11.667-13.333-11.667 3.027-10.376 2.821-11.896 3.666-16.333 2.079-10.929 2.874-17.487 2.979-18.384l-.107-.016c-1.407 9.518-3.081 19.342-4.083 24.433-4.151 21.073-19.576 54.715-32.609 80.191 2.597 1.385 5.376 2.426 13.947 1.309 6.714-.875 12.664-4.65 18.368-11.939z" fill="#adadad"/><path d="m1034.753 994.268l.376.419-.376-.419z" fill="#adadad"/><path d="m1030.555 1056.43l.532-1.283c2.63-6.443 4.477-14.143 5.761-21.269-1.383 6.927-3.291 14.073-5.778 21.13-.171.482-.342.952-.515 1.422z" fill="#adadad"/><path d="m699.654 1302.045c3.367 28.192 5.851 58.942 6.206 63.406l.278-.001c-.779-8.972-3.319-37.34-6.484-63.405z" fill="#f2f2f2"/><path d="m666.377 1392.285c-.87-3.348-2.052-6.759-3.605-9.104 1.505 2.529 2.693 5.828 3.605 9.104z" fill="#f2f2f2"/><path d="m651.903 1324.342c6.667-32.333 8-68.333 8-68.333s2.563-.297 12 .666c8.167.833 20.375 1.257 21.062 3.834 1.089 4.085 2.168 9.659 3.21 16.115-1.095-6.907-2.213-12.831-3.318-17.079-3.208-2.227-24.138-4.574-53.388-4.574-34.726 0-50.513 3.112-52.412 5.103-12.042 26.235-13.824 89.325-14.076 103.763 3.917.012 13.009.237 16.299 2.126 5.057 2.902 7.801 11.746 8.986 16.76.198.838.383 1.935.554 3.187l-.085-.9c.001 0 45.318-22.596 53.168-60.668z" fill="#f2f2f2"/><path d="m599.82 1396.413c.145 2.054.256 3.922.333 5.294l3.074.091-2.907-.123-.5-5.262z" fill="#f2f2f2"/><path d="m721.945 1204.133c6.667-7.917 5.25-13.625 5.25-13.625l3.023 3.703c-5.201-6.503-9.59-12.117-11.473-14.536-3.191-4.099-6.521-8.424-9.874-12.833l-22.428.02.124.497c5.346 31.405 7.461 48.364 7.921 57.79l.066.418c2.063-.734 13.954-5.477 27.391-21.434z" fill="#adadad"/><polygon points="694.577,1225.704 701.645,1223.348 694.556,1225.574" fill="#adadad"/><path d="m644.805 1237.131c-8.137-.099-16.566.038-24.471.262v12.578h34.333v-12.604c-3.394-.112-6.716-.199-9.862-.236z" fill="#808080"/><path d="m936.391 1204.057c15.012-9.715 20.866-35.611 20.866-35.611l.229-.018h-22.48c-2.856 3.743-5.685 7.411-8.411 10.913-3.277 4.21-14.122 18.069-23.676 29.503l.059.023c2.566.594 19.664 4.087 33.413-4.81z" fill="#adadad"/><path d="m958.151 1168.428h-.088l-.032.236.12-.236z" fill="#adadad"/><path d="m990.003 1250.695c4.783-.147 9.811-.225 14.966-.225 6.61 0 13.189.131 19.368.373v-10.693h-34.334v10.545z" fill="#808080"/><path d="m496.964 1112.814c18.567-12.523 38.685-21.544 56.512-27.908-7.932-17.121-6.223-35.131-3.391-45.402-23.713 6.662-45.234 14.738-64.341 24.174-1.781 8.373-2.649 31.207 11.22 49.136z" fill="#f2f2f2"/><path d="m510.313 1133.252c.649-.433 1.305-.863 1.968-1.29l-.015-.01c-.659.431-1.31.863-1.953 1.298z" fill="#f2f2f2"/><path d="m620.699 1074.226c1.855 4.409 1.349 3.64 3.5 7.136-1.134-2.178-2.299-4.555-3.5-7.136z" fill="#f2f2f2"/><path d="m433.298 1140.923c-8.744-8.999-13.978-19.043-15.663-26.319-14.953 17.79-24.792 37.731-29.424 59.718l.149.929.345-.056c.508 3.164 6.61 8.994 16.917 13.564 4.759 2.112 17.024 6.724 31.586 5.921 3.207-14.705 8.958-27.737 16.473-39.268-7.455-3.424-14.346-8.275-20.383-14.489z" fill="#f2f2f2"/><path d="m553.351 1066.205c.802 6.145 2.442 11.828 4.896 17.041 26.836-9.098 47.364-12.071 47.364-12.071l12.995-1.572c-1.201-2.726-2.437-5.644-3.716-8.776-4.979-12.195-8.28-26.093-9.848-33.542-17.273 2.947-33.7 6.499-49.215 10.646-1.8 5.158-4.083 15.962-2.476 28.274z" fill="#f2f2f2"/><path d="m436.884 1137.438c4.728 4.866 11.226 10.114 19.6 13.846 10.016-14.111 22.674-25.863 36.367-35.62-13.048-17.09-13.894-38.189-12.597-49.207-23.841 12.404-43.267 26.801-58.206 43.099-.279 4.915 4.132 16.866 14.836 27.882z" fill="#f2f2f2"/><path d="m631.938 1094.162l.245-.026c-.377-.47-.757-.958-1.139-1.476l.894 1.502z" fill="#f2f2f2"/><path d="m576.544 1104.725l.231.164c9.287-2.584 19.345-5.025 30.28-7.327 1.982-.417 4.462-.833 7.208-1.239-3.454.497-7.052 1.097-10.443 1.811-9.795 2.061-18.86 4.261-27.276 6.591z" fill="#f2f2f2"/><path d="m517.212 1128.854l.06.027c14.161-8.389 31.537-15.766 53.464-22.258l-.216-.172c-22.002 6.507-39.31 13.99-53.308 22.403z" fill="#f2f2f2"/><path d="m635.268 1089.949c.519.692 1.031 1.346 1.533 1.932.27.314.607.647.979.987-.527-.585-1.052-1.183-1.585-1.798-.313-.36-.621-.736-.927-1.121z" fill="#adadad"/><path d="m662.089 1099.393c.765-.262 1.431-.573 2.073-.91-.322-.659-.644-1.317-.968-1.988l.875 1.951c-.341.156-1.036.521-1.98.947z" fill="#adadad"/><path d="m632.486 1042.841c-1.561-8.952-6.543-43.077-6.481-43.918-.988-.301-5.401-1.228-12.479 3.425-5.538 3.639-5.29 14.293-4.727 18.092.001 0 .203 1.18.597 3.178 1.211 6.131 4.621 21.844 10.123 35.318 1.948 4.771 3.804 9.051 5.582 12.883-.703-1.654-1.093-2.686-1.093-2.686s12.743-1.825 8.478-26.292z" fill="#adadad"/><path d="m492.851 1115.664c-13.693 9.757-26.351 21.509-36.367 35.62 7.573 3.374 16.684 5.501 27.419 4.978 7.35-8.374 15.927-16.022 26.41-23.01.644-.435 1.295-.867 1.954-1.298-8.383-4.462-14.699-10.112-19.416-16.29z" fill="#ccc"/><path d="m517.212 1128.854c13.999-8.412 31.306-15.896 53.308-22.402-8.088-6.5-13.517-13.935-17.043-21.545-17.827 6.364-37.945 15.385-56.512 27.908 4.796 6.199 11.352 11.813 20.247 16.039z" fill="#ccc"/><path d="m437.208 1194.68c8.224-.453 17.178-2.65 25.929-7.985 4.964-9.097 10.311-17.543 16.547-25.383-9.113-.164-17.895-2.176-26.003-5.899-7.515 11.529-13.267 24.562-16.473 39.267z" fill="#ccc"/><path d="m624.199 1081.361c-2.151-3.496-1.645-2.727-3.5-7.136-.481-1.144-1.116-2.624-2.004-4.634l-.089.011-12.995 1.572s-20.528 2.974-47.364 12.071c3.967 8.43 10.089 15.61 18.297 21.479 8.416-2.33 17.481-4.529 27.276-6.592 3.391-.714 6.989-1.313 10.443-1.811 5.373-.792 11.786-1.539 17.675-2.16l-.895-1.502c-3.657-6.132-5.657-9.368-6.844-11.298z" fill="#ccc"/><path d="m1056.197 863.268c.371 2.377.652 4.734.805 7.023l.012.185c.76-.587 1.513-1.188 2.259-1.802-.936-1.82-1.958-3.627-3.076-5.406z" fill="#f2f2f2"/><path d="m1118.779 758.993c-11.596-5.167-26.664-7.692-43.942-.795-3.641 11.565-8.718 24.533-15.672 36.7 16.853 3.239 29.847 11.271 39.403 20.123 8.387-17.466 15.083-36.696 20.211-56.028z" fill="#f2f2f2"/><path d="m1096.201 819.813c-9.419-9.044-22.518-17.448-39.713-20.339l.021-.122c-4.387 7.053-9.444 13.732-15.272 19.576 1.013 1.441 1.964 3.053 2.844 4.854l1.011 1.988c.3.707 5.289 12.541 8.751 26.185 3.713 4.275 6.734 8.864 9.204 13.473 13.022-11.798 24.025-27.647 33.154-45.615z" fill="#f2f2f2"/><path d="m1120.043 754.104c5.23-20.787 8.661-41.513 10.446-60.115-13.376-2.573-30.101-1.107-45.384 13.709-1.359 13.754-3.96 28.083-7.687 41.719-.25.915-.513 1.849-.783 2.791 16.942-5.684 31.758-3.147 43.408 1.896z" fill="#f2f2f2"/><path d="m1130.935 689c.522-6.382.847-12.483.975-18.205.14-6.258-2.383-23.496-10.444-43.064-13.698 1.503-29.083 7.699-38.601 25.646 1.053 4.967 1.923 10.729 2.607 17.569.895 8.943.943 18.983.232 29.502 15.467-12.719 31.866-13.946 45.231-11.448z" fill="#f2f2f2"/><path d="m1119.399 622.948c-5.791-12.834-13.993-26.339-25.372-38.215-3.375.932-6.777 2.127-10.083 3.664-11.395 5.296-19.207 13.472-23.257 24.294 1.19 1.486 2.347 2.904 3.476 4.285 5.042 6.165 9.279 11.348 12.683 18.374 1.612 3.224 3.044 6.833 4.291 11.106 10.19-15.76 24.884-21.766 38.262-23.508z" fill="#f2f2f2"/><path d="m524.903 752.341c.532 4.79 1.382 9.348 2.499 13.691l.196.045c-1.023-4.12-1.832-8.416-2.409-12.905-.532-4.13-.605-8.063-.331-11.814-.359 3.55-.374 7.215.045 10.983z" fill="#f2f2f2"/><path d="m834.042 1229.758c-1.947.121-4.029.197-6.212.231l.002.401c1.97-.034 3.843-.103 5.582-.211l.156-.01h3.333c19.75-.314 32.015-2.692 48.508-9.417l.123-.087c-15.466 6.18-27.765 8.763-48.157 9.087h-3.335z" fill="#f2f2f2"/><path d="m967.82 1048.008c47.97-125.924 16.263-232.456-.24-258.65l-.228-.037c7.392 26.064 7.227 69.664 7.176 75.069-.255 27.231-3.107 78.262-6.402 103.243-2.624 19.892-12.633 67.784-26.824 88.855-9.41 13.971-34.773 36.213-50.959 42.256-13.991 5.225-38.2 6.304-63.174 6.443l.497 93.941c16.844-6.189 36.059-16.215 57.903-31.621 47.501-33.499 74.251-98.499 82.251-119.499z" fill="#f2f2f2"/><path d="m759.928 1221.091c12.788 5.189 38.679 8.63 58.9 9.23l-.002-.413c-20.83-.636-46.713-4.254-59.454-9.455 0 0-12.365-13.648-16.553-18.695-1.606-1.937-2.855-3.405-3.805-4.504 10.541 13 18.765 22.493 20.914 23.837z" fill="#f2f2f2"/><path d="m543.848 680.18c-2.668-1.982-6.178-4.221-10.778-6.688 1.759.992 4.044 2.322 6.167 3.683 1.727 1.107 3.251 2.102 4.611 3.005z" fill="#f2f2f2"/><path d="m598.584 830.102c-1.244-.209-2.461-.425-3.647-.652 1.169.248 2.372.496 3.61.748l.037-.096z" fill="#f2f2f2"/><path d="m583.774 826.708c-4.21-1.319-8.244-2.966-12.375-5.158-3.186-1.69-6.201-3.497-9.058-5.412 2.248 1.56 4.548 3.021 6.896 4.37 4.942 2.84 9.582 4.718 14.537 6.2z" fill="#f2f2f2"/><path d="m503.444 707.01c7.478-16.439 16.534-23.827 26.571-35.107-1.583-.8-3.266-1.618-5.081-2.46-23.17-10.75-31.307-8.616-36.158-7.304-6.999 7.942-19.011 23.388-27.674 44.12 14.443-5.172 28.933-4.927 42.342.751z" fill="#f2f2f2"/><path d="m529.03 771.631c.757 2.322 1.596 4.576 2.511 6.761-.893-2.232-1.702-4.53-2.434-6.892l-.044.141-.033-.01z" fill="#f2f2f2"/><path d="m551.854 691.495l.063-.132-1.417 1.597 1.354-1.465z" fill="#f2f2f2"/><path d="m563.487 853.893c-10.463-5.688-23.801-15.304-40.277-31.594-.896.618-1.789 1.266-2.676 1.947-9.401 7.223-20.675 20.155-21.734 40.991 19.643 16.219 41.921 25.101 60.941 30.628-3.804-16.318-1.303-30.532 3.746-41.972z" fill="#f2f2f2"/><path d="m565.295 897.411c7.224 1.934 13.857 3.416 19.521 4.676 1.696.377 3.305.737 4.826 1.085-2.178-9.808-2.011-21.308-1.234-32.882.177-2.635.522-5.359.98-8.101-4.112-.23-11.112-1.115-21.313-5.958-4.871 11.127-7.195 25.102-2.78 41.18z" fill="#f2f2f2"/><path d="m821.829 1230.39c1.019.017 2.023.026 3.003.026l-.002-.408c-.984 0-1.987-.012-3.003-.029l.002.411z" fill="#f2f2f2"/><path d="m818.681 1202.145l-.511-97.206c-26.242-.059-52.144-.979-66.815-6.458-16.186-6.043-41.548-28.285-50.959-42.256-14.191-21.07-24.2-68.963-26.824-88.855-3.294-24.977-6.146-76.009-6.402-103.244-.05-5.31-.208-47.477 6.792-73.671-8.355 2.251-22.23 9.223-26.982 13.846-6.951 6.762-9.257 10.401-10.582 13.786l-1.359 3.473c-2.121 9.431-7.354 33.086-8.787 43.125-1.311 9.187-2.092 29.812-2.511 45.048.26 4.521.493 9.8.495 17.034.068 1.263 1.799 32.951 2.822 43.501 1.026 10.576 4.523 35.108 7.552 44.292 8.334 25.264 29.043 74.219 43.253 99.469 9.239 16.419 38.12 54.653 59.137 80.734 14.538 8.578 40.309 19.905 81.681 7.382z" fill="#f2f2f2"/><path d="m821.172 1105.205l.504 95.999c.99-.321 1.989-.657 2.997-1.007l-.503-94.998c-.999 0-1.999 0-2.998.01z" fill="#f2f2f2"/><path d="m1001.266 805.314l.317.364-.317-.364z" fill="#f2f2f2"/><path d="m494.205 765.571c-1.667-12.696-1.05-24.885 1.198-34.23 1.859-7.728 3.885-14.159 6.06-19.657-11.431-4.804-26.03-6.41-42.796.896l-.016-.036c-3.989 10.957-6.922 23.186-7.712 36.423-.169 2.841-.241 5.728-.203 8.658.106 8.235.912 20.323 3.91 33.902 9.914-16.114 25.14-23.267 39.559-25.956z" fill="#f2f2f2"/><path d="m494.112 861.17c2.245-20.509 13.716-33.468 23.375-40.89.707-.543 1.427-1.058 2.149-1.568-1.283-1.309-2.582-2.649-3.901-4.038-11.416-12.013-17.899-28.148-20.738-43.983-14.547 2.792-29.907 10.388-38.591 27.986 3.14 11.589 7.95 23.917 15.283 35.655 6.597 10.558 14.228 19.392 22.423 26.838z" fill="#f2f2f2"/><path d="m1002.282 806.498l.453.569-.453-.569z" fill="#f2f2f2"/><path d="m671.169 864.088c.255 27.122 3.092 77.917 6.368 102.758 3.193 24.212 13.721 68.652 26.176 87.145 8.899 13.211 33.773 35.043 49.041 40.744 8.798 3.284 22.354 4.83 35.844 5.559-1.788-.152-3.619-.326-5.529-.535 22.374 2.452 85.834-5.749 119.167-57.083 31.825-49.013 42.718-150.467 30.667-222.667-8.676-51.978-50.644-97.541-66.334-100.75 13.062 2.672 35.23 4.313 56.354 17.328-25.572-15.986-59.986-20.078-104.021-20.078h-1c-64.828 0-119.89 26.481-137.014 65.896-8.102 18.651-9.921 60.12-9.719 81.683zm40.234-89.747c-22.695 82.963-18.583 197.667-18.583 197.667-14.333-76.667-14.75-156.75-2.25-186.25 1.824-4.304 22.067-15.925 20.833-11.417z" fill="#6cc5e0"/><path d="m821.055 1100.955v.25c11.02 0 27.593-.02 42.61-1.412-13.256.929-27.646.955-35.762 1.049-2.327.027-4.596.069-6.848.113z" fill="#6cc5e0"/><path d="m932.904 820.008c12.051 72.2 1.158 173.654-30.667 222.667-33.333 51.334-96.793 59.535-119.167 57.083 1.91.209 3.741.383 5.529.535 12.521 1.07 22.29.857 32.456.662 2.252-.044 4.521-.086 6.849-.113 8.115-.094 22.505-.12 35.762-1.049 9.294-.65 18.031-1.744 23.655-3.618 9.411-3.137 17.173-9.409 24.5-14.917 11.356-8.536 20.739-17.304 26.408-25.72 13.041-19.363 23.447-64.855 26.5-88 3.391-25.717 6.141-77.063 6.385-103 .197-21.053-1.154-61.971-9.543-81.28-10.224-23.534-24.19-37.766-38.646-46.672-21.124-13.015-43.292-14.656-56.354-17.328 15.689 3.209 57.657 48.772 66.333 100.75z" fill="#5eaabc"/><path d="m821.827 1229.979c1.017.018 2.019.027 3.003.029l-.157-29.811c-1.008.35-2.007.686-2.997 1.007l.151 28.775z" fill="#ccc"/><path d="m759.373 1220.453c12.741 5.201 38.624 8.819 59.454 9.455l-.146-27.764c-41.372 12.523-67.143 1.196-81.681-7.383l-.43-.254s.726.759 2.445 2.746c.95 1.099 2.199 2.567 3.805 4.504 4.187 5.048 16.553 18.696 16.553 18.696z" fill="#ccc"/><path d="m970.127 1112.004c13.614-24.193 37.188-74.977 42.583-102.363 1.832-9.301 4.734-31.177 5.609-41.883.891-10.903 2.528-32.26 3.25-43 .12-1.776.232-3.505.339-5.195-.314-14.474-1.125-43.482-2.752-54.879-1.609-11.281-8.019-39.755-9.417-45.915-1.854-4.072-4.094-8.042-7.005-11.702l-.453-.569c-.227-.276-.463-.548-.699-.82l-.317-.364c-6.816-7.714-17.035-13.783-33.696-15.973l.01.017c16.503 26.194 48.209 132.726.24 258.65-8 21-34.75 86-82.25 119.5-21.844 15.406-41.059 25.432-57.903 31.621l.163 30.86c2.184-.034 4.266-.11 6.212-.231h3.334c20.393-.324 32.691-2.907 48.157-9.087l1.379-.55c5.339-2.18 68.746-82.402 83.216-108.117z" fill="#ccc"/><path d="m1121.466 627.73c8.061 19.569 10.584 36.807 10.444 43.064-.128 5.722-.453 11.823-.975 18.205 10.166 1.9 18.571 5.951 23.47 8.743.317-6.835.46-12.387.521-15.881.373-21.134-2.27-38.17-6.213-51.977-4.185-1.112-15.045-3.493-27.247-2.154z" fill="#ccc"/><path d="m1130.489 693.989c-1.785 18.602-5.216 39.329-10.446 60.115 12.008 5.198 20.651 13.059 24.779 17.34 5.694-21.261 8.195-48.457 9.293-68.068-3.748-2.354-12.533-7.254-23.626-9.387z" fill="#ccc"/><path d="m1059.273 868.673c-.747.613-1.5 1.215-2.259 1.802.831 12.486.948 24.88-1.842 35.141 4.246-2.742 8.511-5.892 12.879-9.51-1.267-7.717-3.789-17.735-8.778-27.433z" fill="#ccc"/><path d="m1096.201 819.813c-9.129 17.968-20.132 33.817-33.155 45.615 5.275 9.844 8.012 19.772 9.406 26.905 7.303-6.478 14.967-14.301 23.392-23.839 6.119-6.929 12.095-13.698 18.351-23.525-2.142-5.227-7.992-15.552-17.994-25.156z" fill="#ccc"/><path d="m1118.779 758.993c-5.128 19.332-11.824 38.562-20.211 56.027 9.487 8.787 15.592 18.35 18.768 24.785 7.773-13.362 16.066-32.089 25.649-62.07l.206-.674c-2.074-2.417-10.876-12.037-24.412-18.068z" fill="#ccc"/><path d="m1147.009 624.338c-6.011-18.187-14.138-30.188-19.646-38.311-.93-1.372-1.775-2.62-2.521-3.765-4.632-.69-17.493-1.207-30.813 2.471 11.379 11.876 19.581 25.38 25.372 38.215 11.332-1.476 21.717.1 27.608 1.39z" fill="#ccc"/><path d="m696.176 1276.624c-1.042-6.456-2.121-12.03-3.21-16.115-.688-2.577-12.896-3.001-21.062-3.834-9.437-.963-12-.666-12-.666s-1.333 36-8 68.333c-7.85 38.072-53.167 60.666-53.167 60.666l.085.9.998 10.505.5 5.262 2.907.123 8.354.353c.345-4.512 1.698-17.344 6.109-21.298 3.96-3.55 12.163-5.669 21.943-5.669 8.172 0 15.43 1.53 19.413 4.094.754.485 1.454 1.172 2.104 2.002.206.184.406.369.586.562.363.39.707.844 1.036 1.341 1.553 2.345 2.735 5.756 3.605 9.104 1.439 5.539 2.026 10.89 2.026 10.89l11.475.665c.165-4.668.617-14.93 1.503-19.046.48-2.23 1.253-5.218 2.397-8.115.733-2.177 1.599-3.994 2.625-5.171l.076-.083c1.018-1.491 2.191-2.753 3.549-3.569 2.278-1.367 7.547-2.061 15.664-2.061h.195l-.027-.344c-.354-4.464-2.839-35.214-6.206-63.406-1.082-9.061-2.256-17.851-3.478-25.423z" fill="#ccc"/><path d="m1017.404 1324.842c6.666-32.333 8-68.333 8-68.333s2.563-.297 12 .666c8.166.833 20.374 1.257 21.062 3.834 1.059 3.972 2.108 9.348 3.124 15.575-1.067-6.674-2.155-12.403-3.231-16.539-3.208-2.227-24.138-4.574-53.388-4.574-34.725 0-50.512 3.112-52.411 5.103-11.908 25.943-13.783 87.929-14.067 103.266 5.963.019 13.475.412 16.457 2.123 5.055 2.901 7.799 11.745 8.985 16.76.171.726.333 1.647.484 2.693 3.069-1.575 45.42-23.886 52.985-60.574z" fill="#f2f2f2"/><path d="m965.848 1402.213l2.879.085-2.881-.122.002.037z" fill="#f2f2f2"/><path d="m1065.183 1302.79c3.352 28.124 5.823 58.709 6.177 63.161l.278-.001c-.777-8.944-3.303-37.163-6.455-63.16z" fill="#f2f2f2"/><path d="m1061.589 1276.584c-1.016-6.228-2.064-11.604-3.124-15.575-.688-2.577-12.896-3.001-21.062-3.834-9.438-.963-12-.666-12-.666s-1.334 36-8 68.333c-7.565 36.688-49.916 58.999-52.986 60.573.735 5.073 1.23 13.142 1.427 16.761l2.881.122 8.834.373c.31-4.243 1.626-17.531 6.129-21.568 3.96-3.55 12.163-5.669 21.943-5.669 8.172 0 15.43 1.53 19.413 4.094 5.827 3.752 8.465 19.2 9.174 24.166l11.184.647s.114-3.504.539-8.251c.25-4.096.61-8.325 1.105-10.629.287-1.332.681-2.937 1.193-4.628.911-3.778 2.104-7.036 3.664-8.825.365-.418.839-.914 1.406-1.428.727-.826 1.517-1.535 2.385-2.058.868-.521 2.175-.944 3.906-1.269l.302-.079c4.376-.884 8.984-.789 10.747-.709h.75l-.041-.511c-.354-4.452-2.825-35.037-6.177-63.161-1.114-9.36-2.327-18.445-3.592-26.205z" fill="#ccc"/><path d="m962.245 1171.399c-2.592 5.798-8.092 53.741-7.411 63.002 2.766-.057 6.819-.224 11.699-.425 10.68-.44 25.306-1.043 39.64-1.043 1.865 0 3.722.011 5.566.032 4.542.055 9.422.208 14.371.396-.011-1.329-.07-11.888.667-34.185.648-19.563-5.833-42.376-5.833-42.376s.758-.203 8.25 1.5l.878.199c-7.615-2.013-15.949-3.204-21.572-3.204h-.421c-18.8.273-40.713 4.646-45.834 16.101z" fill="#f2f2f2"/><path d="m1056.49 1231.506c.097-2.395-.05-6.124-.596-11.784.529 6.057.642 9.655.596 11.784z" fill="#f2f2f2"/><path d="m506.643 708.47c10.048 4.972 17.429 12.085 21.597 17.244 5.239-14.381 15.18-25.118 22.124-32.607l.136-.147 1.417-1.597.457-.956c-.022-.648-.542-4.296-8.525-10.227-1.36-.902-2.884-1.897-4.612-3.005-2.122-1.361-4.408-2.691-6.167-3.683-.969-.52-1.985-1.049-3.055-1.589-10.037 11.281-19.093 18.668-26.571 35.107 1.073.454 2.14.936 3.199 1.46z" fill="#ccc"/><path d="m494.999 770.691c2.839 15.834 9.322 31.97 20.738 43.983 1.319 1.389 2.618 2.729 3.901 4.038 10.537-7.444 22.5-11.369 31.115-11.819-8.418-8-14.802-17.469-19.211-28.501-.916-2.185-1.754-4.439-2.511-6.761-5.18-1.635-19.181-3.79-34.032-.94z" fill="#ccc"/><path d="m568.075 856.231c10.201 4.843 17.201 5.728 21.313 5.958 2.095-12.519 6.634-25.41 9.16-31.992-1.238-.252-2.44-.5-3.61-.748-1.289-.246-2.544-.507-3.777-.782-5.562 2.937-16.586 12.713-23.086 27.564z" fill="#ccc"/><path d="m523.21 822.299c16.476 16.29 29.813 25.906 40.277 31.594 5.605-12.704 14.345-21.987 21.08-26.935l-.792-.25c-4.955-1.482-9.595-3.36-14.537-6.2-2.348-1.349-4.648-2.81-6.896-4.37-2.163-1.451-4.231-2.969-6.207-4.552l-.144.604c-5.699-1.356-19.624 1.038-32.781 10.109z" fill="#ccc"/><path d="m501.463 711.684c-2.175 5.499-4.201 11.929-6.06 19.657-2.249 9.345-2.865 21.534-1.198 34.23 13.406-2.5 26.11-1.143 33.197.461-1.117-4.343-1.966-8.901-2.499-13.691-.419-3.768-.405-7.433-.045-10.983.248-3.39.786-6.628 1.56-9.715-3.531-5.407-12.302-14.642-24.955-19.959z" fill="#ccc"/><path d="m692.82 972.008s-4.112-114.704 18.583-197.667c1.233-4.508-19.01 7.113-20.833 11.417-12.5 29.5-12.084 109.583 2.25 186.25z" fill="#fff"/><path d="m659.903 1198.342c.648-19.563-5.833-42.376-5.833-42.376s.758-.203 8.25 1.5l.876.199c-7.615-2.013-15.948-3.204-21.571-3.204h-.421c-18.799.272-40.712 4.646-45.833 16.101-2.592 5.798-8.093 53.741-7.411 63.002 2.766-.057 6.818-.224 11.698-.425 10.68-.44 25.306-1.043 39.641-1.043 1.865 0 3.722.011 5.566.032 4.542.055 9.421.207 14.37.396-.011-1.33-.07-11.888.668-34.185z" fill="#f2f2f2"/><path d="m689.616 1230.661c.097-2.396-.051-6.127-.597-11.786.529 6.057.643 9.654.597 11.786z" fill="#f2f2f2"/><path d="m689.02 1218.875c-.837-9.594-2.716-25.359-6.658-51.283-.851-5.596-13.221-8.572-19.166-9.927l-.876-.199c-7.492-1.703-8.25-1.5-8.25-1.5s6.481 22.813 5.833 42.376c-.738 22.297-.68 32.855-.668 34.185l.001.148 29.958 1.083s.359-.182.421-3.097c.047-2.132-.067-5.729-.595-11.786z" fill="#ccc"/><path d="m1077.605 652.683l-.116.227.185.09-.069-.317z" fill="#999"/><path d="m1119.399 622.948c-13.378 1.743-28.072 7.749-38.264 23.508.622 2.131 1.2 4.421 1.729 6.92 9.519-17.947 24.903-24.142 38.601-25.646 12.202-1.339 23.063 1.042 27.247 2.154-.545-1.91-1.113-3.759-1.704-5.547-5.89-1.289-16.275-2.865-27.609-1.389z" fill="#999"/><path d="m1130.935 689c-13.364-2.498-29.764-1.271-45.23 11.448-.162 2.395-.358 4.812-.6 7.25 15.284-14.817 32.008-16.282 45.384-13.709 11.093 2.133 19.878 7.034 23.626 9.388.109-1.959.205-3.84.289-5.634-4.898-2.792-13.303-6.843-23.469-8.743z" fill="#999"/><path d="m1120.043 754.104c-11.65-5.043-26.466-7.58-43.409-1.896-.557 1.945-1.154 3.944-1.797 5.99 17.278-6.897 32.347-4.372 43.942.795 13.536 6.031 22.338 15.65 24.411 18.068.57-1.819 1.115-3.69 1.632-5.617-4.128-4.281-12.771-12.142-24.779-17.34z" fill="#999"/><path d="m1098.568 815.021c-9.556-8.851-22.55-16.884-39.403-20.123-.856 1.499-1.742 2.984-2.656 4.454l-.021.122c17.195 2.891 30.294 11.295 39.713 20.339 10.002 9.604 15.852 19.929 17.994 25.155 1.038-1.632 2.084-3.348 3.14-5.163-3.175-6.435-9.28-15.997-18.767-24.784z" fill="#999"/><path d="m1063.046 865.427c-2.47-4.609-5.491-9.198-9.204-13.473.939 3.701 1.764 7.532 2.354 11.313 1.119 1.779 2.14 3.586 3.076 5.406 4.989 9.697 7.511 19.716 8.778 27.432 1.454-1.205 2.921-2.459 4.402-3.773-1.394-7.133-4.13-17.061-9.406-26.905z" fill="#999"/><path d="m1015.948 818.129l-1.119.464c1.765 7.79 7.693 34.271 9.279 45.384.775 5.433 1.364 14.535 1.806 24.195.2-.052 10.481-2.744 15.505-9.234 12.526-16.181-5.682-58.847-5.682-58.847s1.081 1.011 2.789 3.891c-3.313-5.793-7.329-8.613-12.248-8.613-3.731.001-7.39 1.531-10.33 2.76z" fill="#adadad"/><path d="m1027.071 925.675s-.188-9.088-.417-21.083c-.042-2.213-.169-3.607-.318-5.891.407 11.611.619 22.412.698 27.007l.667-.07c-.249.022-.466.035-.63.037z" fill="#adadad"/><path d="m1052.105 893.123c-.197 2.071-.444 4.108-.752 6.076.317-1.903.57-3.922.752-6.076z" fill="#adadad"/><path d="m1044.777 915.816c2.893-3.615 4.933-8.375 6.184-14.505-.834 3.884-2.681 9.717-6.184 14.505z" fill="#adadad"/><path d="m501.463 711.684c12.653 5.317 21.423 14.552 24.955 19.959.512-2.042 1.125-4.018 1.822-5.929-4.168-5.158-11.548-12.272-21.597-17.244-1.059-.524-2.126-1.006-3.199-1.46-13.41-5.678-27.899-5.922-42.342-.751-.854 2.043-1.67 4.142-2.45 6.285l.016.036c16.766-7.306 31.364-5.7 42.795-.896z" fill="#999"/><path d="m517.488 820.281c-9.659 7.421-21.131 20.38-23.375 40.89 1.544 1.403 3.106 2.76 4.688 4.066 1.06-20.836 12.333-33.768 21.734-40.991.887-.681 1.779-1.329 2.676-1.947 13.157-9.071 27.082-11.465 32.78-10.109l.144-.604c-1.878-1.504-3.672-3.068-5.381-4.693-8.616.45-20.579 4.375-31.115 11.819-.724.511-1.444 1.026-2.151 1.569z" fill="#999"/><path d="m494.999 770.691c14.852-2.85 28.853-.696 34.032.939l.033.01.044-.141c-.548-1.771-1.051-3.578-1.51-5.422l-.196-.045c-7.087-1.604-19.791-2.961-33.197-.461-14.419 2.689-29.646 9.842-39.559 25.955.518 2.343 1.105 4.732 1.761 7.151 8.685-17.598 24.044-25.194 38.592-27.986z" fill="#999"/><path d="m563.487 853.893c-5.048 11.441-7.55 25.654-3.746 41.972 1.888.548 3.737 1.06 5.554 1.546-4.415-16.078-2.091-30.053 2.78-41.18 6.5-14.851 17.524-24.627 23.086-27.563-2.271-.507-4.46-1.066-6.594-1.71-6.735 4.947-15.475 14.231-21.08 26.935z" fill="#999"/><path d="m630.534 818.8l.047-.207-1.119-.464-.45-.187c.708.351 1.251.618 1.558.69l-.036.168z" fill="#adadad"/><path d="m616.517 815.664c-2.062.464-3.95 1.494-5.678 3.113 1.367-1.128 2.989-2.127 4.981-2.894.232-.089.464-.149.697-.219z" fill="#adadad"/><path d="m618.439 922.302c.057-8.668.081-32.57-3.869-41.919-6.101-14.442-20.133-17.351-20.245-17.374-.437 2.592-.764 5.154-.929 7.616-1.88 27.996 1.827 42.922 12.396 49.912 6.249 4.131 10.533 5.018 12.583 5.171l.064-3.406z" fill="#adadad"/><path d="m594.349 862.872c.212-1.007 1.718-8.09 3.735-15.691-1.463 4.956-2.834 10.382-3.735 15.691z" fill="#adadad"/><path d="m456.484 1151.284c-8.375-3.731-14.873-8.979-19.6-13.846-10.704-11.017-15.115-22.968-14.836-27.883-1.522 1.661-2.983 3.347-4.413 5.048 1.685 7.276 6.918 17.32 15.663 26.319 6.038 6.214 12.928 11.065 20.383 14.489 8.108 3.724 16.89 5.735 26.003 5.899 1.362-1.712 2.767-3.395 4.219-5.05-10.736.525-19.846-1.602-27.419-4.976z" fill="#999"/><path d="m496.964 1112.814c-13.87-17.93-13.001-40.764-11.22-49.137l-.292.141c-1.756.869-3.488 1.748-5.199 2.639-1.296 11.018-.451 32.117 12.597 49.207 4.717 6.178 11.033 11.828 19.415 16.29l.015.01c1.618-1.042 3.282-2.069 4.991-3.081l-.06-.027c-8.894-4.226-15.45-9.84-20.247-16.04z" fill="#999"/><path d="m558.247 1083.246c-2.455-5.213-4.095-10.896-4.896-17.041-1.606-12.313.677-23.116 2.476-28.274-1.928.516-3.842 1.04-5.741 1.573-2.833 10.271-4.542 28.281 3.391 45.402 3.526 7.61 8.956 15.045 17.043 21.545l.216.172c1.976-.585 3.988-1.163 6.039-1.734l-.231-.164c-8.208-5.869-14.33-13.049-18.297-21.479z" fill="#999"/><path d="m1130.9 1042.486c23.259 7.123 40.556 20.509 54.09 36.504 6.547-9.645 10.769-21.526 9.343-35.479l.118-.012c-6.132-5.982-13.244-11.318-21.52-15.263-15.032-7.166-29.812-12.153-43.867-15.549 2.735 10.544 3.043 20.608 1.836 29.799z" fill="#ccc"/><path d="m1047.729 1007.797c-1.094.131-2.14.266-3.161.402l-.001.024-.049.778c-.134 2.124-.503 7.84-.781 10.84-.417 4.5-2.667 17.166-2.667 17.166l.313-.075c1.832-.439 4.412-.753 7.526-.96.803-8.906.598-18.505-1.18-28.175z" fill="#ccc"/><path d="m1053.939 1035.735c20.134-.608 53.62 1.742 62.38 3.272 3.333.582 6.546 1.294 9.668 2.103 1.117-9.124.635-19.163-2.477-29.675-15.6-3.101-29.828-4.552-41.794-5.08l-.692-.031c-10.706-.295-20.266.174-28.315.943 1.762 9.791 2.008 19.458 1.23 28.468z" fill="#ccc"/><path d="m1188.304 1083.052c4.287 5.444 8.188 11.138 11.767 16.956 6.348 10.318 9.49 28.626 10.48 47.072 10.188-3.595 18.654-10.188 25.281-19.709-1.641-12.562-5.129-25.8-11.495-38.855-4.978-10.207-12.645-25.922-24.729-39.598.016 13.928-5.044 25.345-11.304 34.134z" fill="#ccc"/><path d="m1210.776 1152.348c.691 21.632-1.457 42.414-4.746 49.615 3.708-.748 7.548-1.911 11.377-3.644 1.334-.691 2.799-1.458 4.413-2.312 4.467-2.361 9.25-7 9.25-7 .642-2.184 1.239-4.307 1.796-6.405 2.681-11.739 5.211-28.806 3.722-47.946-7.678 9.245-16.701 14.713-25.812 17.692z" fill="#ccc"/><path d="m1210.551 1147.08c-4.343 1.532-8.988 2.537-13.947 2.975-12.681 1.124-23.923-1.781-29.295-3.908.309 1.878.533 3.741.664 5.584 5.644 1.92 13.791 3.67 22.926 3.67 6.33 0 13.127-.846 19.878-3.053 9.11-2.979 18.134-8.446 25.812-17.691-.188-2.398-.435-4.828-.756-7.285-6.628 9.52-15.094 16.113-25.282 19.708z" fill="#999"/><path d="m1188.304 1083.052c6.261-8.789 11.32-20.206 11.305-34.134-1.635-1.852-3.356-3.661-5.157-5.418l-.118.012c1.426 13.952-2.796 25.834-9.343 35.479-11.756 17.322-31.012 27.428-38.537 29.345l.023.094c1.239 1.283 2.45 2.614 3.634 3.995 6.758-2.406 18.743-8.794 29.185-18.932 3.004-2.917 6.131-6.403 9.008-10.441z" fill="#999"/><path d="m1105.456 1090.484l.259-.141-.381-.099.122.24z" fill="#999"/><path d="m1129.064 1012.688c-1.866-.451-3.72-.874-5.559-1.271v.018c3.112 10.512 3.594 20.551 2.477 29.675-2.71 22.146-14.763 38.892-21.147 43.833 1.94.471 3.838.992 5.698 1.563 7.543-7.499 17.681-23.605 20.361-44.02 1.208-9.191.9-19.255-1.835-29.798z" fill="#999"/><path d="m1052.709 1007.268c-1.727.164-3.396.342-4.979.529 1.777 9.67 1.983 19.27 1.179 28.176-1.917 21.232-9.597 38.479-15.602 43.16 2.216 0 4.44.026 6.669.068 6.045-8.096 12.31-24.287 13.964-43.466.777-9.01.531-18.677-1.231-28.467z" fill="#999"/><path d="m384.808 1222.605c6.761 4.595 23.823 9.003 32.115 9.068 1.387.011 3.228.107 5.36.219 3.376.178 7.578.397 12.12.397h.004c1.702 0 3.327-.041 4.911-.104-4.107.01-6.831-.346-6.831-.346s4.17-1.147 7.25-12c3.46-12.192-1.542-18.917-1.657-19.068-1.526.104-3.067.161-4.627.161h-.006c-22.275.001-42.645-11.059-48.346-20.114l-.793.505c-3.65 2.3-10.444 6.58-12.44 18.271-1.785 10.454 8.736 20.156 12.94 23.011zm-8.738-24.346c1-8 6.708-13.124 6.708-13.124l2.542 3.124s-1.588 1.138-3.375 4c-1.564 2.506-2.5 4.865-2.792 5.916-.492 1.771-1.133 4.684-1.083 7.251.083 4.334 3 8.583 3 8.583s-6.412-4.453-5-15.75z" fill="#999"/><path d="m439.737 1219.841c-3.08 10.853-7.25 12-7.25 12s2.723.355 6.831.346c6.775-.017 17.321-1.03 25.648-6.283 2.494-1.573 6.326-3.372 8.563-13 1.438-6.188.25-10.813-2.938-15.563-2.371-3.532-5.125-5.25-5.125-5.25s-10.701 4.913-14.438 5.938c-3.875 1.063-12.958 2.729-12.958 2.729l.01.015c.114.151 5.117 6.875 1.657 19.068z" fill="#666"/><path d="m381.07 1214.009s-2.917-4.249-3-8.583c-.049-2.567.591-5.479 1.083-7.251.292-1.051 1.227-3.41 2.792-5.916 1.787-2.862 3.375-4 3.375-4l-2.542-3.124s-5.708 5.124-6.708 13.124c-1.412 11.297 5 15.75 5 15.75z" fill="#fff"/><path d="m1168.877 1278.146c-3.178-10.02-4.169-23.133-4.472-29.514-28.541 11.238-34.565 36.25-30.848 54.77 4.537 22.602 24.616 44.396 54.493 43.548l-1.401-16.762c-.526-.136-1.121-.284-1.754-.441-10.591-2.64-35.393-8.82-31.789-30.3 2.204-13.142 9.587-19.618 15.761-21.298h.01zm-26.797-1.976c-5.352 12.168-6.125 24.947-6.125 24.947s-4.559-6.789 3.502-26.666c5.541-13.662 14.291-16.95 14.291-16.95l.629-.07s-6.875 6.406-12.297 18.739z" fill="#adadad"/><path d="m1198.863 1286.129c4.391-2.463 7.578-8.004 9.594-13.678 3.146-8.855 1.586-23.417 1.586-23.417 4.036-.541 6.449-.902 7.668-1.093l-.018-.301c-9.899 1.652-16.628 2.368-22.143 2.369-.691 0-1.339-.014-1.967-.031-1.408.054-2.79.084-4.137.084-6.46 0-12.214-.604-17.324-1.668-.92-.109-1.832-.225-2.739-.354.513 10.936 2.77 32.428 9.061 37.556 1.618 1.318 3.701 2.426 6.058 3.272 1.404.133 8.426.594 14.361-2.739zm-25.027-31.659c.271-.675 3.963-1.251 3.813-.567-2.734 12.596.883 27.112.883 27.112-4.665-10.494-6.573-21.924-4.696-26.545z" fill="#adadad"/><path d="m1196.481 1290.709c-4.882-.064-9.292-1.071-11.218-1.579 3.122 1.022 6.672 1.599 10.257 1.599.325 0 .642-.011.961-.02z" fill="#adadad"/><path d="m1196.481 1290.709c5.066.066 10.631-.885 14.425-4.473 2.09-1.977 3.994-5.171 5.429-8.746l.25-1.777c.017-.119 1.677-11.972 1.813-15.838.088-2.439-.279-8.408-.522-11.959l-.165.025c-1.219.19-3.632.552-7.668 1.093 0 0 1.561 14.562-1.586 23.417-2.016 5.674-5.203 11.215-9.594 13.678-5.936 3.333-12.957 2.872-14.361 2.739l-.27-.027s.377.116 1.031.289c1.926.508 6.337 1.515 11.218 1.579z" fill="#666"/><path d="m1225.577 1246.961c-.901 0-1.818.046-2.745.137.247 3.556.664 10.16.563 12.955-.11 3.137-1.087 10.674-1.579 14.323 4.617 1.794 15.462 7.118 17.321 18.076 2.807 16.538-6.081 28.894-25.066 34.966l1.68 16.398c30.898-4.944 43.347-31.209 41.902-55.607-1.213-20.498-12.62-41.248-32.076-41.248z" fill="#666"/><path d="m1262.645 1287.913c-.678-11.442-4.322-22.954-10.626-31.594-5.153-7.156-12.112-12.379-20.708-14.028.409-.195.821-.391 1.212-.59 10.712-5.401 14.799-12.335 16.327-17.288 3.344-10.839-1.869-23.858-13.015-32.885l.001-.001-.062-.062c5.235-18.62 13.736-62.735-6.943-105.142-8.213-16.838-23.499-48.182-53.747-62.601-1.764-.841-3.524-1.651-5.281-2.435-.838-.373-1.671-.721-2.506-1.082-.902-.389-1.807-.789-2.706-1.163-1.114-.465-2.224-.902-3.334-1.345-.602-.24-1.206-.49-1.806-.723-1.3-.506-2.593-.984-3.886-1.461l-1.185-.439c-1.443-.521-2.88-1.02-4.314-1.506l-.684-.234c-1.566-.527-3.126-1.029-4.681-1.514l-.241-.076c-21.025-6.537-40.937-9.414-58.509-10.232l-1.098-.055-1.264-.045c-1.094-.041-2.183-.078-3.254-.104l-.062-.001c-14.452-.346-26.831.659-36.227 1.915-2.675-16.665-15.931-18.602-21.951-19.476l-.612-.09c.71-5.111 1.289-9.861 1.578-13.398.692-8.478 2.032-30.353 2.587-39.548.213.011.426.022.672.022 2.589 0 8.118-.783 16.053-6.029 4.553-3.011 7.814-7.063 10.124-11.845l.103.18c14.82-8.505 29.313-21.223 46.991-41.239 17.584-19.912 30.436-37.111 48.154-92.545 10.276-32.153 11.92-82.609 12.18-97.308.644-36.521-7.456-61.217-15.994-78.151-4.513-9.071-9.178-15.958-12.765-21.247l-1.033-1.526c.062-.307.073-.626.017-.952-.027-.16-.074-.302-.12-.445 4.595-11.721 4.838-22.615.873-30.815l-.051-.106c-.171-.377-.368-.738-.557-1.104-.154-.299-.295-.607-.461-.899-.213-.375-.454-.732-.686-1.094-.169-.264-.324-.538-.503-.795-.273-.393-.577-.764-.875-1.14l-.485-.628c-.482-.568-.992-1.116-1.53-1.641-6.105-5.946-15.186-8.474-26.354-7.628 6.294-5.374 10.193-13.154 11.266-22.495.561-4.623.429-9.63-.452-14.92-4.208-25.257-25.178-52.101-55.755-52.101-7.199 0-14.615 1.522-22.043 4.524l-2.355.952.095.226-.129.052 10.038 23.732 2.041-.463c3.932-.893 7.683-1.346 11.15-1.346 12.099 0 20.131 5.47 23.875 16.258 2.554 7.354-2.699 14.456-5.522 18.271l-.112.152c-1.883-1.406-4.409-3.086-6.926-4.349-2.477-1.244-5.273-1.875-8.31-1.875-11.25 0-24.757 8.988-28.904 19.234-.886 2.188-1.105 4.955-.87 8.028-2.71.833-11.089 1.391-19.449-9.195-9.366-11.861 1.186-24.392 12.742-35.085 1.183-1.094 2.116-1.958 2.752-2.643l1.125-1.209-10.293-23.135-2.301 1.062c-31.088 14.347-39.507 46.854-31.755 71.551 5.691 18.132 22.026 37.197 50.187 37.196 1.103 0 2.229-.038 3.37-.098l-.634.758c-.317.387-.627.772-.921 1.155-7.173 9.334-7.653 17.575-6.823 22.79.13.815.291 1.556.464 2.215.102.388.213.771.333 1.152l.09.262c.096.291.192.582.299.868l.101.253c.111.287.222.573.343.855l.08.174c.134.305.271.609.416.908l.071.137.168.326c4.794 10.061 16.293 16.767 28.375 16.144 1.897 2.428 3.673 4.599 5.396 6.707 4.598 5.622 8.399 10.271 11.472 16.226 3.78 7.579 6.426 17.332 8.066 33.743 3.9 38.979-8.848 109.777-42.713 143.861-3.237-2.837-6.971-4.268-11.172-4.268-4.042 0-7.797 1.325-10.787 2.54-1.226.141-2.242.355-3.064.586-7.427-16.57-22.396-25.989-46.788-29.497-.372-1.016-.758-1.996-1.161-2.924-24.915-57.347-72.244-68.566-145.575-68.566h-1c-66.397 0-122.934 27.449-140.683 68.302-.565 1.3-1.096 2.694-1.599 4.16-8.821 1.479-26.137 9.918-32.128 15.746-5.869 5.709-8.753 9.498-10.48 12.765-1.013-.399-2.338-.732-4.017-.938-2.825-1.1-6.229-2.173-9.865-2.173-7.462 0-13.452 4.512-17.782 13.371l-.827 1.614-.03-.004-.997-.166-1.125-.192-.96-.171-1.094-.201-.937-.18-1.064-.212-.907-.189-1.044-.228-.882-.2-1.025-.244-.857-.212-1.006-.262-.84-.227-.993-.283-.817-.241-.988-.309-.798-.256-.979-.335-.784-.274-.98-.366-.765-.291-1-.407-.731-.301c-.349-.148-.698-.305-1.046-.461l-.68-.302c-.382-.176-.764-.361-1.146-.545l-.579-.277c-.575-.284-1.15-.579-1.727-.884-25.479-13.516-39.738-34.646-43.593-64.599-.214-1.661-.348-3.291-.408-4.889-.03-.799-.042-1.59-.036-2.373.162-21.927 14.061-37.668 23.35-47.711l.977-1.054c1.184-1.276 2.316-2.499 3.318-3.626 5.673.489 10.964-.486 15.431-2.621 5.423-2.591 9.619-6.903 11.753-12.47.303-.744.577-1.505.804-2.293 2.143-7.443.637-17.229-7.276-26.784 2.414.613 4.876.94 7.382.94 6.6 0 13.219-2.206 19.325-6.104 11.718-7.382 21.58-20.994 25.843-37.248 6.843-26.087-2.962-49.489-26.23-62.598l-2.213-1.247-.117.215-.122-.069-12.286 22.652 1.635 1.306c10.116 8.077 20.096 20.996 10.196 36.676-4.154 6.584-12.982 6.908-17.725 7.082l-.188.007c-.077-2.349-.338-5.371-.922-8.125-2.505-11.851-17.44-19.186-29.84-19.186-2.53 0-4.866.313-6.942.93-2.263.673-4.562 2.227-6.817 4.329-2.341-1.599-8.004-7.799-4.946-20.936 3.427-14.72 19.803-14.292 35.373-11.929 1.591.241 2.848.432 3.78.502l1.646.124 11.66-22.478-2.266-1.136c-30.607-15.346-61.266-1.647-75.731 19.818-11.431 16.961-15.994 44.232 6.675 67.411-15.867-1.453-24.096 3.431-28.175 7.704-.349.333-.679.666-.978.992-6.888 7.542-7.515 19.411-1.753 31.285-12.677 14.603-39.197 50.877-38.587 98.058.22 16.984 3.333 49.87 21.713 79.292 32.003 51.228 86.827 63.431 116.279 69.987l1.572.35.691.155.939.211.727.165.833.19.706.162.84.196.615.145.529.127c2.298 6.624 6.022 12.182 11.854 16.038l.107.068c1.449 1.11 3.021 2.042 4.735 2.758 5.36 2.713 9.187 3.203 11.211 3.203l.359-.012c.501 8.933 1.798 31.404 2.634 40.025.532 5.481 1.663 14.284 3.055 22.95-2.982-.272-7.942.254-14.357 4.469-9.312 6.121-7.029 22.318-6.919 23.056l.207 1.154c-46.768 7.99-87.42 20.412-120.834 36.958-57.024 28.237-90.776 67.224-100.327 115.882-.292.202-.727.476-1.098.709-4.003 2.521-12.333 7.769-14.705 21.659-.063.367-.112.732-.152 1.097l-.014.069c-2.055 12.034 7.963 22.818 14.22 27.394-32.604 6.644-43.969 32.375-43.652 53.091.396 25.881 18.596 54.101 52.616 57.96l2.518.285 2.512-25.197-1.448-.795c-.818-.449-1.975-.976-3.438-1.642-14.334-6.523-28.29-15.108-23.121-29.312 4.612-12.673 12.742-14.778 15.578-14.838.741 2.992 1.818 5.55 3.347 7.35 5.218 6.145 15.566 10.436 25.165 10.436 6.521 0 11.92-1.951 15.615-5.641 1.995-1.989 3.864-4.378 5.211-6.304l.158.111c3.876 2.735 11.092 7.828 10.978 15.608-.272 18.545-15.688 23.917-28.572 25.157l-2.083.2-2.079 25.687.141.01-.02.245 2.535.164c1.477.096 2.959.144 4.404.144h.006c36.066 0 55.099-29.957 55.26-59.552.047-8.625-1.702-17.536-5.398-25.092-3.946-8.194-10.161-14.826-18.839-17.825 10.968-1.525 18.763-5.028 23.61-10.612 3.016-3.475 4.817-7.706 5.402-12.634.505-3.124.506-6.539-.02-10.244-1.085-7.651-6.396-12.717-9.371-15.003 22.226-40.173 52.882-67.125 139.911-85.449 5.323-1.12 15.339-2.431 28.975-3.792 3.925 2.821 9.216 5.531 12.705 5.984 2.712.354 4.963.506 6.865.506 4.958 0 7.543-1.029 9.749-2.184 2.487 4.966 4.888 9.53 7.128 13.512 5.632 10.008 18.457 27.934 31.585 45.365l-21.609.019c-9.047-9.054-34.636-12.403-41.856-12.403h-.494c-9.871.144-42.672 1.942-50.325 19.06-1.853 4.145-4.463 23.849-5.713 34.838-3.47 30.504-1.814 33.059-1.27 33.897.547.845 1.412 1.329 2.372 1.329 2.733 0 7.559-.199 13.669-.45 4.549-.188 9.818-.404 15.47-.592v13.037c-4.588.251-8.824.574-12.563.966-15.965 1.675-19.148 4.033-20.209 6.333-13.099 28.382-14.466 95.58-14.605 107.26-4.49 2.545-20.718 12.234-22.718 20.393-1.976 8.062 8.381 28.488 8.499 28.639l.751.957h1.549c1.131 0 27.825-.021 37.538-1.871 2.328-.443 4.346-3.547 5.793-6.574l12.399.367c.72 6.203 2.811 19.978 7.444 23.493.954.724 2.052 1.383 3.259 1.979 4.623 2.42 11.07 3.817 17.96 3.816 9.68 0 17.991-2.724 22.233-7.285 3.66-3.936 5.35-15.839 5.958-21.444l11.87.745c1.133 2.3 4.026 7.107 8.43 7.107h.031c12.32-.065 37.798-.001 37.8 0h1.887l.521-1.813c.745-2.586 3.627-13.124 3.559-20.87.005-2.672-.324-5.038-1.193-6.665-2.687-5.028-16.378-16.178-20.252-19.274-.878-10.361-7.376-85.299-13.693-108.989-.599-2.245-2.651-4.583-20.186-6.31-5.128-.505-11.191-.901-17.73-1.17v-12.83c3.037.116 6.1.246 9.124.374 8.123.344 15.796.668 21.376.668 1.042 0 2.005-.461 2.711-1.297.795-.941 1.486-2.445 1.665-6.307l51.734-17.244c5.478 6.39 10.031 11.273 11.676 11.945 14.788 6.037 45.2 9.74 66.74 9.74 3.208 0 6.221-.082 8.954-.251h3.295c20.527-.327 33.255-2.806 50.442-9.822 1.69-.69 6.453-5.831 12.132-12.479l50.32 19.933c.085 4.079.6 4.885.861 5.287.547.845 1.412 1.329 2.372 1.329 2.733 0 7.559-.199 13.669-.45 5.291-.219 11.555-.478 18.265-.683v12.589c-6.208.268-11.884.662-16.732 1.17-15.964 1.675-19.147 4.033-20.209 6.333-13.021 28.21-14.449 94.772-14.602 107.043-4.979 2.86-19.682 11.863-22.08 19.641-.121.325-.229.648-.308.969-1.976 8.062 8.381 28.488 8.499 28.639l.751.957h1.216c1.131 0 27.825-.021 37.538-1.871 2.327-.443 4.346-3.547 5.792-6.574l12.872.381c.695 6.087 2.781 20.17 7.472 23.729 4.578 3.473 12.323 5.546 20.72 5.545 9.68 0 17.991-2.724 22.233-7.285 2.363-2.541 3.901-8.401 4.861-13.746.563-2.991.927-5.797 1.138-7.695l11.918.748c1.07 2.224 3.995 7.269 8.508 7.269h.031c12.32-.064 37.8 0 37.801 0l1.887.01.521-1.813c.942-3.272 5.302-19.271 2.782-26.237-.16-.534-.351-1.028-.584-1.465-2.687-5.027-16.377-16.178-20.251-19.274-.877-10.354-7.377-85.298-13.694-108.989-.599-2.245-2.651-4.583-20.186-6.31-4.018-.396-8.615-.724-13.56-.978v-12.577c2.114.086 4.231.175 6.329.264 8.123.344 15.795.668 21.376.668 1.042 0 2.005-.461 2.711-1.297 2.354-2.789 3.807-10.486-6.313-69.932-2.25-13.228-36.414-17.898-44.941-17.898h-.494c-8.586.125-34.514 1.508-46.158 13.129h-23.046c13.623-18.021 27.192-36.906 33.031-47.281 2.82-5.011 6.253-11.342 9.958-18.467 2.267 1.21 4.857 2.324 10.021 2.324 1.901 0 4.152-.151 6.864-.504 9.44-1.231 16.754-7.011 22.785-15.148l.269-.013c.744-.028 1.495-.051 2.245-.073.758-.022 1.516-.045 2.28-.063.783-.017 1.57-.028 2.358-.039.734-.01 1.47-.019 2.208-.023.821-.01 1.644-.01 2.468-.01.707.001 1.415 0 2.123.01l2.574.024 2.007.035c.896.018 1.791.033 2.687.057l1.848.054c.943.028 1.886.055 2.826.089l1.423.057c3.484.135 6.938.306 10.33.502l1.698.099c.848.052 1.685.106 2.522.161l2.007.131 2.307.162 2.126.153 2.135.162 2.2.173 1.954.157c.778.063 1.546.128 2.309.193l1.699.145c.853.074 1.687.147 2.516.222l1.352.121c1.246.112 2.469.225 3.654.336 6.295.59 12.199 1.611 17.751 3.071l.381.099c20.908 5.588 36.726 17.503 48.974 36.66 14.438 22.582 6.844 46.547 2.307 60.865-.525 1.659-1.028 3.248-1.453 4.696-.448.169-.874.363-1.307.55l-.288.121c-.451.199-.893.41-1.326.629-.414.203-.823.412-1.222.632l-.235.136c-9.33 5.271-14.151 14.995-12.215 25.679 1.629 8.985 8.31 18.683 21.648 24.483-29.711 12.701-35.961 39.572-31.942 59.591 4.863 24.223 26.06 47.591 57.679 47.59 1.509 0 3.042-.054 4.598-.162l2.527-.177-2.11-25.235-1.569-.519c-.886-.292-2.117-.6-3.676-.988-15.282-3.808-30.567-9.711-28.066-24.62 2.23-13.295 9.845-16.854 12.618-17.425 1.273 2.809 2.799 5.129 4.629 6.621 4.735 3.859 12.488 6.258 20.235 6.258 9.259 0 16.817-3.265 20.736-8.956 1.6-2.318 3.004-5.008 3.979-7.146l.174.08c4.31 1.986 12.332 5.682 13.634 13.355 3.105 18.283-11.077 26.368-23.522 29.931l-2.012.576 2.626 25.636.139-.017.025.244 2.523-.3c35.974-4.274 50.441-33.826 48.821-61.22zm-78.413.928l.27.027c-2.356-.847-4.439-1.954-6.058-3.272-6.291-5.128-8.548-26.62-9.061-37.556.907.13 1.819.245 2.739.354 5.11 1.064 10.864 1.668 17.324 1.668 1.347 0 2.729-.03 4.137-.084.628.018 1.275.031 1.967.031 5.515-.001 12.243-.717 22.143-2.369l.018.301.165-.025c.243 3.551.61 9.52.522 11.959-.137 3.866-1.797 15.719-1.813 15.838l-.25 1.777c-1.435 3.575-3.339 6.77-5.429 8.746-3.794 3.588-9.358 4.539-14.425 4.473-.319.01-.637.02-.961.02-3.585 0-7.135-.576-10.257-1.599-.654-.173-1.031-.289-1.031-.289zm-31.126 10.606c-3.604 21.479 21.198 27.66 31.789 30.3.633.157 1.228.306 1.754.441l1.401 16.762c-29.877.849-49.956-20.946-54.493-43.548-3.717-18.52 2.307-43.531 30.848-54.77.303 6.381 1.294 19.494 4.472 29.514h-.01c-6.174 1.68-13.556 8.157-15.761 21.298zm-2.996-187.023c-1.184-1.381-2.395-2.712-3.634-3.995-10.018-10.381-21.844-17.603-35.938-21.923-1.86-.57-3.758-1.092-5.698-1.563-.834-.201-1.674-.396-2.523-.58-.907-.196-1.823-.383-2.748-.558-1.85-.351-3.733-.66-5.653-.929-1.92-.268-3.876-.495-5.868-.682-1.209-.113-2.465-.229-3.749-.345l-1.018-.091c-.962-.086-1.935-.172-2.934-.258l-1.332-.114-2.781-.232-1.55-.125c-.886-.071-1.78-.141-2.685-.21l-1.753-.133c-.864-.064-1.736-.127-2.615-.188l-1.887-.132c-.859-.059-1.727-.114-2.597-.17l-1.998-.127c-.872-.053-1.754-.103-2.636-.152l-2.009-.113c-1.483-.079-2.976-.152-4.476-.22l-2.203-.089c-.831-.034-1.66-.069-2.494-.099-.78-.028-1.56-.05-2.34-.073-.799-.023-1.597-.049-2.396-.068-.779-.02-1.557-.034-2.336-.049l-.284-.01c-2.229-.042-4.453-.066-6.669-.068l-.257.001c-.734 0-1.465 0-2.196.01l-2.565.027c-.701.011-1.401.021-2.099.036l-1.274.028c4.098-6.64 7.588-14.328 10.801-22.197 2.524-6.182 4.352-13.334 5.666-20.103l-.313.075s2.25-12.666 2.667-17.166c.278-3 .647-8.716.781-10.84l-.017-.77.066-.01.001-.024c1.021-.137 2.067-.271 3.161-.402 1.583-.188 3.252-.365 4.979-.529 8.05-.77 17.609-1.238 28.315-.943l.692.031c.661.02 1.32.038 1.988.063l.878.03 1.659.084c11.417.568 23.973 2.024 37.264 4.885 1.839.396 3.693.819 5.559 1.271 14.056 3.396 28.835 8.383 43.867 15.549 8.275 3.944 15.388 9.28 21.52 15.263 1.801 1.757 3.522 3.566 5.157 5.418 12.084 13.676 19.751 29.391 24.729 39.598 6.366 13.056 9.854 26.294 11.495 38.855.321 2.457.568 4.887.756 7.285 1.489 19.141-1.041 36.207-3.722 47.946-.537 2.353-1.078 4.486-1.596 6.384-4.418 4.177-9.13 7.19-13.863 9.333-3.829 1.732-7.669 2.896-11.377 3.644-5.448 1.1-10.611 1.306-15.021 1.103-14.61-.67-26.619-5.923-30.607-9.303.391-1.318.85-2.769 1.36-4.383 2.998-9.463 7.258-22.907 6.211-37.649-.131-1.843-.355-3.706-.664-5.584-1.18-7.157-3.737-14.531-8.407-21.836-2.753-4.308-5.681-8.261-8.79-11.886zm-166.028-19.192c13.033-25.477 28.458-59.118 32.609-80.191 1.003-5.091 2.676-14.915 4.083-24.433l.107.016.013-.116c1.503.314 8.413.047 13.175 5 .245.254.458.507.683.76l.376.419.19.228c.169.206.335.418.498.639 4.667 6.085 3.926 11.674 3.753 16.121-.265 6.813-1.157 14.367-2.722 22.204-1.284 7.126-3.13 14.825-5.761 21.269l-.532 1.283c-5.1 13.934-10.925 22.254-14.157 26.172-5.704 7.289-11.654 11.064-18.369 11.939-8.57 1.116-11.349.075-13.946-1.31zm24.418 62.064c5.623 0 13.957 1.191 21.572 3.204 5.945 1.354 18.314 4.332 19.164 9.927 3.943 25.934 5.822 41.702 6.659 51.295.546 5.66.692 9.39.596 11.784-.063 2.906-.421 3.087-.421 3.087l-29.958-1.083-.001-.148c-4.949-.188-9.829-.341-14.371-.396-1.844-.021-3.701-.032-5.566-.032-14.334 0-28.96.603-39.64 1.043-4.88.201-8.933.368-11.699.425-.682-9.261 4.818-57.204 7.411-63.002 5.121-11.455 27.034-15.828 45.834-16.101h.42zm15.837 95.548c-6.179-.242-12.757-.373-19.368-.373-5.156 0-10.184.077-14.966.225v-10.545h34.334v10.693zm-87.149 118.219l.546-.224h.291c7 0 12.936.601 14.435 1.461 2.425 1.392 4.957 6.594 6.608 13.574 1.01 4.274 1.702 16.934 1.849 19.801-.936 2.076-2.195 4.17-2.846 4.718-8.131 1.477-28.918 1.7-34.797 1.733-3.54-7.506-8.159-19.4-7.178-23.399 1.252-5.109 13.547-13.51 21.092-17.662zm87.317 56.587c-3.264 3.51-10.38 5.689-18.572 5.689-7.234 0-14.016-1.735-17.698-4.529-2.426-1.84-4.858-12.98-5.733-22.296v-.807c.41-6.549 2.078-16.688 4.526-18.883 2.977-2.668 10.28-4.392 18.606-4.392 7.144 0 13.545 1.264 16.707 3.299 3.17 2.04 6.006 13.68 7.031 21.396v.723c-.619 6.748-2.524 17.28-4.867 19.8zm30.086-14.52c-1.329 0-3.172-2.613-4.108-4.655.079-2.595.516-15.601 1.453-19.962 1.511-7.012 3.938-12.263 6.335-13.704 1.116-.671 5.595-1.347 13.088-1.347.975 0 1.688.013 1.979.019l.178.025c6.717 5.34 17.46 14.581 19.271 17.969 1.653 3.094-.212 13.926-2.26 21.651-6.149-.015-25.633-.05-35.931 0l-.01 2.498v-2.498zm16.809-44.668h-.75c-1.762-.08-6.37-.175-10.747.709l-.302.079c-1.731.324-3.038.747-3.906 1.269-.868.522-1.659 1.231-2.385 2.058-.567.514-1.042 1.01-1.406 1.428-1.56 1.789-2.752 5.047-3.664 8.825-.512 1.691-.906 3.296-1.193 4.628-.495 2.304-.855 6.533-1.105 10.629-.425 4.747-.539 8.251-.539 8.251l-11.184-.647c-.708-4.966-3.347-20.414-9.174-24.166-3.983-2.563-11.24-4.094-19.413-4.094-9.78 0-17.983 2.119-21.943 5.669-4.503 4.037-5.819 17.325-6.129 21.568l-8.834-.373-2.879-.085-.002-.037c-.197-3.619-.692-11.688-1.427-16.761-.151-1.046-.313-1.968-.484-2.693-1.186-5.015-3.931-13.858-8.985-16.76-2.982-1.711-10.494-2.104-16.457-2.123.284-15.337 2.159-77.322 14.067-103.266 1.899-1.99 17.686-5.103 52.411-5.103 29.25 0 50.18 2.348 53.388 4.574 1.076 4.136 2.164 9.865 3.231 16.539 1.266 7.76 2.479 16.845 3.594 26.206 3.152 25.997 5.678 54.216 6.455 63.16l-.278.001.04.511zm-113.249-198.034l-.12.236-8.086 59.219-47.308-19.098.341.082-.059-.023c9.554-11.434 20.399-25.293 23.676-29.503 2.726-3.502 5.554-7.17 8.411-10.913h22.48l.584-.045-.006.045h.087zm-71.238 51.693l-1.379.55-.123.087c-16.493 6.725-28.757 9.103-48.508 9.417h-3.333l-.156.01c-1.738.108-3.612.177-5.582.211l-.002-.401-.163-30.86-.497-93.941c24.974-.14 49.183-1.219 63.174-6.443 16.186-6.043 41.549-28.285 50.959-42.256 14.191-21.071 24.2-68.963 26.824-88.855 3.294-24.98 6.146-76.011 6.402-103.243.051-5.405.215-49.004-7.176-75.069l.228.037-.01-.017c16.661 2.19 26.88 8.259 33.696 15.973l.317.364c.235.272.472.544.699.82l.453.569c2.912 3.659 5.152 7.63 7.005 11.702 1.398 6.16 7.808 34.634 9.417 45.915 1.627 11.397 2.438 40.405 2.752 54.879-.107 1.69-.22 3.419-.339 5.195-.722 10.74-2.359 32.097-3.25 43-.875 10.706-3.777 32.582-5.609 41.883-5.395 27.387-28.969 78.17-42.583 102.363-14.472 25.713-77.879 105.935-83.216 108.115zm-143.593-9.863l-41.675 13.09-7.068 2.356-.021-.13-.319.101.318-.108-.066-.418c-.46-9.426-2.575-26.385-7.921-57.79l-.124-.497 22.428-.02c3.353 4.409 6.683 8.734 9.874 12.833 1.883 2.419 6.272 8.033 11.473 14.536l13.101 16.047zm-53.704 20.403c-.063 2.915-.421 3.097-.421 3.097l-29.958-1.083-.001-.148c-4.949-.188-9.828-.341-14.37-.396-1.844-.021-3.701-.032-5.566-.032-14.334 0-28.961.603-39.641 1.043-4.88.201-8.933.368-11.698.425-.682-9.261 4.819-57.204 7.411-63.002 5.121-11.455 27.034-15.828 45.833-16.101h.421c5.623 0 13.956 1.191 21.571 3.204 5.944 1.354 18.314 4.331 19.166 9.927 3.942 25.924 5.82 41.689 6.658 51.283.544 5.659.692 9.391.595 11.786zm-139.52 156.064c1.252-5.108 13.547-13.51 21.092-17.662l.546-.224h.291c7 0 12.936.601 14.435 1.461 2.426 1.393 4.958 6.594 6.608 13.574 1.011 4.274 1.702 16.936 1.849 19.802-.936 2.075-2.195 4.169-2.845 4.717-8.132 1.477-28.918 1.7-34.797 1.733-3.541-7.506-8.16-19.4-7.179-23.399zm66.405 17.54v-.807c.41-6.549 2.078-16.688 4.526-18.883 2.977-2.668 10.28-4.392 18.606-4.392 7.144 0 13.545 1.264 16.707 3.299 3.17 2.04 6.006 13.68 7.031 21.396v.723c-.617 6.747-2.523 17.279-4.866 19.8-3.264 3.51-10.38 5.689-18.572 5.689-7.234 0-14.016-1.735-17.698-4.529-2.426-1.84-4.859-12.981-5.734-22.296zm72.423 8.696v-2.498c-1.329 0-3.172-2.613-4.108-4.655.079-2.594.515-15.601 1.453-19.962 1.511-7.012 3.938-12.264 6.334-13.704 1.116-.671 5.596-1.347 13.088-1.347.975 0 1.688.013 1.979.019l.179.026c6.716 5.339 17.458 14.58 19.27 17.969 1.653 3.093-.212 13.925-2.26 21.65-6.148-.015-25.631-.049-35.93 0l-.005 2.498zm16.963-47.166h-.195c-8.117 0-13.386.693-15.664 2.061-1.358.816-2.531 2.078-3.549 3.569l-.076.083c-1.026 1.177-1.892 2.994-2.625 5.171-1.144 2.897-1.917 5.885-2.397 8.115-.886 4.116-1.338 14.378-1.503 19.046l-11.475-.665s-.587-5.351-2.026-10.89c-.913-3.276-2.1-6.575-3.605-9.104-.329-.497-.673-.951-1.036-1.341-.18-.192-.38-.378-.586-.562-.65-.83-1.35-1.517-2.104-2.002-3.983-2.563-11.24-4.094-19.413-4.094-9.78 0-17.983 2.119-21.943 5.669-4.411 3.954-5.764 16.786-6.109 21.298l-8.354-.353-3.074-.091c-.077-1.372-.188-3.24-.333-5.294l-.998-10.505c-.171-1.252-.356-2.349-.554-3.187-1.185-5.014-3.929-13.857-8.986-16.76-3.291-1.889-12.383-2.114-16.299-2.126.252-14.438 2.035-77.527 14.076-103.763 1.899-1.99 17.686-5.103 52.412-5.103 29.25 0 50.18 2.348 53.388 4.574 1.105 4.248 2.223 10.172 3.318 17.079 1.223 7.572 2.396 16.362 3.478 25.421 3.165 26.065 5.705 54.433 6.484 63.405l-.278.001.026.348zm-85.553-115.824v-12.578c7.905-.224 16.333-.36 24.471-.262 3.146.037 6.468.124 9.863.236v12.604h-34.334zm116.236-55.463l.43.254c-21.017-26.081-49.897-64.315-59.137-80.734-14.209-25.25-34.918-74.205-43.253-99.469-3.029-9.184-6.526-33.716-7.552-44.292-1.023-10.551-2.753-42.239-2.822-43.501-.002-7.234-.235-12.512-.495-17.034.418-15.236 1.2-35.861 2.511-45.048 1.432-10.039 6.666-33.694 8.787-43.125l1.359-3.473c1.324-3.384 3.63-7.023 10.582-13.786 4.752-4.623 18.627-11.594 26.982-13.846-7.001 26.194-6.842 68.362-6.792 73.671.256 27.235 3.108 78.267 6.402 103.244 2.624 19.892 12.633 67.785 26.824 88.855 9.411 13.971 34.773 36.213 50.959 42.256 14.671 5.479 40.573 6.399 66.815 6.458l.511 97.206.146 27.764.002.413c-20.221-.601-46.113-4.041-58.9-9.23-2.149-1.344-10.373-10.837-20.914-23.837-1.719-1.987-2.445-2.746-2.445-2.746zm-104.632-100.346c-5.889.621-12.302 1.368-17.675 2.16-2.746.406-5.227.822-7.208 1.239-10.935 2.302-20.993 4.743-30.28 7.327-2.051.571-4.063 1.149-6.039 1.734-21.927 6.492-39.303 13.869-53.464 22.258-1.709 1.012-3.373 2.039-4.991 3.081-.664.427-1.319.857-1.968 1.29-10.483 6.987-19.06 14.636-26.41 23.01-1.452 1.655-2.856 3.338-4.219 5.05-6.237 7.84-11.583 16.286-16.547 25.383-8.751 5.335-17.706 7.532-25.929 7.985-14.562.803-26.828-3.809-31.586-5.921-10.307-4.57-16.408-10.4-16.917-13.564l-.345.056-.149-.929c4.632-21.986 14.472-41.928 29.424-59.718 1.429-1.701 2.89-3.387 4.413-5.048 14.939-16.298 34.365-30.694 58.206-43.099 1.71-.891 3.443-1.77 5.199-2.639l.292-.141c19.107-9.436 40.627-17.512 64.341-24.174 1.899-.533 3.813-1.058 5.741-1.573 15.515-4.147 31.942-7.699 49.215-10.646 1.568 7.449 4.869 21.347 9.848 33.542 1.279 3.133 2.516 6.051 3.716 8.776l.089-.011c.889 2.01 1.523 3.49 2.004 4.634 1.201 2.581 2.366 4.958 3.5 7.136 1.187 1.93 3.187 5.166 6.844 11.299.382.518.762 1.006 1.139 1.476l-.244.027zm-210.252 182.182c-4.357 2.821-9.96 2.762-14.908 1.791-3.822-.578-7.607-1.854-10.813-3.6-.625-.293-.981-.48-.981-.48l.247.072c-2.142-1.249-3.987-2.711-5.35-4.314-5.254-6.187-3.566-27.73-2.082-38.578 5.274 1.779 10.672 3.142 18.241 5.052l1.767.446c5.765 1.46 11.549 2.609 27.571 2.893l-.038.299.167.01c-.407 3.536-1.132 9.473-1.66 11.854-.838 3.776-4.626 15.131-4.664 15.245l-.562 1.691c-2.061 3.259-4.518 6.058-6.935 7.624zm-59.238 2.483c-7.448 20.464 15.814 31.051 25.748 35.572.595.271 1.153.524 1.647.755l-1.668 16.736c-29.536-4.601-45.315-29.678-45.667-52.729-.29-18.887 10.182-42.387 40.29-48.249-.862 6.33-2.271 19.405-.967 29.836h-.008c-6.38.529-14.818 5.556-19.375 18.079zm105.341.459c-.147 27.125-17.46 54.583-50.266 54.579-.51 0-1.025-.01-1.542-.02l1.329-16.432c19.772-2.519 30.76-13.053 31.006-29.826.165-11.112-9.532-18.319-13.747-20.923 1.148-3.5 3.479-10.734 4.159-13.798.606-2.731 1.398-9.304 1.802-12.844 18.946 1.588 27.361 20.553 27.259 39.264zm-95.922-79.691c1.996-11.69 8.791-15.971 12.44-18.271l.793-.505c5.701 9.056 26.071 20.115 48.346 20.114h.006c1.56 0 3.102-.058 4.627-.161l-.01-.015s9.083-1.667 12.958-2.729c3.736-1.024 14.438-5.938 14.438-5.938s2.754 1.718 5.125 5.25c3.188 4.75 4.375 9.375 2.938 15.563-2.237 9.628-6.069 11.427-8.563 13-8.327 5.253-18.873 6.267-25.648 6.283-1.584.063-3.209.104-4.911.104h-.004c-4.542 0-8.744-.22-12.12-.397-2.132-.111-3.973-.208-5.36-.219-8.292-.065-25.354-4.474-32.115-9.068-4.203-2.856-14.724-12.558-12.94-23.011zm265.913-106.727c-.372-.34-.709-.673-.979-.987-.502-.586-1.015-1.239-1.533-1.932-4.612-5.779-8.393-13.954-10.167-18.131-1.778-3.832-3.634-8.111-5.582-12.883-5.502-13.475-8.912-29.188-10.123-35.318-.395-1.998-.596-3.178-.597-3.178-.563-3.799-.811-14.453 4.727-18.092 7.078-4.652 11.491-3.726 12.479-3.425l.002-.04s10.792 36.928 16.646 51.042c4.028 9.711 17.051 38.79 20.541 46.569.324.671.646 1.329.968 1.988-.642.337-1.309.648-2.073.91-2.906 1.311-8.202 3.209-13.081 1.454-5.173-1.859-8.237-4.658-11.228-7.977zm-183.134-301.342c-2.999-13.579-3.804-25.667-3.91-33.902-.038-2.93.033-5.817.203-8.658.79-13.237 3.723-25.467 7.712-36.423.78-2.143 1.597-4.241 2.45-6.285 8.663-20.732 20.676-36.178 27.674-44.12 4.851-1.312 12.988-3.447 36.158 7.304 1.815.842 3.499 1.661 5.081 2.46 1.069.54 2.085 1.069 3.055 1.589 4.6 2.467 8.11 4.706 10.778 6.688 7.984 5.931 8.503 9.579 8.525 10.227l-.457.956-.063.132-1.354 1.465-.136.147c-6.944 7.489-16.885 18.226-22.124 32.607-.697 1.912-1.31 3.887-1.822 5.929-.774 3.087-1.312 6.325-1.56 9.715-.274 3.751-.201 7.684.331 11.814.578 4.49 1.386 8.786 2.409 12.905.458 1.844.961 3.651 1.51 5.422.731 2.361 1.541 4.659 2.434 6.892 4.409 11.032 10.792 20.501 19.211 28.501 1.709 1.625 3.503 3.189 5.381 4.693 1.976 1.583 4.044 3.101 6.207 4.552 2.857 1.916 5.872 3.722 9.058 5.412 4.132 2.192 8.165 3.839 12.375 5.158l.792.25c2.134.644 4.323 1.204 6.594 1.71 1.232.275 2.488.536 3.777.782 1.186.227 2.403.442 3.647.652l-.037.096c-2.526 6.582-7.065 19.473-9.16 31.992-.458 2.742-.804 5.466-.98 8.101-.777 11.574-.944 23.075 1.234 32.882-1.521-.348-3.13-.708-4.826-1.085-5.663-1.261-12.297-2.743-19.521-4.676-1.817-.486-3.666-.998-5.554-1.546-19.021-5.528-41.299-14.409-60.941-30.628-1.582-1.306-3.144-2.663-4.688-4.066-8.195-7.447-15.827-16.281-22.422-26.838-7.333-11.738-12.143-24.065-15.283-35.655-.653-2.419-1.24-4.808-1.758-7.151zm58.055-236.493c12.884-19.119 39.8-31.508 67.054-19.232l-7.744 14.93c-.54-.077-1.147-.168-1.795-.267-10.791-1.638-36.056-5.469-40.993 15.739-3.021 12.98 1.303 21.799 6.357 25.725l.005.004c-6.788 8.026-12.749 19.749-15.483 25.522-22.02-21.353-17.958-46.758-7.401-62.421zm41.173 32.937s.41.039 1.111.136c3.506.284 7.182 1.229 10.542 2.706 4.821 1.876 9.789 4.923 11.965 9.82 1.169 2.63 1.699 6.313 1.646 10.167l-.452 1.731c-.03.117-3.06 11.695-4.418 15.319-.857 2.283-3.493 7.652-5.083 10.837l-.144-.088-.132.272c-13.564-8.505-19.045-10.709-24.674-12.636l-1.784-.611c-7.358-2.522-12.607-4.322-17.98-5.708 4.681-9.897 15.033-28.868 22.812-31.18 1.614-.48 3.47-.723 5.518-.723.444 0 .895.016 1.347.039l-.274-.081zm-26.835 76.937c-22.028-10.221-31.778-9.457-37.544-8.114-4.853-9.991-4.528-19.752.942-25.742 8.931-9.779 29.829-8.741 57.33 2.844 4.762 2.006 8.915 4.14 12.535 6.352l.019-.114s13.751 5.241 19.25 19.75c1.036 2.736 4.125 8.125 1.125 15.75-2.389 6.073-4.422 8.486-9.625 11.125-4.393 2.228-14.375.5-14.375.5s-5-7.375-9.625-10.75c-3.182-2.322-12.75-7.625-12.75-7.625l.412-.167c-2.326-1.233-4.877-2.502-7.694-3.809zm58.642-20.401c-4.225 0-8.332-1.061-12.236-3.156 1.595-3.188 4.521-9.125 5.503-11.743 1.103-2.94 3.103-10.279 4.052-13.834l.833.009c5.893 0 16.602-1.302 22.108-10.024 8.951-14.184 5.501-29.008-9.686-41.918l7.858-14.488c19.585 12.132 27.671 32.764 21.66 55.68-5.805 22.135-23.416 39.474-40.092 39.474zm20.111 276.03c-10.569-6.989-14.276-21.916-12.396-49.912.165-2.461.492-5.024.929-7.616l-.005-.001.029-.136c.902-5.309 2.272-10.735 3.735-15.691 1.491-5.618 3.259-11.512 4.986-15.423 1.551-3.511 3.029-9.066 7.769-12.981 1.729-1.619 3.617-2.648 5.678-3.113 4.88-1.48 9.879.985 12.495 2.279l.45.187 1.119.464-.047.207c-.537 2.499-7.573 35.332-9.339 47.708-2.244 15.724-2.75 59-2.75 59-.035.036-.019-1.166-.006-3.206l-.063 3.405c-2.05-.153-6.335-1.04-12.584-5.171zm212.111-204.028h1c44.035 0 78.449 4.092 104.021 20.078 14.455 8.906 28.421 23.139 38.646 46.672 8.389 19.31 9.74 60.228 9.543 81.28-.244 25.938-2.994 77.283-6.385 103-3.053 23.145-13.459 68.637-26.5 88-5.669 8.416-15.052 17.184-26.408 25.72-7.327 5.508-15.089 11.78-24.5 14.917-5.624 1.874-14.361 2.968-23.655 3.618-15.018 1.393-31.591 1.412-42.61 1.412v-.25c-10.167.195-19.935.408-32.456-.662-13.49-.729-27.046-2.274-35.844-5.559-15.268-5.701-40.142-27.533-49.041-40.744-12.455-18.492-22.982-62.932-26.176-87.145-3.276-24.84-6.113-75.636-6.368-102.758-.203-21.563 1.617-63.032 9.72-81.684 17.123-39.414 72.185-65.895 137.013-65.895zm6.927 513.5l.002.408c-.98 0-1.985-.01-3.003-.026l-.002-.411-.151-28.774-.504-95.999c1-.001 1.999 0 2.998-.01l.503 94.998.157 29.81zm159.249-702.502c-6.904-21.996.203-50.76 26.8-64.403l6.837 15.368c-.397.375-.849.792-1.33 1.238-8.009 7.411-26.764 24.766-13.27 41.854 8.261 10.46 17.852 12.582 24.071 11.08l.01-.002c2.038 10.312 7.482 22.284 10.288 28.023-30.429 3.886-47.747-15.136-53.402-33.158zm47.914-5.999c.781-1.929 2.122-3.937 3.842-5.856l-.329.225s.442-.459 1.23-1.186c2.351-2.399 5.278-4.602 8.455-6.262 4.438-2.542 9.835-4.446 14.945-3.112 2.784.727 5.992 2.61 8.971 5.055l1.073 1.436c.072.097 7.232 9.687 9.217 13.01 1.25 2.094 3.802 7.502 5.299 10.732l-.159.058.129.271c-11.105 3.892-16.826 6.495-21.066 8.87-9.27 4.322-16.437 8.728-21.948 13.054-4.866-10.123-12.606-29.016-9.659-36.295zm-5.715 293.863c4.919 0 8.935 2.82 12.248 8.613 2.994 5.049 7.92 15.862 12.377 37.192 1.755 8.397 2.273 20.708 1.202 31.948-.182 2.154-.435 4.173-.752 6.076l-.033.226c-.088.552-.209 1.192-.358 1.887-1.251 6.13-3.292 10.89-6.184 14.505-1.416 1.936-3.097 3.701-5.095 5.092-5.037 3.507-9.903 4.537-11.982 4.729-.241.031-.468.056-.667.07-.079-4.595-.291-15.396-.698-27.007-.143-2.188-.305-5.192-.432-10.525l.01-.002c-.441-9.66-1.03-18.762-1.806-24.195-1.585-11.113-7.514-37.594-9.279-45.384l1.119-.464c2.941-1.231 6.6-2.761 10.331-2.761zm63.156-281.49c-1.496-3.235-4.311-9.225-5.744-11.626-1.609-2.695-6.094-8.831-8.282-11.793 3.184-3.795 10.125-13.682 6.481-24.182-4.455-12.833-14.344-19.617-28.599-19.617-3.223 0-6.647.349-10.204 1.038l-6.422-15.184c6.027-2.161 12.002-3.254 17.795-3.254 27.825 0 46.953 24.691 50.823 47.923 2.939 17.637-2.967 31.17-15.848 36.695zm-20.382 13.885c3.552-1.654 6.997-3.079 10.328-4.289l-.017-.005s17.486-7.678 32.281-4.038l.299.075.501.125c2.82.779 8.658 1.483 13.563 10.375 3.151 5.715 2.879 11.93 1.938 17.688-.656 4.013-2.228 7.867-2.757 9.092l-.167.455-.707-.079c-2.139-.094-8.733-.363-12.577-.285-.905.046-1.822.106-2.752.182-4.262.508-13.313 2.243-15.491 2.665-14.677 3.955-29.246 12.41-36.416 28.551l-.043-.047-1.234.123c-11.641 1.161-23.307-6.292-26.012-16.601-3.938-15 10.722-31.435 39.263-43.987zm56.309 31.85l.817.354c-.261-.051-.553-.101-.875-.15l.058-.204zm-61.199 37.361c-1.129-1.381-2.285-2.799-3.476-4.285 4.05-10.822 11.862-18.998 23.257-24.294 3.306-1.536 6.708-2.732 10.083-3.664 13.32-3.678 26.182-3.161 30.813-2.471.747 1.146 1.592 2.394 2.521 3.765 5.509 8.122 13.636 20.124 19.646 38.311.591 1.788 1.159 3.637 1.704 5.547 3.943 13.807 6.586 30.843 6.213 51.977-.062 3.494-.204 9.046-.521 15.881-.084 1.794-.18 3.675-.289 5.634-1.098 19.611-3.599 46.807-9.293 68.068-.517 1.927-1.062 3.798-1.632 5.617l-.206.674c-9.583 29.98-17.876 48.708-25.649 62.07-1.056 1.814-2.102 3.531-3.14 5.163-6.256 9.827-12.232 16.597-18.351 23.525-8.424 9.539-16.088 17.362-23.392 23.839-1.481 1.314-2.948 2.568-4.402 3.773-4.368 3.618-8.633 6.768-12.879 9.51 2.79-10.26 2.673-22.655 1.842-35.141l-.012-.185c-.153-2.289-.435-4.646-.805-7.023-.59-3.781-1.416-7.613-2.354-11.313-3.462-13.645-8.451-25.479-8.751-26.185l-1.011-1.988c-.88-1.801-1.832-3.413-2.844-4.854 5.828-5.844 10.886-12.523 15.272-19.576.914-1.47 1.8-2.955 2.656-4.454 6.954-12.167 12.031-25.135 15.672-36.7.644-2.046 1.241-4.044 1.797-5.99.27-.942.533-1.876.783-2.791 3.727-13.636 6.328-27.964 7.687-41.719.241-2.439.438-4.855.6-7.25.71-10.519.662-20.559-.232-29.502-.684-6.84-1.554-12.602-2.607-17.569-.53-2.499-1.108-4.789-1.729-6.92-1.247-4.273-2.678-7.883-4.291-11.106-3.401-7.027-7.638-12.21-12.68-18.374zm62.37-36.852l1.005.436.033.073-1.038-.509zm30.448 617.272c5.122 4.396 18.324 9.954 33.8 10.664 4.757.216 10.322-.016 16.201-1.192 1.533-.362 4.163-1.007 6.651-1.735 2.156-.699 4.327-1.553 6.496-2.569 3.529-1.972 9.132-5.64 11.21-7.015l.564-.44.044.037.205-.137s2.428 1.671 5.32 4.789c3.891 4.194 7.885 12.375 7.432 18.711-.705 9.858-7.064 13.702-9.334 15.583-4.379 3.628-10.872 6.033-17.391 7.63-6.422 1.646-14.387 2.827-24.299 3.245-31.13 1.31-47.536-11.886-50.012-25.547-1.747-9.652 3.494-18.364 13.113-22.024zm58.77 146.42l-1.68-16.398c18.985-6.072 27.873-18.428 25.066-34.966-1.859-10.958-12.704-16.282-17.321-18.076.492-3.649 1.469-11.187 1.579-14.323.102-2.795-.315-9.399-.563-12.955.927-.091 1.844-.137 2.745-.137 19.456 0 30.863 20.75 32.075 41.248 1.446 24.398-11.003 50.663-41.901 55.607zm-138.145-691.133l.069.317-.185-.09.116-.227z"/><path d="m1177.648 1253.902c.15-.684-3.541-.107-3.813.567-1.877 4.621.031 16.052 4.695 26.545.001 0-3.616-14.516-.882-27.112z" fill="#fff"/><path d="m1139.457 1274.451c-8.061 19.877-3.502 26.666-3.502 26.666s.773-12.779 6.125-24.947c5.422-12.333 12.297-18.739 12.297-18.739l-.629.07s-8.75 3.288-14.291 16.95z" fill="#fff"/><path d="m1027.193 532.641l-.01.002c-6.22 1.501-15.811-.62-24.071-11.08-13.494-17.088 5.261-34.443 13.27-41.854.481-.445.933-.863 1.33-1.238l-6.837-15.368c-26.597 13.643-33.704 42.407-26.8 64.403 5.656 18.022 22.973 37.044 53.403 33.157-2.807-5.739-8.251-17.71-10.289-28.022zm-3.322 25.38s-9.25 1.329-20.685-7.979c-16.635-13.541-15.905-21.686-15.905-21.686s6.828 10.83 17.377 18.919c10.69 8.197 19.8 10.503 19.8 10.503l-.587.243z" fill="#adadad"/><path d="m1063.601 544.748c4.24-2.375 9.96-4.978 21.066-8.87l-.129-.271c-1.159.419-3.449 1.265-7.247 2.732 0 0-5.644-13.513-12.663-19.761-4.498-4.003-9.96-7.325-14.994-7.371-6.606-.061-12.396 3.508-13.798 4.443-1.721 1.919-3.062 3.927-3.842 5.856-2.947 7.279 4.793 26.172 9.66 36.295 5.511-4.325 12.677-8.731 21.947-13.053zm-17.048 4.919c.46.527-3.052 1.8-3.616 1.341-3.868-3.149-7.699-14.088-8.662-25.53 0 .001 3.818 14.468 12.278 24.189z" fill="#adadad"/><path d="m1036.736 514.69c1.612-1.487 4.686-4.103 8.455-6.262-3.176 1.66-6.104 3.863-8.455 6.262z" fill="#adadad"/><path d="m1064.627 518.579c7.02 6.248 12.663 19.761 12.663 19.761 3.798-1.468 6.088-2.313 7.247-2.732l.159-.058c-1.498-3.23-4.05-8.639-5.299-10.732-1.985-3.323-9.145-12.914-9.217-13.01l-1.073-1.436c-2.979-2.444-6.187-4.328-8.971-5.055-5.11-1.334-10.507.57-14.945 3.112-3.77 2.159-6.843 4.775-8.455 6.262-.788.727-1.23 1.186-1.23 1.186l.329-.225c1.402-.935 7.192-4.504 13.798-4.443 5.034.045 10.496 3.367 14.994 7.37z" fill="#666"/><path d="m1105.283 497.185c-3.871-23.232-22.998-47.923-50.823-47.923-5.793 0-11.769 1.094-17.795 3.254l6.422 15.184c3.557-.689 6.981-1.038 10.204-1.038 14.254 0 24.144 6.783 28.599 19.617 3.644 10.5-3.298 20.387-6.481 24.182 2.188 2.962 6.672 9.098 8.282 11.793 1.433 2.401 4.249 8.391 5.744 11.626 12.88-5.525 18.786-19.058 15.848-36.695z" fill="#666"/><path d="m1042.937 551.009c.564.459 4.076-.814 3.616-1.341-8.46-9.722-12.278-24.188-12.278-24.188.963 11.441 4.794 22.379 8.662 25.529z" fill="#fff"/><path d="m987.281 528.356s-.729 8.145 15.905 21.686c11.435 9.308 20.685 7.979 20.685 7.979l.587-.243s-9.109-2.307-19.8-10.503c-10.549-8.089-17.377-18.919-17.377-18.919z" fill="#fff"/><path d="m1124.313 577.164l.707.079.167-.455-.18.408-.694-.032z" fill="#b3b3b3"/><path d="m1108.984 577.061c.93-.076 1.847-.135 2.752-.182-.614.013-1.16.034-1.604.066-.322.024-.713.064-1.148.116z" fill="#b3b3b3"/><path d="m1055.799 608.352l1.234-.123.043.047c7.17-16.141 21.739-24.596 36.416-28.551l-.486.095s4.782-16.01-2.82-26.135c-6.766-9.01-10.626-10.16-10.807-10.21-3.331 1.21-6.776 2.635-10.328 4.289-28.541 12.553-43.201 28.988-39.265 43.986 2.707 10.31 14.373 17.763 26.013 16.602zm-18.554-15.123c-4.385-6.765-3.315-14.362-3.315-14.362l3.955.754s-.482 1.893-.01 5.234c.416 2.925 1.219 5.333 1.673 6.324.764 1.672 2.148 4.313 3.839 6.246 2.854 3.262 7.821 4.636 7.821 4.636s-7.774.721-13.966-8.832z" fill="#b3b3b3"/><path d="m1111.644 539.433l.299.075-.299-.075z" fill="#b3b3b3"/><polygon points="1127.537,580.56 1126.532,580.124 1126.532,580.124 1127.57,580.633" fill="#b3b3b3"/><path d="m1125.361 579.615l-.058.205c.322.049.614.099.875.15l-.817-.355z" fill="#b3b3b3"/><path d="m1090.187 553.686c7.603 10.125 2.82 26.135 2.82 26.135l.486-.095c2.179-.422 11.229-2.156 15.491-2.665.435-.052.825-.092 1.148-.116.444-.032.99-.053 1.604-.066 3.843-.078 10.438.19 12.577.285l.694.031.18-.408c.529-1.225 2.101-5.079 2.757-9.092.941-5.757 1.214-11.973-1.938-17.688-4.904-8.892-10.742-9.596-13.563-10.375l-.501-.125-.299-.075c-14.795-3.64-32.281 4.038-32.281 4.038l.017.005c.182.051 4.042 1.2 10.808 10.211z" fill="#666"/><path d="m535.585 591.931l-.005-.004c-5.054-3.925-9.378-12.744-6.357-25.725 4.937-21.208 30.202-17.377 40.993-15.739.647.099 1.255.19 1.795.267l7.744-14.93c-27.254-12.275-54.169.114-67.054 19.232-10.557 15.664-14.619 41.068 7.401 62.421 2.735-5.773 8.695-17.496 15.483-25.522zm-21.909 13.236s-6.81-6.4-6.668-21.144c.206-21.448 7.026-25.959 7.026-25.959s-4.205 12.093-3.946 25.383c.263 13.469 4.143 22.027 4.143 22.027l-.555-.307z" fill="#adadad"/><path d="m554.985 588.106c1.943.271 6.178 1.008 10.542 2.706-3.36-1.477-7.036-2.421-10.542-2.706z" fill="#adadad"/><path d="m547.281 588.736c-7.778 2.312-18.13 21.282-22.812 31.18 5.374 1.386 10.622 3.186 17.98 5.708l1.784.611c5.629 1.927 11.11 4.13 24.674 12.636l.132-.272c-1.051-.644-3.14-1.906-6.657-3.958 0 0 7.04-12.841 7.544-22.225.322-6.014-.489-12.354-3.593-16.317-4.182-5.34-10.81-7.617-12.189-8.046-.453-.023-.903-.039-1.347-.039-2.046-.001-3.901.242-5.516.722zm-12.926 28.948c-.125.688-3.311-1.262-3.304-1.989.048-4.988 6.208-14.806 14.549-22.697 0 0-8.924 12.01-11.245 24.686z" fill="#adadad"/><path d="m566.335 596.099c3.104 3.963 3.916 10.304 3.593 16.317-.505 9.383-7.544 22.225-7.544 22.225 3.517 2.053 5.606 3.314 6.657 3.958l.144.088c1.59-3.186 4.226-8.555 5.083-10.837 1.359-3.624 4.388-15.202 4.418-15.319l.452-1.731c.053-3.854-.477-7.538-1.646-10.167-2.176-4.897-7.144-7.944-11.965-9.82-4.364-1.698-8.599-2.436-10.542-2.706-.701-.098-1.111-.136-1.111-.136l.272.082c1.379.428 8.007 2.706 12.189 8.046z" fill="#666"/><path d="m625.774 605.032c6.011-22.917-2.075-43.548-21.66-55.68l-7.858 14.488c15.187 12.911 18.637 27.734 9.686 41.918-5.507 8.722-16.215 10.024-22.108 10.024l-.833-.009c-.949 3.556-2.949 10.895-4.052 13.834-.983 2.618-3.908 8.555-5.503 11.743 3.905 2.096 8.012 3.156 12.236 3.156 16.675 0 34.286-17.339 40.092-39.474z" fill="#666"/><path d="m531.051 615.695c-.007.728 3.179 2.678 3.304 1.989 2.32-12.676 11.245-24.687 11.245-24.687-8.341 7.892-14.5 17.71-14.549 22.698z" fill="#fff"/><path d="m514.035 558.064s-6.82 4.511-7.026 25.959c-.142 14.744 6.668 21.144 6.668 21.144l.556.307s-3.88-8.558-4.143-22.027c-.26-13.289 3.945-25.383 3.945-25.383z" fill="#fff"/><path d="m554.945 652.008c4.561-8.688 5.253-11.24 5.356-11.761-3.62-2.211-7.773-4.346-12.535-6.352-27.501-11.585-48.399-12.623-57.33-2.844-5.47 5.989-5.794 15.751-.942 25.742 5.766-1.342 15.517-2.106 37.544 8.114 2.817 1.307 5.369 2.577 7.693 3.809 2.414-1.006 14.909-6.603 20.214-16.708zm-64.79-10.747c-.325-6.039 4.163-10.914 4.163-10.914l2.843 1.776s-1.293 1.146-2.501 3.591c-1.058 2.14-1.556 4.048-1.661 4.873-.179 1.391-.316 3.644.13 5.508.756 3.147 4.122 5.669 4.122 5.669s-6.637-1.976-7.096-10.503z" fill="#b3b3b3"/><path d="m547.07 676.508c4.625 3.375 9.625 10.75 9.625 10.75s9.982 1.728 14.375-.5c5.203-2.639 7.236-5.052 9.625-11.125 3-7.625-.089-13.014-1.125-15.75-5.499-14.509-19.25-19.75-19.25-19.75l-.019.114c-.104.521-.795 3.074-5.356 11.761-5.305 10.105-17.8 15.702-20.213 16.708l-.412.167s9.568 5.303 12.75 7.625z" fill="#666"/><path d="m1220.129 1202.563c-2.169 1.017-4.34 1.87-6.496 2.569 1.771-.518 3.464-1.075 4.625-1.6.501-.225 1.143-.562 1.871-.969z" fill="#999"/><path d="m1231.903 1195.108l-.564.44.608-.403-.044-.037z" fill="#999"/><path d="m1143.869 1219.42c2.476 13.661 18.882 26.856 50.012 25.547 9.912-.418 17.877-1.6 24.299-3.245-11.598 2.842-23.277 3.12-23.277 3.12s11.582-6.923 14.018-17.938c2.668-12.081-3.268-19.729-3.268-19.729s.514-.114 1.329-.307c-5.879 1.177-11.444 1.408-16.201 1.192-15.476-.71-28.678-6.268-33.8-10.664-9.62 3.66-14.861 12.372-13.112 22.024zm11.158-18.285l2.541 3.124s-1.588 1.138-3.375 4c-1.564 2.506-2.5 4.865-2.791 5.916-.492 1.771-1.133 4.684-1.084 7.251.084 4.334 3 8.583 3 8.583s-6.412-4.453-5-15.75c1-8 6.709-13.124 6.709-13.124z" fill="#999"/><path d="m1208.92 1226.904c-2.436 11.015-14.018 17.938-14.018 17.938s11.68-.278 23.277-3.12c6.519-1.597 13.012-4.002 17.391-7.63 2.27-1.881 8.629-5.725 9.334-15.583.453-6.336-3.541-14.517-7.432-18.711-2.893-3.118-5.32-4.789-5.32-4.789l-.205.137-.608.403c-2.078 1.375-7.681 5.043-11.21 7.015-.728.406-1.37.743-1.871.97-1.161.524-2.854 1.082-4.625 1.6-2.488.729-5.118 1.373-6.651 1.735l-1.329.307s5.935 7.647 3.267 19.728z" fill="#666"/><path d="m1153.318 1230.009s-2.916-4.249-3-8.583c-.049-2.567.592-5.479 1.084-7.251.291-1.051 1.227-3.41 2.791-5.916 1.787-2.862 3.375-4 3.375-4l-2.541-3.124s-5.709 5.124-6.709 13.124c-1.412 11.297 5 15.75 5 15.75z" fill="#fff"/><path d="m1043.389 597.425c-1.69-1.933-3.075-4.574-3.839-6.246-.454-.991-1.257-3.399-1.673-6.324-.476-3.341.01-5.234.01-5.234l-3.955-.754s-1.069 7.597 3.315 14.362c6.192 9.553 13.966 8.833 13.966 8.833s-4.966-1.375-7.821-4.637z" fill="#fff"/><path d="m493.129 646.095c-.447-1.865-.309-4.118-.13-5.508.104-.825.603-2.733 1.661-4.873 1.208-2.444 2.501-3.591 2.501-3.591l-2.843-1.776s-4.488 4.875-4.163 10.914c.459 8.527 7.097 10.504 7.097 10.504s-3.367-2.523-4.123-5.67z" fill="#fff"/><path d="m730.218 1194.211l-3.023-3.703s1.417 5.708-5.25 13.625c-13.437 15.957-25.328 20.7-27.39 21.434l-.318.108.319-.101 7.088-2.227 41.675-13.09-13.101-16.046z" fill="#666"/><path d="m614.57 880.383c3.95 9.35 3.926 33.251 3.869 41.919-.013 2.04-.029 3.242.006 3.206 0 0 .506-43.276 2.75-59 1.766-12.375 8.802-45.209 9.339-47.708l.036-.167c-.307-.072-.85-.34-1.558-.69-2.616-1.294-7.614-3.759-12.495-2.279-.233.07-.465.13-.697.219-1.992.766-3.614 1.765-4.981 2.894-4.74 3.915-6.218 9.47-7.769 12.981-1.727 3.911-3.496 9.805-4.986 15.423-2.017 7.601-3.523 14.684-3.735 15.691l-.029.136.005.001c.112.023 14.144 2.931 20.245 17.374z" fill="#666"/><path d="m957.486 1168.428l-.229.018s-5.854 25.896-20.866 35.611c-13.749 8.897-30.847 5.404-33.413 4.811l-.341-.082 47.308 19.098 8.086-59.219.032-.236.006-.045-.583.044z" fill="#666"/><path d="m1014.237 1023.341s10.935 3.733 13.333 11.667c4.875 16.125-13.666 50.334-13.666 50.334s.953-.871 2.494-2.74c3.232-3.918 9.057-12.238 14.157-26.172.172-.47.344-.939.515-1.422 2.488-7.057 4.396-14.203 5.778-21.13 1.565-7.837 2.457-15.392 2.722-22.204.173-4.447.915-10.036-3.753-16.121-.163-.212-.321-.425-.498-.639l-.19-.228-.376-.419c-.225-.253-.438-.505-.683-.76-4.762-4.953-11.672-4.686-13.175-5l-.013.116c-.105.896-.9 7.455-2.979 18.384-.845 4.438-.639 5.958-3.666 16.334z" fill="#666"/><path d="m1020.944 1156.801s6.481 22.813 5.833 42.376c-.737 22.297-.679 32.855-.667 34.185v.148l29.958 1.083s.358-.181.421-3.087c.046-2.129-.067-5.727-.596-11.784-.837-9.593-2.715-25.361-6.659-51.295-.85-5.595-13.219-8.572-19.164-9.927l-.878-.199c-7.491-1.703-8.249-1.5-8.249-1.5z" fill="#ccc"/><path d="m1029.371 1405.128c-1.024-7.716-3.86-19.355-7.031-21.396-3.161-2.035-9.563-3.299-16.707-3.299-8.326 0-15.629 1.724-18.606 4.392-2.448 2.194-4.116 12.334-4.526 18.883v.807c.875 9.315 3.308 20.456 5.733 22.296 3.683 2.794 10.464 4.529 17.698 4.529 8.191 0 15.308-2.18 18.572-5.689 2.343-2.521 4.249-13.053 4.866-19.8v-.723zm-41.801-9.12c-.699 3.354-1 4.25-1.875 11.25 0 0-.354-7.263-.125-9.375.5-4.625 2.25-10.125 2.25-10.125l3.125-.625s-2.125 2.875-3.375 8.875z" fill="#666"/><path d="m639.933 1431.09c8.191 0 15.308-2.18 18.572-5.689 2.343-2.521 4.249-13.053 4.866-19.8v-.723c-1.024-7.716-3.86-19.355-7.031-21.396-3.161-2.035-9.563-3.299-16.707-3.299-8.326 0-15.629 1.724-18.606 4.392-2.448 2.194-4.116 12.334-4.526 18.883v.807c.875 9.315 3.308 20.456 5.733 22.296 3.683 2.793 10.465 4.529 17.699 4.529zm-20.488-24.457s-.354-7.263-.125-9.375c.5-4.625 2.25-10.125 2.25-10.125l3.125-.625s-2.125 2.875-3.375 8.875c-.699 3.354-1 4.25-1.875 11.25z" fill="#666"/><path d="m688.929 1410.463c10.299-.053 29.782-.019 35.93 0 2.048-7.726 3.914-18.558 2.26-21.65-1.811-3.389-12.554-12.63-19.27-17.969l-.179-.026c-.291-.01-1.004-.019-1.979-.019-7.493 0-11.973.676-13.088 1.347-2.396 1.44-4.824 6.692-6.334 13.704-.938 4.361-1.375 17.368-1.453 19.962.936 2.042 2.78 4.655 4.108 4.655v2.498l.005-2.498zm-.353-26.317c1.255-4.479 3.886-9.617 3.886-9.617l3.185-.102s-2.569 2.486-4.79 8.198c-1.241 3.194-1.686 4.027-3.701 10.788 0 0 .846-7.222 1.42-9.267z" fill="#666"/><path d="m1054.596 1411.13c10.298-.054 29.782-.019 35.931 0 2.047-7.726 3.913-18.558 2.26-21.651-1.811-3.388-12.554-12.629-19.271-17.969l-.178-.025c-.291-.01-1.003-.019-1.979-.019-7.493 0-11.973.676-13.088 1.347-2.397 1.441-4.825 6.692-6.335 13.704-.938 4.361-1.374 17.367-1.453 19.962.936 2.042 2.78 4.655 4.108 4.655v2.498l.01-2.498zm.313-25.984c1.255-4.479 3.886-9.617 3.886-9.617l3.186-.102s-2.569 2.486-4.79 8.198c-1.241 3.194-1.686 4.027-3.701 10.788-.001 0 .845-7.222 1.419-9.267z" fill="#666"/><path d="m592.071 1408.391c.65-.548 1.91-2.642 2.845-4.717-.146-2.866-.838-15.527-1.849-19.802-1.65-6.98-4.182-12.182-6.608-13.574-1.499-.86-7.435-1.461-14.435-1.461h-.291l-.546.224c-7.545 4.152-19.84 12.554-21.092 17.662-.98 3.999 3.639 15.894 7.178 23.399 5.88-.033 26.666-.257 34.798-1.733zm-29.104-29.465c-2.794 1.983-3.624 2.435-9.027 6.971 0 0 4.681-5.563 6.285-6.958 3.512-3.049 8.537-5.891 8.537-5.891l2.715 1.667c.001 0-3.512.663-8.51 4.211z" fill="#666"/><path d="m916.096 1386.725c-.98 3.999 3.639 15.894 7.178 23.399 5.879-.033 26.666-.257 34.797-1.733.65-.548 1.91-2.642 2.846-4.718-.146-2.867-.838-15.526-1.849-19.801-1.651-6.98-4.184-12.183-6.608-13.574-1.499-.86-7.435-1.461-14.435-1.461h-.291l-.546.224c-7.545 4.152-19.84 12.553-21.092 17.662zm12.538-7.466c-2.794 1.983-3.624 2.435-9.027 6.971 0 0 4.682-5.563 6.285-6.958 3.513-3.049 8.537-5.891 8.537-5.891l2.715 1.667s-3.512.663-8.51 4.211z" fill="#666"/><path d="m621.57 1387.133s-1.75 5.5-2.25 10.125c-.229 2.112.125 9.375.125 9.375.875-7 1.176-7.896 1.875-11.25 1.25-6 3.375-8.875 3.375-8.875l-3.125.625z" fill="#fff"/><path d="m985.57 1397.883c-.229 2.112.125 9.375.125 9.375.875-7 1.176-7.896 1.875-11.25 1.25-6 3.375-8.875 3.375-8.875l-3.125.625s-1.75 5.5-2.25 10.125z" fill="#fff"/><path d="m560.226 1378.938c-1.604 1.395-6.285 6.958-6.285 6.958 5.403-4.536 6.233-4.987 9.027-6.971 4.998-3.548 8.51-4.211 8.51-4.211l-2.715-1.667c-.001.001-5.025 2.843-8.537 5.891z" fill="#fff"/><path d="m925.892 1379.271c-1.604 1.395-6.285 6.958-6.285 6.958 5.403-4.536 6.233-4.987 9.027-6.971 4.998-3.548 8.51-4.211 8.51-4.211l-2.715-1.667c0 .001-5.024 2.843-8.537 5.891z" fill="#fff"/><path d="m695.647 1374.427l-3.185.102s-2.631 5.138-3.886 9.617c-.573 2.046-1.42 9.268-1.42 9.268 2.016-6.761 2.46-7.594 3.701-10.788 2.221-5.713 4.79-8.199 4.79-8.199z" fill="#fff"/><path d="m1061.98 1375.427l-3.186.102s-2.631 5.138-3.886 9.617c-.573 2.046-1.42 9.268-1.42 9.268 2.016-6.761 2.46-7.594 3.701-10.788 2.222-5.713 4.791-8.199 4.791-8.199z" fill="#fff"/><path d="m1035.737 820.091s18.208 42.667 5.682 58.847c-5.024 6.49-15.305 9.182-15.505 9.234l-.01.002c.126 5.333.289 8.338.432 10.525.149 2.284.276 3.678.318 5.891.229 11.995.417 21.083.417 21.083.164-.001.381-.015.629-.038 2.079-.191 6.945-1.221 11.982-4.729 1.998-1.392 3.68-3.157 5.095-5.092 3.502-4.789 5.35-10.622 6.184-14.505.149-.694.271-1.335.358-1.887l.033-.226c.308-1.968.555-4.005.752-6.076 1.071-11.241.553-23.551-1.202-31.948-4.457-21.33-9.383-32.144-12.377-37.192-1.708-2.878-2.789-3.889-2.789-3.889z" fill="#666"/><path d="m662.089 1099.393c.944-.426 1.639-.791 1.981-.947l-.875-1.951c-3.49-7.779-16.513-36.858-20.541-46.569-5.854-14.114-16.646-51.042-16.646-51.042l-.002.04c-.062.841 4.921 34.966 6.481 43.918 4.265 24.467-8.479 26.292-8.479 26.292s.391 1.031 1.093 2.686c1.774 4.177 5.555 12.352 10.167 18.131.306.385.614.761.927 1.121.534.615 1.059 1.213 1.585 1.798 2.991 3.318 6.055 6.118 11.228 7.979 4.879 1.753 10.175-.146 13.081-1.456z" fill="#666"/><path d="m381.829 1260.748c-1.304-10.431.105-23.506.967-29.836-30.108 5.862-40.58 29.362-40.29 48.249.353 23.052 16.132 48.129 45.667 52.729l1.668-16.736c-.494-.23-1.052-.484-1.647-.755-9.934-4.521-33.195-15.108-25.748-35.572 4.557-12.523 12.996-17.55 19.373-18.079h.01zm-25.992-6.816c-7.474 10.993-10.558 23.418-10.558 23.418s-3.249-7.505 8.292-25.585c7.932-12.427 17.134-14.069 17.134-14.069l.632.045c0-.001-7.925 5.049-15.5 16.191z" fill="#adadad"/><path d="m406.778 1278.135c-4.808-.942-8.988-2.74-10.813-3.6 3.205 1.745 6.991 3.022 10.813 3.6z" fill="#adadad"/><path d="m409.864 1274.049c4.766-1.623 8.906-6.493 11.921-11.705 4.703-8.137 5.816-22.739 5.816-22.739 4.068.201 6.508.285 7.74.319l.038-.299c-16.021-.283-21.806-1.433-27.571-2.893l-1.767-.446c-7.569-1.91-12.967-3.272-18.241-5.052-1.484 10.848-3.172 32.392 2.082 38.578 1.362 1.604 3.208 3.065 5.35 4.314 1.323.379 8.166 2.129 14.632-.077zm-15.002-35.548c-4.979 11.891-4.061 26.822-4.061 26.822-2.68-11.167-2.477-22.753.208-26.956.391-.614 4.125-.509 3.853.134z" fill="#adadad"/><path d="m429.183 1267.028c.038-.114 3.826-11.469 4.664-15.245.528-2.382 1.253-8.318 1.66-11.854l-.167-.01c-1.232-.034-3.671-.118-7.74-.319 0 0-1.113 14.603-5.816 22.739-3.015 5.212-7.155 10.082-11.921 11.705-6.465 2.206-13.309.456-14.632.078l-.247-.072s.356.188.981.48c1.824.859 6.004 2.657 10.813 3.6 4.948.971 10.551 1.03 14.908-1.791 2.417-1.565 4.874-4.364 6.936-7.624l.561-1.692z" fill="#666"/><path d="m440.53 1240.023c-.404 3.54-1.195 10.112-1.802 12.844-.68 3.063-3.011 10.298-4.159 13.798 4.215 2.604 13.911 9.811 13.747 20.923-.246 16.773-11.233 27.308-31.006 29.826l-1.329 16.432c.518.014 1.033.02 1.542.02 32.805 0 50.118-27.454 50.266-54.579.102-18.712-8.313-37.677-27.259-39.264z" fill="#666"/><path d="m391.009 1238.367c-2.685 4.203-2.888 15.789-.208 26.956 0 0-.917-14.932 4.061-26.822.272-.643-3.462-.748-3.853-.134z" fill="#fff"/><path d="m353.57 1251.765c-11.541 18.08-8.292 25.585-8.292 25.585s3.084-12.425 10.558-23.418c7.575-11.142 15.5-16.191 15.5-16.191l-.632-.045c.001-.001-9.202 1.642-17.134 14.069z" fill="#fff"/></g></svg>