<?xml version="1.0" encoding="UTF-8" standalone="no"?>
<!-- Created with Inkscape (http://www.inkscape.org/) -->

<svg
   xmlns:dc="http://purl.org/dc/elements/1.1/"
   xmlns:cc="http://creativecommons.org/ns#"
   xmlns:rdf="http://www.w3.org/1999/02/22-rdf-syntax-ns#"
   xmlns:svg="http://www.w3.org/2000/svg"
   xmlns="http://www.w3.org/2000/svg"
   xmlns:sodipodi="http://sodipodi.sourceforge.net/DTD/sodipodi-0.dtd"
   xmlns:inkscape="http://www.inkscape.org/namespaces/inkscape"
   version="1.1"
   width="271"
   height="303.71823"
   id="svg2"
   xml:space="preserve"
   inkscape:version="0.48.2 r9819"
   sodipodi:docname="lmd.svg"><sodipodi:namedview
     pagecolor="#ffffff"
     bordercolor="#666666"
     borderopacity="1"
     objecttolerance="10"
     gridtolerance="10"
     guidetolerance="10"
     inkscape:pageopacity="0"
     inkscape:pageshadow="2"
     inkscape:window-width="1920"
     inkscape:window-height="1095"
     id="namedview535"
     showgrid="false"
     inkscape:zoom="3.108144"
     inkscape:cx="135.5"
     inkscape:cy="203.33678"
     inkscape:window-x="0"
     inkscape:window-y="0"
     inkscape:window-maximized="1"
     inkscape:current-layer="svg2" /><metadata
     id="metadata8"><rdf:RDF><cc:Work
         rdf:about=""><dc:format>image/svg+xml</dc:format><dc:type
           rdf:resource="http://purl.org/dc/dcmitype/StillImage" /><dc:title /></cc:Work></rdf:RDF></metadata><defs
     id="defs6"><clipPath
       id="clipPath16"><path
         d="m 0,2000 3000,0 L 3000,0 0,0 0,2000 z"
         id="path18" /></clipPath><clipPath
       id="clipPath32"><path
         d="m 2145.45,1249.2 222.44,0 0,-203.35 -222.44,0 0,203.35 z"
         id="path34" /></clipPath><clipPath
       id="clipPath58"><path
         d="m 2023.66,1111.38 62.87,0 0,-64.58 -62.87,0 0,64.58 z"
         id="path60" /></clipPath><clipPath
       id="clipPath84"><path
         d="m 2151.45,1679.41 138.01,0 0,-346.89 -138.01,0 0,346.89 z"
         id="path86" /></clipPath><clipPath
       id="clipPath108"><path
         d="m 2144.03,1438.28 34.76,0 0,-111.11 -34.76,0 0,111.11 z"
         id="path110" /></clipPath><clipPath
       id="clipPath132"><path
         d="m 1627.13,1597.35 123.57,0 0,-201.7 -123.57,0 0,201.7 z"
         id="path134" /></clipPath><clipPath
       id="clipPath156"><path
         d="m 1725.59,1442.84 39.31,0 0,-110.54 -39.31,0 0,110.54 z"
         id="path158" /></clipPath><clipPath
       id="clipPath196"><path
         d="m 2203.4,1635.63 77.76,0 0,-36.26 -77.76,0 0,36.26 z"
         id="path198" /></clipPath><clipPath
       id="clipPath212"><path
         d="m 2204.21,1567.04 84.01,0 0,-21.25 -84.01,0 0,21.25 z"
         id="path214" /></clipPath><clipPath
       id="clipPath228"><path
         d="m 2195.67,1509.01 81.01,0 0,-28.62 -81.01,0 0,28.62 z"
         id="path230" /></clipPath><clipPath
       id="clipPath244"><path
         d="m 2178.65,1463.43 70.14,0 0,-52.2 -70.14,0 0,52.2 z"
         id="path246" /></clipPath><clipPath
       id="clipPath260"><path
         d="m 2170.36,1417.17 31.84,0 0,-57.6 -31.84,0 0,57.6 z"
         id="path262" /></clipPath><clipPath
       id="clipPath276"><path
         d="m 1587.83,1555.43 74.28,0 0,-29.53 -74.28,0 0,29.53 z"
         id="path278" /></clipPath><clipPath
       id="clipPath292"><path
         d="m 1627.65,1451.14 66.91,0 0,-51.65 -66.91,0 0,51.65 z"
         id="path294" /></clipPath><clipPath
       id="clipPath308"><path
         d="m 1587.74,1493.79 74,0 0,-34.17 -74,0 0,34.17 z"
         id="path310" /></clipPath><clipPath
       id="clipPath324"><path
         d="m 1689.06,1434.25 34.04,0 0,-68.22 -34.04,0 0,68.22 z"
         id="path326" /></clipPath><clipPath
       id="clipPath368"><path
         d="m 1782.24,1123.94 38.99,0 0,-83.05 -38.99,0 0,83.05 z"
         id="path370" /></clipPath><clipPath
       id="clipPath384"><path
         d="m 1725.15,1026.7 136.76,0 0,-186.062 -136.76,0 0,186.062 z"
         id="path386" /></clipPath><clipPath
       id="clipPath404"><path
         d="m 1821.35,1082.87 54.26,0 0,-34.9 -54.26,0 0,34.9 z"
         id="path406" /></clipPath><clipPath
       id="clipPath428"><path
         d="m 1566.08,1069.49 42.37,0 0,-45.87 -42.37,0 0,45.87 z"
         id="path430" /></clipPath><clipPath
       id="clipPath452"><path
         d="m 1563.06,1192.81 211.75,0 0,-135.26 -211.75,0 0,135.26 z"
         id="path454" /></clipPath><clipPath
       id="clipPath472"><path
         d="m 1550.19,1149.22 68.72,0 0,-52.58 -68.72,0 0,52.58 z"
         id="path474" /></clipPath><clipPath
       id="clipPath488"><path
         d="m 1612.98,1196.6 39.02,0 0,-72.79 -39.02,0 0,72.79 z"
         id="path490" /></clipPath><clipPath
       id="clipPath504"><path
         d="m 1680.88,1223.44 30.34,0 0,-75.4 -30.34,0 0,75.4 z"
         id="path506" /></clipPath><clipPath
       id="clipPath524"><path
         d="m 1753.96,1261.43 47.69,0 0,-105.96 -47.69,0 0,105.96 z"
         id="path526" /></clipPath><clipPath
       id="clipPath580"><path
         d="m 1933.38,1540.63 168.33,0 0,-385.86 -168.33,0 0,385.86 z"
         id="path582" /></clipPath><clipPath
       id="clipPath596"><path
         d="m 1865.5,1491.53 282.96,0 0,-445.91 -282.96,0 0,445.91 z"
         id="path598" /></clipPath><clipPath
       id="clipPath620"><path
         d="m 1659.43,1620.91 45.46,0 0,-53.09 -45.46,0 0,53.09 z"
         id="path622" /></clipPath><clipPath
       id="clipPath644"><path
         d="m 2218.67,1712.37 45.67,0 0,-40.5 -45.67,0 0,40.5 z"
         id="path646" /></clipPath><clipPath
       id="clipPath668"><path
         d="m 2329.92,1058.49 42.36,0 0,-45.87 -42.36,0 0,45.87 z"
         id="path670" /></clipPath><clipPath
       id="clipPath700"><path
         d="m 2142.24,1122.28 38.99,0 0,-83.06 -38.99,0 0,83.06 z"
         id="path702" /></clipPath><clipPath
       id="clipPath716"><path
         d="m 2087.78,1022.44 131.63,0 0,-180.968 -131.63,0 0,180.968 z"
         id="path718" /></clipPath><clipPath
       id="clipPath756"><path
         d="m 1540.02,1024.42 39.07,0 0,-46.558 -39.07,0 0,46.558 z"
         id="path758" /></clipPath><clipPath
       id="clipPath772"><path
         d="m 2286.86,1129.64 78.7,0 0,-31.06 -78.7,0 0,31.06 z"
         id="path774" /></clipPath><clipPath
       id="clipPath788"><path
         d="m 2123.67,1261.39 36.66,0 0,-105.37 -36.66,0 0,105.37 z"
         id="path790" /></clipPath><clipPath
       id="clipPath804"><path
         d="m 2268.62,1209.5 53.16,0 0,-71.7 -53.16,0 0,71.7 z"
         id="path806" /></clipPath><clipPath
       id="clipPath820"><path
         d="m 2222.76,1242.5 32.23,0 0,-80.06 -32.23,0 0,80.06 z"
         id="path822" /></clipPath><clipPath
       id="clipPath836"><path
         d="m 2163.06,1244.23 21.47,0 0,-76.82 -21.47,0 0,76.82 z"
         id="path838" /></clipPath><clipPath
       id="clipPath924"><path
         d="m 2300.16,1013.41 39.98,0 0,-46.009 -39.98,0 0,46.009 z"
         id="path926" /></clipPath><clipPath
       id="clipPath964"><path
         d="m 1682.87,1673.04 26.29,0 0,-58.18 -26.29,0 0,58.18 z"
         id="path966" /></clipPath><clipPath
       id="clipPath1004"><path
         d="m 2173.53,1745.63 54.08,0 0,-39.03 -54.08,0 0,39.03 z"
         id="path1006" /></clipPath></defs><g
     transform="matrix(1.25,0,0,-1.25,-3.1822767,2494.2044)"
     id="g10"><path
       d="m 230.40255,299.25848 a 99.642479,32.441738 0 1 1 -199.284958,0 99.642479,32.441738 0 1 1 199.284958,0 z"
       transform="matrix(0.73469388,0,0,-0.73469388,16.338096,1998.4871)"
       id="path4043"
       style="fill:#000000;fill-opacity:0.15686275;stroke:none" /><g
       transform="matrix(0.23144362,0,0,0.23144362,-338.94637,1576.9225)"
       id="g12"><g
         clip-path="url(#clipPath16)"
         id="g14"><g
           transform="translate(2280.1113,1124.8022)"
           id="g20"><path
             d="M 0,0 C 13.425,-20.999 5.637,-40.409 -0.233,-54.73 4.063,-66.344 46.222,-87.969 79.624,-66.25 85.517,-45.153 91.407,3.162 71.722,43.531 62.86,61.7 45.873,86.015 17.213,99.677 c -71.282,33.979 -136.595,18.968 -140.105,18.638 l -21,-74.999 c 25.334,2 57,-0.667 74.913,-2.343 C -41.515,38.401 -17.896,27.992 0,0"
             id="path22"
             style="fill:#f2f2f2;fill-opacity:1;fill-rule:nonzero;stroke:none" /></g><g
           transform="translate(2280.1113,1124.8022)"
           id="g24"><path
             d="M 0,0 C 13.425,-20.999 5.637,-40.409 -0.233,-54.73 4.063,-66.344 46.222,-87.969 79.624,-66.25 85.517,-45.153 91.407,3.162 71.722,43.531 62.86,61.7 45.873,86.015 17.213,99.677 c -71.282,33.979 -136.595,18.968 -140.105,18.638 l -21,-74.999 c 25.334,2 57,-0.667 74.913,-2.343 C -41.515,38.401 -17.896,27.992 0,0 z"
             id="path26"
             style="fill:none;stroke:#000000;stroke-width:5;stroke-linecap:butt;stroke-linejoin:miter;stroke-miterlimit:10;stroke-opacity:1;stroke-dasharray:none" /></g><g
           id="g28"><g
             id="g30" /><g
             id="g36"><g
               clip-path="url(#clipPath32)"
               id="g38"
               style="opacity:0.14999402"><g
                 transform="translate(2359.7354,1058.5527)"
                 id="g40"><path
                   d="m 0,0 c 5.893,21.096 11.783,69.411 -7.902,109.78 -8.862,18.169 -25.849,42.484 -54.509,56.146 -71.282,33.98 -136.595,18.968 -140.105,18.639 l -8.219,-27.118 c 51,8 93.631,1.137 103.317,-2.03 41.183,-13.47 59.683,-32.47 76.849,-63.303 11.502,-20.66 7.766,-78.85 1.751,-101.618 C -13.235,-6.553 -6.115,-3.977 0,0"
                   id="path42"
                   style="fill:#000000;fill-opacity:1;fill-rule:nonzero;stroke:none" /></g><g
                 transform="translate(2359.7354,1058.5527)"
                 id="g44"><path
                   d="m 0,0 c 5.893,21.096 11.783,69.411 -7.902,109.78 -8.862,18.169 -25.849,42.484 -54.509,56.146 -71.282,33.98 -136.595,18.968 -140.105,18.639 l -8.219,-27.118 c 51,8 93.631,1.137 103.317,-2.03 41.183,-13.47 59.683,-32.47 76.849,-63.303 11.502,-20.66 7.766,-78.85 1.751,-101.618 C -13.235,-6.553 -6.115,-3.977 0,0 z"
                   id="path46"
                   style="fill:none;stroke:#000000;stroke-width:5;stroke-linecap:butt;stroke-linejoin:miter;stroke-miterlimit:10;stroke-opacity:1;stroke-dasharray:none" /></g></g></g></g><path
           d="m 2146.333,1041.557 -39.333,0 0,-18.717 39.333,0 0,18.717 z"
           id="path48"
           style="fill:#808080;fill-opacity:1;fill-rule:nonzero;stroke:#000000;stroke-width:5;stroke-linecap:butt;stroke-linejoin:miter;stroke-miterlimit:10;stroke-opacity:1;stroke-dasharray:none" /><g
           transform="translate(2023.2344,1067.3027)"
           id="g50"><path
             d="m 0,0 51.75,-20.5 11.549,64.58 -29.531,0"
             id="path52"
             style="fill:#adadad;fill-opacity:1;fill-rule:nonzero;stroke:#000000;stroke-width:5;stroke-linecap:butt;stroke-linejoin:miter;stroke-miterlimit:10;stroke-opacity:1;stroke-dasharray:none" /></g><g
           id="g54"><g
             id="g56" /><g
             id="g62"><g
               clip-path="url(#clipPath58)"
               id="g64"
               style="opacity:0.30000299"><g
                 transform="translate(2074.9844,1046.8022)"
                 id="g66"><path
                   d="m 0,0 11.549,64.581 -7.704,0 -0.329,-0.05 c 0,0 -6.682,-29.614 -21.694,-39.329 C -31.514,16.572 -48,19.599 -51.322,20.331 L 0,0 z"
                   id="path68"
                   style="fill:#000000;fill-opacity:1;fill-rule:nonzero;stroke:none" /></g></g></g></g><path
           d="m 1786.333,1043.223 -39.333,0 0,-18.717 39.333,0 0,18.717 z"
           id="path70"
           style="fill:#808080;fill-opacity:1;fill-rule:nonzero;stroke:#000000;stroke-width:5;stroke-linecap:butt;stroke-linejoin:miter;stroke-miterlimit:10;stroke-opacity:1;stroke-dasharray:none" /><g
           transform="translate(2261.8535,1675.9082)"
           id="g72"><path
             d="m 0,0 c -40.245,7.615 -71.649,-30.417 -69.009,-41.675 0,0 -0.056,-0.001 -0.162,0.002 9.984,-8.235 14.984,-30.235 14.317,-72.902 -0.671,-42.961 -20,-102.667 -55,-135.667 l 2.833,-90 c 28.706,6.887 43.178,18.773 72.375,51.829 16.284,18.44 29.408,34.59 47.646,91.652 9.115,28.522 11.65,73.214 12.061,96.591 C 26.117,-40.354 8.627,-13.282 0,0"
             id="path74"
             style="fill:#f2f2f2;fill-opacity:1;fill-rule:nonzero;stroke:none" /></g><g
           transform="translate(2261.8535,1675.9082)"
           id="g76"><path
             d="m 0,0 c -40.245,7.615 -71.649,-30.417 -69.009,-41.675 0,0 -0.056,-0.001 -0.162,0.002 9.984,-8.235 14.984,-30.235 14.317,-72.902 -0.671,-42.961 -20,-102.667 -55,-135.667 l 2.833,-90 c 28.706,6.887 43.178,18.773 72.375,51.829 16.284,18.44 29.408,34.59 47.646,91.652 9.115,28.522 11.65,73.214 12.061,96.591 C 26.117,-40.354 8.627,-13.282 0,0 z"
             id="path78"
             style="fill:none;stroke:#000000;stroke-width:5;stroke-linecap:butt;stroke-linejoin:miter;stroke-miterlimit:10;stroke-opacity:1;stroke-dasharray:none" /></g><g
           id="g80"><g
             id="g82" /><g
             id="g88"><g
               clip-path="url(#clipPath84)"
               id="g90"
               style="opacity:0.14999402"><g
                 transform="translate(2225.8203,1671.1416)"
                 id="g92"><path
                   d="M 0,0 C 24.959,-28.601 29.362,-55.328 31.255,-93.459 34.464,-158.115 -8.026,-276.027 -71.82,-307.975 l 0.833,-27.5 c 28.705,6.886 43.177,18.772 72.375,51.829 16.283,18.44 29.407,34.589 47.645,91.651 9.115,28.522 11.651,73.214 12.061,96.591 C 62.15,-35.587 44.66,-8.515 36.033,4.767 22.758,7.278 10.446,4.822 0,0"
                   id="path94"
                   style="fill:#000000;fill-opacity:1;fill-rule:nonzero;stroke:none" /></g><g
                 transform="translate(2225.8203,1671.1416)"
                 id="g96"><path
                   d="M 0,0 C 24.959,-28.601 29.362,-55.328 31.255,-93.459 34.464,-158.115 -8.026,-276.027 -71.82,-307.975 l 0.833,-27.5 c 28.705,6.886 43.177,18.772 72.375,51.829 16.283,18.44 29.407,34.589 47.645,91.651 9.115,28.522 11.651,73.214 12.061,96.591 C 62.15,-35.587 44.66,-8.515 36.033,4.767 22.758,7.278 10.446,4.822 0,0 z"
                   id="path98"
                   style="fill:none;stroke:#000000;stroke-width:5;stroke-linecap:butt;stroke-linejoin:miter;stroke-miterlimit:10;stroke-opacity:1;stroke-dasharray:none" /></g></g></g></g><g
           transform="translate(2134.3496,1441.6143)"
           id="g100"><path
             d="m 0,0 c 5.795,1.851 20.045,8.494 30.08,-11.05 l 0.993,-1.849 c 0,0 10.913,-24.341 12.577,-43.472 2.128,-24.511 0.555,-43.421 -12.484,-52.419 -10.32,-7.118 -12.945,-5.392 -17.79,-5.629"
             id="path102"
             style="fill:#adadad;fill-opacity:1;fill-rule:nonzero;stroke:#000000;stroke-width:5;stroke-linecap:butt;stroke-linejoin:miter;stroke-miterlimit:10;stroke-opacity:1;stroke-dasharray:none" /></g><g
           id="g104"><g
             id="g106" /><g
             id="g112"><g
               clip-path="url(#clipPath108)"
               id="g114"
               style="opacity:0.30000299"><g
                 transform="translate(2178,1385.2437)"
                 id="g116"><path
                   d="m 0,0 c -1.664,19.13 -12.577,43.472 -12.577,43.472 l -0.993,1.849 c -1.672,3.255 -3.461,5.77 -5.307,7.715 2.971,-15.286 8.828,-51.891 -0.176,-65.135 -4.66,-6.854 -14.916,-10.175 -14.916,-10.175 0.929,-10.864 1.409,-12.018 1.759,-16.339 0.28,-3.44 0.54,-6.628 0.768,-9.442 l 1.168,-9.993 c 4.844,0.236 7.469,-1.489 17.79,5.629 C 0.555,-43.422 2.128,-24.511 0,0"
                   id="path118"
                   style="fill:#000000;fill-opacity:1;fill-rule:nonzero;stroke:none" /></g></g></g></g><g
           transform="translate(1715.9551,1435.6733)"
           id="g120"><path
             d="m 0,0 c -24.368,12.927 -51.41,28.785 -55.65,61.738 -3.774,29.303 -0.375,40.469 20.834,70.499 -15.133,36.173 -60.864,42.652 -71.338,35.646 -12.742,-18.296 -25.914,-53.082 -27.246,-94.395 -0.653,-20.205 4.511,-51.073 21.332,-78 37.033,-59.277 98.344,-65.05 118.736,-71.197 l 25,66.592 C 19.5,-7.333 10.037,-5.324 0,0"
             id="path122"
             style="fill:#f2f2f2;fill-opacity:1;fill-rule:nonzero;stroke:none" /></g><g
           transform="translate(1715.9551,1435.6733)"
           id="g124"><path
             d="m 0,0 c -24.368,12.927 -51.41,28.785 -55.65,61.738 -3.774,29.303 -0.375,40.469 20.834,70.499 -15.133,36.173 -60.864,42.652 -71.338,35.646 -12.742,-18.296 -25.914,-53.082 -27.246,-94.395 -0.653,-20.205 4.511,-51.073 21.332,-78 37.033,-59.277 98.344,-65.05 118.736,-71.197 l 25,66.592 C 19.5,-7.333 10.037,-5.324 0,0 z"
             id="path126"
             style="fill:none;stroke:#000000;stroke-width:5;stroke-linecap:butt;stroke-linejoin:miter;stroke-miterlimit:10;stroke-opacity:1;stroke-dasharray:none" /></g><g
           id="g128"><g
             id="g130" /><g
             id="g136"><g
               clip-path="url(#clipPath132)"
               id="g138"
               style="opacity:0.14999402"><g
                 transform="translate(1746.7773,1424.0601)"
                 id="g140"><path
                   d="m 0,0 0.719,2.462 c -12.166,1.784 -21.629,3.792 -31.666,9.117 -24.367,12.926 -51.41,28.785 -55.651,61.738 -3.773,29.303 -0.375,40.468 20.834,70.499 -0.523,1.251 -1.019,2.557 -1.505,3.889 -4.844,9.57 -11.913,16.844 -19.754,22.178 -10.284,-13.638 -21.479,-29.286 -28.09,-56.764 -5.334,-22.166 -0.774,-68.621 21.097,-91.636 33.004,-34.729 65.414,-41.536 84.487,-46.866 L 0,0 z"
                   id="path142"
                   style="fill:#000000;fill-opacity:1;fill-rule:nonzero;stroke:none" /></g><g
                 transform="translate(1746.7773,1424.0601)"
                 id="g144"><path
                   d="m 0,0 0.719,2.462 c -12.166,1.784 -21.629,3.792 -31.666,9.117 -24.367,12.926 -51.41,28.785 -55.651,61.738 -3.773,29.303 -0.375,40.468 20.834,70.499 -0.523,1.251 -1.019,2.557 -1.505,3.889 -4.844,9.57 -11.913,16.844 -19.754,22.178 -10.284,-13.638 -21.479,-29.286 -28.09,-56.764 -5.334,-22.166 -0.774,-68.621 21.097,-91.636 33.004,-34.729 65.414,-41.536 84.487,-46.866 L 0,0 z"
                   id="path146"
                   style="fill:none;stroke:#000000;stroke-width:5;stroke-linecap:butt;stroke-linejoin:miter;stroke-miterlimit:10;stroke-opacity:1;stroke-dasharray:none" /></g></g></g></g><g
           transform="translate(1748.3467,1332.2988)"
           id="g148"><path
             d="m 0,0 c 0,0 -4.94,-3.841 -15.473,-0.012 -9.093,3.305 -10.411,18.651 -10.411,18.651 0,0 -0.078,1.226 -0.159,3.348 -0.255,6.784 -0.524,22.733 1.732,37.181 2.245,14.372 5.208,28.543 9.466,36.803 1.999,3.877 8.764,10.408 12.778,11.929 11.721,4.444 13.858,2.139 18.618,1.21"
             id="path150"
             style="fill:#adadad;fill-opacity:1;fill-rule:nonzero;stroke:#000000;stroke-width:5;stroke-linecap:butt;stroke-linejoin:miter;stroke-miterlimit:10;stroke-opacity:1;stroke-dasharray:none" /></g><g
           id="g152"><g
             id="g154" /><g
             id="g160"><g
               clip-path="url(#clipPath156)"
               id="g162"
               style="opacity:0.30000299"><g
                 transform="translate(1725.5938,1400.4575)"
                 id="g164"><path
                   d="m 0,0 c 1.87,9.198 5.036,22.241 7.908,27.813 1.999,3.876 8.764,10.408 12.778,11.928 11.721,4.444 13.858,2.139 18.618,1.21 L 22.753,-68.159 c -0.174,-0.197 0.156,38.176 -1.834,47.296 C 17.394,-4.707 6.548,-1.788 0,0"
                   id="path166"
                   style="fill:#000000;fill-opacity:1;fill-rule:nonzero;stroke:none" /></g></g></g></g><g
           transform="translate(2139.9893,1261.3901)"
           id="g168"><path
             d="M 0,0 C 5.931,-1.357 21.579,-2.894 20.268,-24.823 L 20.18,-26.92 c 0,0 -2.995,-26.507 -11.304,-43.819 -10.644,-22.183 -21.627,-37.659 -37.43,-38.764 -12.506,-0.875 -13.885,1.946 -18.176,4.209"
             id="path170"
             style="fill:#adadad;fill-opacity:1;fill-rule:nonzero;stroke:#000000;stroke-width:5;stroke-linecap:butt;stroke-linejoin:miter;stroke-miterlimit:10;stroke-opacity:1;stroke-dasharray:none" /></g><g
           transform="translate(1824.333,1018.4771)"
           id="g172"><path
             d="m 0,0 c 6.666,-25 13.708,-109.629 13.708,-109.629 0,0 17.651,-13.934 20.448,-19.168 3.073,-5.75 -2.562,-25.332 -2.562,-25.332 0,0 -25.493,0.062 -37.82,0 -3.937,-0.022 -6.638,6.666 -6.638,6.666 l -15.933,1 c 0,0 -1.538,-18.09 -5.536,-22.389 -7.813,-8.4 -30.473,-8.383 -39.611,-1.451 -4.827,3.662 -6.723,24.172 -6.723,24.172 l -16.725,0.494 c 0,0 -2.669,-6.285 -4.668,-6.666 -9.607,-1.83 -37.07,-1.826 -37.07,-1.826 0,0 -9.687,19.767 -8.037,26.5 1.992,8.129 22.441,19.326 22.441,19.326 0,0 0.39,77.539 14.391,107.873 C -106.169,8.599 -2.031,7.617 0,0"
             id="path174"
             style="fill:#f2f2f2;fill-opacity:1;fill-rule:nonzero;stroke:none" /></g><g
           transform="translate(1824.333,1018.4771)"
           id="g176"><path
             d="m 0,0 c 6.666,-25 13.708,-109.629 13.708,-109.629 0,0 17.651,-13.934 20.448,-19.168 3.073,-5.75 -2.562,-25.332 -2.562,-25.332 0,0 -25.493,0.062 -37.82,0 -3.937,-0.022 -6.638,6.666 -6.638,6.666 l -15.933,1 c 0,0 -1.538,-18.09 -5.536,-22.389 -7.813,-8.4 -30.473,-8.383 -39.611,-1.451 -4.827,3.662 -6.723,24.172 -6.723,24.172 l -16.725,0.494 c 0,0 -2.669,-6.285 -4.668,-6.666 -9.607,-1.83 -37.07,-1.826 -37.07,-1.826 0,0 -9.687,19.767 -8.037,26.5 1.992,8.129 22.441,19.326 22.441,19.326 0,0 0.39,77.539 14.391,107.873 C -106.169,8.599 -2.031,7.617 0,0 z"
             id="path178"
             style="fill:none;stroke:#000000;stroke-width:5;stroke-linecap:butt;stroke-linejoin:miter;stroke-miterlimit:10;stroke-opacity:1;stroke-dasharray:none" /></g><g
           transform="translate(1875.7344,1065.9692)"
           id="g180"><path
             d="m 0,0 -54,-18 -10.266,64.643 27.6,0.024"
             id="path182"
             style="fill:#adadad;fill-opacity:1;fill-rule:nonzero;stroke:#000000;stroke-width:5;stroke-linecap:butt;stroke-linejoin:miter;stroke-miterlimit:10;stroke-opacity:1;stroke-dasharray:none" /></g><g
           transform="translate(1715.3604,1040.8892)"
           id="g184"><path
             d="M 0,0 C 7.973,0 34.592,1.745 58.64,1.457 73.689,1.276 92.973,0 103.973,0 108.146,0 105.142,25.811 97.907,68.31 96.113,78.851 65.665,84.279 54.973,84.124 43.411,83.956 13.687,81.738 6.894,66.544 4.052,60.188 -3.13,0 0,0"
             id="path186"
             style="fill:#f2f2f2;fill-opacity:1;fill-rule:nonzero;stroke:none" /></g><g
           transform="translate(1715.3604,1040.8892)"
           id="g188"><path
             d="M 0,0 C 7.973,0 34.592,1.745 58.64,1.457 73.689,1.276 92.973,0 103.973,0 108.146,0 105.142,25.811 97.907,68.31 96.113,78.851 65.665,84.279 54.973,84.124 43.411,83.956 13.687,81.738 6.894,66.544 4.052,60.188 -3.13,0 0,0 z"
             id="path190"
             style="fill:none;stroke:#000000;stroke-width:5;stroke-linecap:butt;stroke-linejoin:miter;stroke-miterlimit:10;stroke-opacity:1;stroke-dasharray:none" /></g><g
           id="g192"><g
             id="g194" /><g
             id="g200"><g
               clip-path="url(#clipPath196)"
               id="g202"
               style="opacity:0.39999402"><g
                 transform="translate(2208.0918,1599.3711)"
                 id="g204"><path
                   d="m 0,0 -4.688,2.431 c 22.247,48.25 75.498,30.959 77.754,30.2 l -1.58,-5.275 C 69.406,28.058 20.292,44.011 0,0"
                   id="path206"
                   style="fill:#000000;fill-opacity:1;fill-rule:nonzero;stroke:none" /></g></g></g></g><g
           id="g208"><g
             id="g210" /><g
             id="g216"><g
               clip-path="url(#clipPath212)"
               id="g218"
               style="opacity:0.39999402"><g
                 transform="translate(2208.0137,1545.7866)"
                 id="g220"><path
                   d="m 0,0 -3.799,3.661 c 37.86,36.635 83.55,4.726 84.008,4.4 L 77.016,3.894 C 76.597,4.194 34.629,33.508 0,0"
                   id="path222"
                   style="fill:#000000;fill-opacity:1;fill-rule:nonzero;stroke:none" /></g></g></g></g><g
           id="g224"><g
             id="g226" /><g
             id="g232"><g
               clip-path="url(#clipPath228)"
               id="g234"
               style="opacity:0.39999402"><g
                 transform="translate(2272.4766,1480.394)"
                 id="g236"><path
                   d="m 0,0 c -1.275,1.452 -31.723,35.393 -74.774,19.258 l -2.033,4.634 C -30.084,41.401 2.822,4.72 4.2,3.15 L 0,0 z"
                   id="path238"
                   style="fill:#000000;fill-opacity:1;fill-rule:nonzero;stroke:none" /></g></g></g></g><g
           id="g240"><g
             id="g242" /><g
             id="g248"><g
               clip-path="url(#clipPath244)"
               id="g250"
               style="opacity:0.39999402"><g
                 transform="translate(2243.4863,1411.2256)"
                 id="g252"><path
                   d="m 0,0 c -2.714,7.845 -22.783,40.914 -64.833,47.278 l 0.921,4.931 C -18.646,45.357 2.198,10.458 5.303,1.487 L 0,0 z"
                   id="path254"
                   style="fill:#000000;fill-opacity:1;fill-rule:nonzero;stroke:none" /></g></g></g></g><g
           id="g256"><g
             id="g258" /><g
             id="g264"><g
               clip-path="url(#clipPath260)"
               id="g266"
               style="opacity:0.39999402"><g
                 transform="translate(2170.3643,1417.1719)"
                 id="g268"><path
                   d="m 0,0 c 22.822,-15.114 29.779,-42.038 31.839,-54.805 l -4.937,-2.796 C 24.673,-43.78 18.427,-21.228 0.961,-7.083"
                   id="path270"
                   style="fill:#000000;fill-opacity:1;fill-rule:nonzero;stroke:none" /></g></g></g></g><g
           id="g272"><g
             id="g274" /><g
             id="g280"><g
               clip-path="url(#clipPath276)"
               id="g282"
               style="opacity:0.30000299"><g
                 transform="translate(1657.8643,1525.895)"
                 id="g284"><path
                   d="m 0,0 c -6.26,10.022 -32.194,35.117 -68.032,19.502 l -1.997,4.584 c 17.051,7.429 34.331,7.265 49.973,-0.474 C -7.257,17.279 1.239,7.455 4.241,2.648 L 0,0 z"
                   id="path286"
                   style="fill:#000000;fill-opacity:1;fill-rule:nonzero;stroke:none" /></g></g></g></g><g
           id="g288"><g
             id="g290" /><g
             id="g296"><g
               clip-path="url(#clipPath292)"
               id="g298"
               style="opacity:0.39999402"><g
                 transform="translate(1632.9258,1399.4863)"
                 id="g300"><path
                   d="m 0,0 -5.273,0.114 c 0.664,20.429 13.996,33 25.06,39.948 14.702,9.231 32.829,12.931 41.852,11.17 L 60.416,47.039 C 53.993,48.287 37.666,45.85 23.003,36.643 12.846,30.266 0.609,18.731 0,0"
                   id="path302"
                   style="fill:#000000;fill-opacity:1;fill-rule:nonzero;stroke:none" /></g></g></g></g><g
           id="g304"><g
             id="g306" /><g
             id="g312"><g
               clip-path="url(#clipPath308)"
               id="g314"
               style="opacity:0.39999402"><g
                 transform="translate(1591.96,1459.6211)"
                 id="g316"><path
                   d="M 0,0 -4.222,2.165 C 13.873,40.973 58.754,35.191 69.781,31.52 L 68.36,26.823 C 58.765,30.017 16.449,35.284 0,0"
                   id="path318"
                   style="fill:#000000;fill-opacity:1;fill-rule:nonzero;stroke:none" /></g></g></g></g><g
           id="g320"><g
             id="g322" /><g
             id="g328"><g
               clip-path="url(#clipPath324)"
               id="g330"
               style="opacity:0.39999402"><g
                 transform="translate(1691.8301,1366.0337)"
                 id="g332"><path
                   d="M 0,0 C -11.895,37.588 17.677,63.51 29.207,68.213 L 31.27,64.109 C 22.215,60.417 -6.293,36.315 4.809,1.235 L 0,0 z"
                   id="path334"
                   style="fill:#000000;fill-opacity:1;fill-rule:nonzero;stroke:none" /></g></g></g></g><g
           transform="translate(1518.4844,1069.7183)"
           id="g336"><path
             d="m 0,0 c 0,0 -1.588,-1.138 -3.375,-4 -1.564,-2.506 -2.499,-4.865 -2.791,-5.916 -0.492,-1.772 -1.133,-4.684 -1.084,-7.251 0.084,-4.334 3.001,-8.583 3.001,-8.583 0,0 -6.413,4.453 -5.001,15.75 1,8 6.709,13.124 6.709,13.124 L 0,0 z"
             id="path338"
             style="fill:#ffffff;fill-opacity:1;fill-rule:nonzero;stroke:none" /></g><g
           transform="translate(2283.7334,1053.7183)"
           id="g340"><path
             d="m 0,0 c 0,0 -1.588,-1.138 -3.375,-4 -1.564,-2.506 -2.5,-4.865 -2.791,-5.916 -0.492,-1.772 -1.133,-4.684 -1.084,-7.251 0.084,-4.334 3,-8.583 3,-8.583 0,0 -6.412,4.453 -5,15.75 1,8 6.709,13.124 6.709,13.124 L 0,0 z"
             id="path342"
             style="fill:#ffffff;fill-opacity:1;fill-rule:nonzero;stroke:none" /></g><g
           transform="translate(1900.5488,1658.856)"
           id="g344" /><g
           transform="translate(1628.3262,1625.854)"
           id="g348"><path
             d="m 0,0 c 0,0 -1.293,-1.146 -2.502,-3.591 -1.057,-2.14 -1.556,-4.048 -1.66,-4.873 -0.179,-1.39 -0.317,-3.643 0.131,-5.508 0.756,-3.147 4.121,-5.67 4.121,-5.67 0,0 -6.637,1.977 -7.096,10.504 -0.326,6.039 4.162,10.914 4.162,10.914 L 0,0 z"
             id="path350"
             style="fill:#ffffff;fill-opacity:1;fill-rule:nonzero;stroke:none" /></g><g
           transform="translate(2120.1094,868.8438)"
           id="g352"><path
             d="m 0,0 c 0,0 -2.125,-2.875 -3.375,-8.875 -0.699,-3.354 -1,-4.25 -1.875,-11.25 0,0 -0.354,7.264 -0.125,9.375 0.5,4.625 2.25,10.125 2.25,10.125 L 0,0 z"
             id="path354"
             style="fill:#ffffff;fill-opacity:1;fill-rule:nonzero;stroke:none" /></g><g
           transform="translate(2066.3086,882.9297)"
           id="g356"><path
             d="m 0,0 c 0,0 -3.512,-0.664 -8.51,-4.211 -2.793,-1.984 -3.623,-2.435 -9.027,-6.971 0,0 4.682,5.563 6.285,6.957 3.514,3.049 8.537,5.891 8.537,5.891 L 0,0 z"
             id="path358"
             style="fill:#ffffff;fill-opacity:1;fill-rule:nonzero;stroke:none" /></g><g
           transform="translate(2191.1445,880.5508)"
           id="g360"><path
             d="m 0,0 c 0,0 -2.568,-2.486 -4.789,-8.199 -1.242,-3.194 -1.686,-4.028 -3.701,-10.787 0,0 0.845,7.22 1.42,9.267 1.254,4.479 3.884,9.617 3.884,9.617 L 0,0 z"
             id="path362"
             style="fill:#ffffff;fill-opacity:1;fill-rule:nonzero;stroke:none" /></g><g
           id="g364"><g
             id="g366" /><g
             id="g372"><g
               clip-path="url(#clipPath368)"
               id="g374"
               style="opacity:0.14999402"><g
                 transform="translate(1782.2383,1123.9434)"
                 id="g376"><path
                   d="m 0,0 c 0.666,-3.074 5.056,-23.906 5.746,-41.975 0.578,-15.139 0.123,-30.509 -0.305,-39.992 11.738,-0.439 23.804,-1.087 31.654,-1.087 4.174,0 1.169,25.81 -6.066,68.309 C 29.715,-7.024 13.036,-2.05 0,0"
                   id="path378"
                   style="fill:#000000;fill-opacity:1;fill-rule:nonzero;stroke:none" /></g></g></g></g><g
           id="g380"><g
             id="g382" /><g
             id="g388"><g
               clip-path="url(#clipPath384)"
               id="g390"
               style="opacity:0.14999402"><g
                 transform="translate(1838.041,908.8477)"
                 id="g392"><path
                   d="m 0,0 c 0,0 -7.042,84.629 -13.708,109.629 -0.772,2.898 -16.329,4.834 -35.532,5.625 -0.766,-15.605 -2.897,-49.159 -7.857,-73.216 -7.849,-38.072 -53.167,-60.666 -53.167,-60.666 l 1.36,-17.445 14.529,-0.429 c 0,0 1.896,-20.51 6.723,-24.172 9.138,-6.931 31.798,-6.949 39.611,1.451 3.998,4.299 5.536,22.389 5.536,22.389 l 15.933,-1 c 0,0 2.701,-6.687 6.638,-6.666 12.327,0.062 37.82,0 37.82,0 0,0 5.635,19.582 2.562,25.332 C 17.651,-13.934 0,0 0,0"
                   id="path394"
                   style="fill:#000000;fill-opacity:1;fill-rule:nonzero;stroke:none" /></g><g
                 transform="translate(1838.041,908.8477)"
                 id="g396"><path
                   d="m 0,0 c 0,0 -7.042,84.629 -13.708,109.629 -0.772,2.898 -16.329,4.834 -35.532,5.625 -0.766,-15.605 -2.897,-49.159 -7.857,-73.216 -7.849,-38.072 -53.167,-60.666 -53.167,-60.666 l 1.36,-17.445 14.529,-0.429 c 0,0 1.896,-20.51 6.723,-24.172 9.138,-6.931 31.798,-6.949 39.611,1.451 3.998,4.299 5.536,22.389 5.536,22.389 l 15.933,-1 c 0,0 2.701,-6.687 6.638,-6.666 12.327,0.062 37.82,0 37.82,0 0,0 5.635,19.582 2.562,25.332 C 17.651,-13.934 0,0 0,0 z"
                   id="path398"
                   style="fill:none;stroke:#000000;stroke-width:5;stroke-linecap:butt;stroke-linejoin:miter;stroke-miterlimit:10;stroke-opacity:1;stroke-dasharray:none" /></g></g></g></g><g
           id="g400"><g
             id="g402" /><g
             id="g408"><g
               clip-path="url(#clipPath404)"
               id="g410"
               style="opacity:0.30000299"><g
                 transform="translate(1821.6094,1047.9692)"
                 id="g412"><path
                   d="M 0,0 54,18 40.723,34.898 C 38.766,32.503 35.696,29.106 30.875,24.375 22.424,16.08 9.898,7.744 -0.256,1.609 L 0,0 z"
                   id="path414"
                   style="fill:#000000;fill-opacity:1;fill-rule:nonzero;stroke:none" /></g></g></g></g><g
           transform="translate(1598.9023,1069.5527)"
           id="g416"><path
             d="m 0,0 c -34.334,-22.333 -77.834,0.917 -79.668,12.334 0,0 -13.777,-5.501 -16.666,-22.417 -1.908,-11.177 8.373,-21.677 14,-25.5 7.201,-4.893 24.807,-9.055 33.5,-9.5 12.432,-0.637 63.25,-7.25 58,29.75 C 7.826,-5.887 0,0 0,0"
             id="path418"
             style="fill:#999999;fill-opacity:1;fill-rule:nonzero;stroke:none" /></g><g
           transform="translate(1598.9023,1069.5527)"
           id="g420"><path
             d="m 0,0 c -34.334,-22.333 -77.834,0.917 -79.668,12.334 0,0 -13.777,-5.501 -16.666,-22.417 -1.908,-11.177 8.373,-21.677 14,-25.5 7.201,-4.893 24.807,-9.055 33.5,-9.5 12.432,-0.637 63.25,-7.25 58,29.75 C 7.826,-5.887 0,0 0,0 z"
             id="path422"
             style="fill:none;stroke:#000000;stroke-width:5;stroke-linecap:butt;stroke-linejoin:miter;stroke-miterlimit:10;stroke-opacity:1;stroke-dasharray:none" /></g><g
           id="g424"><g
             id="g426" /><g
             id="g432"><g
               clip-path="url(#clipPath428)"
               id="g434"
               style="opacity:0.30000299"><g
                 transform="translate(1571.8867,1023.6172)"
                 id="g436"><path
                   d="M 0,0 C 18.332,0.606 39.676,5.91 36.182,30.537 34.842,39.983 27.016,45.87 27.016,45.87 17.863,39.57 3.863,35.883 -5.803,36.431 -2.074,31.258 3.795,23.126 3.197,13.151 2.887,7.982 1.455,3.429 0,0"
                   id="path438"
                   style="fill:#000000;fill-opacity:1;fill-rule:nonzero;stroke:none" /></g></g></g></g><g
           transform="translate(1740.9092,1233.4229)"
           id="g440"><path
             d="m 0,0 c -53.001,-8.825 -200.512,-39.434 -222.009,-151.698 1.834,-11.417 45.334,-34.667 79.668,-12.334 22,40.667 51.508,69.188 142.832,88.417 6.813,1.434 19.508,2.868 29.786,3.887 L 0,0 z"
             id="path442"
             style="fill:#f2f2f2;fill-opacity:1;fill-rule:nonzero;stroke:none" /></g><g
           transform="translate(1740.9092,1233.4229)"
           id="g444"><path
             d="m 0,0 c -53.001,-8.825 -200.512,-39.434 -222.009,-151.698 1.834,-11.417 45.334,-34.667 79.668,-12.334 22,40.667 51.508,69.188 142.832,88.417 6.813,1.434 19.508,2.868 29.786,3.887 L 0,0 z"
             id="path446"
             style="fill:none;stroke:#000000;stroke-width:5;stroke-linecap:butt;stroke-linejoin:miter;stroke-miterlimit:10;stroke-opacity:1;stroke-dasharray:none" /></g><g
           id="g448"><g
             id="g450" /><g
             id="g456"><g
               clip-path="url(#clipPath452)"
               id="g458"
               style="opacity:0.14999402"><g
                 transform="translate(1741.4004,1157.8027)"
                 id="g460"><path
                   d="M 0,0 C 6.813,1.435 19.508,2.868 29.786,3.888 L 17.744,32.417 c -27.32,-1.546 -174.453,-33.315 -193.06,-130.171 10.72,-0.033 22.027,2.536 32.484,9.337 C -120.832,-47.75 -91.324,-19.229 0,0"
                   id="path462"
                   style="fill:#000000;fill-opacity:1;fill-rule:nonzero;stroke:none" /></g><g
                 transform="translate(1741.4004,1157.8027)"
                 id="g464"><path
                   d="M 0,0 C 6.813,1.435 19.508,2.868 29.786,3.888 L 17.744,32.417 c -27.32,-1.546 -174.453,-33.315 -193.06,-130.171 10.72,-0.033 22.027,2.536 32.484,9.337 C -120.832,-47.75 -91.324,-19.229 0,0 z"
                   id="path466"
                   style="fill:none;stroke:#000000;stroke-width:5;stroke-linecap:butt;stroke-linejoin:miter;stroke-miterlimit:10;stroke-opacity:1;stroke-dasharray:none" /></g></g></g></g><g
           id="g468"><g
             id="g470" /><g
             id="g476"><g
               clip-path="url(#clipPath472)"
               id="g478"
               style="opacity:0.39999402"><g
                 transform="translate(1614.0605,1096.6353)"
                 id="g480"><path
                   d="m 0,0 c -17.953,0 -34.703,7.147 -47.598,20.419 -11.443,11.778 -16.896,25.362 -16.215,32.163 l 4.975,-0.496 c -0.473,-4.727 3.912,-16.95 14.826,-28.183 9.199,-9.468 25.084,-20.4 48.509,-18.742 L 4.852,0.173 C 3.227,0.058 1.607,0 0,0"
                   id="path482"
                   style="fill:#000000;fill-opacity:1;fill-rule:nonzero;stroke:none" /></g></g></g></g><g
           id="g484"><g
             id="g486" /><g
             id="g492"><g
               clip-path="url(#clipPath488)"
               id="g494"
               style="opacity:0.39999402"><g
                 transform="translate(1649.9746,1123.8081)"
                 id="g496"><path
                   d="M 0,0 C -40.681,17.981 -38.477,61.991 -35.658,72.792 L -30.82,71.53 C -33.411,61.599 -35.43,21.128 2.021,4.572 L 0,0 z"
                   id="path498"
                   style="fill:#000000;fill-opacity:1;fill-rule:nonzero;stroke:none" /></g></g></g></g><g
           id="g500"><g
             id="g502" /><g
             id="g508"><g
               clip-path="url(#clipPath504)"
               id="g510"
               style="opacity:0.39999402"><g
                 transform="translate(1708.4219,1148.0356)"
                 id="g512"><path
                   d="m 0,0 c -35.104,23.676 -28.555,63.365 -23.492,75.402 l 4.609,-1.937 C -20.705,69.131 -23.682,57.342 -21.906,43.736 -19.729,27.053 -11.418,13.732 2.797,4.146 L 0,0 z"
                   id="path514"
                   style="fill:#000000;fill-opacity:1;fill-rule:nonzero;stroke:none" /></g></g></g></g><g
           transform="translate(1760.377,1261.4248)"
           id="g516"><path
             d="m 0,0 c 0,0 -5.693,2.598 -15.059,-3.558 -8.086,-5.313 -5.828,-20.548 -5.828,-20.548 0,0 0.206,-1.211 0.617,-3.295 1.317,-6.661 4.734,-22.241 10.262,-35.78 5.498,-13.465 11.651,-26.572 17.699,-33.627 2.839,-3.311 10.928,-8.106 15.184,-8.66 12.431,-1.62 13.979,1.115 18.396,3.117"
             id="path518"
             style="fill:#adadad;fill-opacity:1;fill-rule:nonzero;stroke:#000000;stroke-width:5;stroke-linecap:butt;stroke-linejoin:miter;stroke-miterlimit:10;stroke-opacity:1;stroke-dasharray:none" /></g><g
           id="g520"><g
             id="g522" /><g
             id="g528"><g
               clip-path="url(#clipPath524)"
               id="g530"
               style="opacity:0.30000299"><g
                 transform="translate(1753.958,1189.8564)"
                 id="g532"><path
                   d="m 0,0 c 3.941,-8.519 10.03,-20.48 14.11,-25.239 2.839,-3.312 10.928,-8.107 15.184,-8.66 12.431,-1.621 13.978,1.115 18.395,3.117 L 6.419,71.568 C 6.204,71.721 15.376,34.458 15.543,25.125 15.839,8.592 5.959,3.25 0,0"
                   id="path534"
                   style="fill:#000000;fill-opacity:1;fill-rule:nonzero;stroke:none" /></g></g></g></g><g
           transform="translate(1948.708,1044.2871)"
           id="g536"><path
             d="m 0,0 c -0.009,0 -0.019,0 -0.028,0 -0.01,0 -0.02,0 -0.029,0 L 0,0 z"
             id="path538"
             style="fill:#f2f2f2;fill-opacity:1;fill-rule:nonzero;stroke:none" /></g><g
           transform="translate(1948.708,1044.2871)"
           id="g540"><path
             d="m 0,0 c -0.009,0 -0.019,0 -0.028,0 -0.01,0 -0.02,0 -0.029,0 L 0,0 z"
             id="path542"
             style="fill:none;stroke:#000000;stroke-width:5;stroke-linecap:butt;stroke-linejoin:miter;stroke-miterlimit:10;stroke-opacity:1;stroke-dasharray:none" /></g><g
           transform="translate(2146.9834,1391.5747)"
           id="g544"><path
             d="m 0,0 c -2.521,20.495 -9.751,50.922 -20.946,69.621 -4.073,6.803 -45.537,63.546 -169.037,64.046 C -326.218,134.219 -371.589,76.424 -375.661,69.621 -386.856,50.922 -394.086,20.495 -396.607,0 c -2.646,-21.505 -1.22,-62.588 0.278,-83.379 0.818,-11.342 17.346,-89.954 51.115,-144.746 15.483,-25.12 77.877,-105.938 83.215,-108.117 13.621,-5.561 42.267,-9.315 63.695,-9.546 21.429,0.231 50.075,3.985 63.696,9.546 5.337,2.179 68.098,82.775 83.214,108.117 44.911,75.292 50.297,133.404 51.116,144.746 C 1.22,-62.588 2.646,-21.505 0,0"
             id="path546"
             style="fill:#f2f2f2;fill-opacity:1;fill-rule:nonzero;stroke:none" /></g><g
           transform="translate(2146.9834,1391.5747)"
           id="g548"><path
             d="m 0,0 c -2.521,20.495 -9.751,50.922 -20.946,69.621 -4.073,6.803 -45.537,63.546 -169.037,64.046 C -326.218,134.219 -371.589,76.424 -375.661,69.621 -386.856,50.922 -394.086,20.495 -396.607,0 c -2.646,-21.505 -1.22,-62.588 0.278,-83.379 0.818,-11.342 17.346,-89.954 51.115,-144.746 15.483,-25.12 77.877,-105.938 83.215,-108.117 13.621,-5.561 42.267,-9.315 63.695,-9.546 21.429,0.231 50.075,3.985 63.696,9.546 5.337,2.179 68.098,82.775 83.214,108.117 44.911,75.292 50.297,133.404 51.116,144.746 C 1.22,-62.588 2.646,-21.505 0,0 z"
             id="path550"
             style="fill:none;stroke:#000000;stroke-width:5;stroke-linecap:butt;stroke-linejoin:miter;stroke-miterlimit:10;stroke-opacity:1;stroke-dasharray:none" /></g><g
           transform="translate(1948.6504,1490.4131)"
           id="g552"><path
             d="M 0,0 0.023,0 0.059,0 0,0 z"
             id="path554"
             style="fill:#f2f2f2;fill-opacity:1;fill-rule:nonzero;stroke:none" /></g><g
           transform="translate(1948.6504,1490.4131)"
           id="g556"><path
             d="M 0,0 0.023,0 0.059,0 0,0 z"
             id="path558"
             style="fill:none;stroke:#000000;stroke-width:5;stroke-linecap:butt;stroke-linejoin:miter;stroke-miterlimit:10;stroke-opacity:1;stroke-dasharray:none" /></g><g
           transform="translate(1948.708,1045.5718)"
           id="g560"><path
             d="m 0,0 c -0.009,0 -0.019,0 -0.028,0 -0.01,0 -0.02,0 -0.029,0 L 0,0 z"
             id="path562"
             style="fill:#cccccc;fill-opacity:1;fill-rule:nonzero;stroke:none" /></g><g
           transform="translate(1840.5684,1483.6357)"
           id="g564"><path
             d="m 0,0 c 1.233,4.508 -19.01,-7.113 -20.834,-11.417 -12.5,-29.5 -12.083,-109.583 2.25,-186.25 0,0 -4.111,114.704 18.584,197.667"
             id="path566"
             style="fill:#ffffff;fill-opacity:1;fill-rule:nonzero;stroke:none" /></g><g
           transform="translate(1950.2197,1155.0356)"
           id="g568"><path
             d="m 0,0 c -23,0 -53.034,0.373 -69,6.334 -15.641,5.84 -40.673,27.654 -50,41.5 -13.042,19.363 -23.447,64.855 -26.5,88 -3.392,25.716 -6.142,77.063 -6.386,103 -0.197,21.053 1.496,63.19 9.886,82.5 16.952,39.02 71.44,67.1 138.849,67.1 l 1,0 c 69.554,0 118.574,-9.438 143.74,-67.364 8.389,-19.309 10.084,-61.447 9.885,-82.5 -0.243,-25.937 -2.993,-77.283 -6.385,-103 -3.053,-23.144 -13.459,-68.636 -26.5,-88 C 109.263,33.725 84.871,9.759 68.589,6.07 51.8,2.267 0,0 0,0"
             id="path570"
             style="fill:#6cc5e0;fill-opacity:1;fill-rule:nonzero;stroke:none" /></g><g
           transform="translate(1950.2197,1155.0356)"
           id="g572"><path
             d="m 0,0 c -23,0 -53.034,0.373 -69,6.334 -15.641,5.84 -40.673,27.654 -50,41.5 -13.042,19.363 -23.447,64.855 -26.5,88 -3.392,25.716 -6.142,77.063 -6.386,103 -0.197,21.053 1.496,63.19 9.886,82.5 16.952,39.02 71.44,67.1 138.849,67.1 l 1,0 c 69.554,0 118.574,-9.438 143.74,-67.364 8.389,-19.309 10.084,-61.447 9.885,-82.5 -0.243,-25.937 -2.993,-77.283 -6.385,-103 -3.053,-23.144 -13.459,-68.636 -26.5,-88 C 109.263,33.725 84.871,9.759 68.589,6.07 51.8,2.267 0,0 0,0 z"
             id="path574"
             style="fill:none;stroke:#000000;stroke-width:5;stroke-linecap:butt;stroke-linejoin:miter;stroke-miterlimit:10;stroke-opacity:1;stroke-dasharray:none" /></g><g
           id="g576"><g
             id="g578" /><g
             id="g584"><g
               clip-path="url(#clipPath580)"
               id="g586"
               style="opacity:0.14999402"><g
                 transform="translate(1999.8789,1540.6294)"
                 id="g588"><path
                   d="m 0,0 c 17.348,-7.336 55.389,-51.483 63.602,-101.478 12.05,-73.359 1.158,-176.444 -30.664,-226.244 -26.075,-40.798 -70.579,-54.782 -99.436,-57.746 5.814,-0.105 11.516,-0.126 16.838,-0.126 l -0.41,-0.263 c 23,0 53.033,0.373 69,6.334 15.64,5.839 40.674,27.654 50,41.5 13.041,19.363 23.447,64.855 26.5,88 3.392,25.716 6.142,77.062 6.384,103 0.2,21.052 -1.496,63.19 -9.884,82.5 C 73.563,-22.249 42.488,-5.802 0,0"
                   id="path590"
                   style="fill:#000000;fill-opacity:1;fill-rule:nonzero;stroke:none" /></g></g></g></g><g
           id="g592"><g
             id="g594" /><g
             id="g600"><g
               clip-path="url(#clipPath596)"
               id="g602"
               style="opacity:0.14999402"><g
                 transform="translate(2126.0371,1461.0293)"
                 id="g604"><path
                   d="m 0,0 c -1.862,3.11 -11.548,16.659 -33.306,30.499 17.812,-41.134 44.008,-153.347 1.084,-266.027 -8,-21 -34.75,-86 -82.25,-119.5 -79.248,-55.89 -123.928,-41.03 -146.062,-28.692 10.101,-12.554 17.76,-21.441 19.481,-22.144 13.621,-5.56 42.267,-9.314 63.696,-9.545 21.428,0.231 50.074,3.985 63.695,9.545 5.338,2.18 68.099,82.776 83.215,108.118 44.91,75.292 50.297,133.404 51.115,144.746 1.498,20.791 2.924,61.874 0.278,83.379 C 18.425,-49.126 11.195,-18.699 0,0"
                   id="path606"
                   style="fill:#000000;fill-opacity:1;fill-rule:nonzero;stroke:none" /></g></g></g></g><g
           transform="translate(1681.418,1567.8848)"
           id="g608"><path
             d="m 0,0 c -15.592,37.875 -64.602,43.422 -72.592,35.064 0,0 -8.221,12.349 -0.998,27.915 4.774,10.285 19.197,13.095 25.999,13.048 8.706,-0.059 25.563,-6.624 32.974,-11.192 C -4.021,58.303 41.572,34.905 16.249,7.422 9.785,0.405 0,0 0,0"
             id="path610"
             style="fill:#999999;fill-opacity:1;fill-rule:nonzero;stroke:none" /></g><g
           transform="translate(1681.418,1567.8848)"
           id="g612"><path
             d="m 0,0 c -15.592,37.875 -64.602,43.422 -72.592,35.064 0,0 -8.221,12.349 -0.998,27.915 4.774,10.285 19.197,13.095 25.999,13.048 8.706,-0.059 25.563,-6.624 32.974,-11.192 C -4.021,58.303 41.572,34.905 16.249,7.422 9.785,0.405 0,0 0,0 z"
             id="path614"
             style="fill:none;stroke:#000000;stroke-width:5;stroke-linecap:butt;stroke-linejoin:miter;stroke-miterlimit:10;stroke-opacity:1;stroke-dasharray:none" /></g><g
           id="g616"><g
             id="g618" /><g
             id="g624"><g
               clip-path="url(#clipPath620)"
               id="g626"
               style="opacity:0.30000299"><g
                 transform="translate(1684.9141,1620.9126)"
                 id="g628"><path
                   d="m 0,0 c 14.734,-10.922 29.276,-27.421 12.4,-45.693 -6.472,-7.009 -16.257,-7.402 -16.257,-7.402 -3.948,10.387 -13.368,21.38 -21.631,26.426 6.008,2.135 15.461,5.488 20.638,14.033 C -2.164,-8.208 -0.753,-3.648 0,0"
                   id="path630"
                   style="fill:#000000;fill-opacity:1;fill-rule:nonzero;stroke:none" /></g></g></g></g><g
           transform="translate(2261.1865,1675.9087)"
           id="g632"><path
             d="m 0,0 c -40.245,7.615 -71.649,-30.417 -69.009,-41.675 0,0 -14.834,-0.146 -23.931,14.404 -6.012,9.614 -0.492,23.233 3.261,28.906 4.803,7.262 19.506,17.8 27.379,21.515 11.258,5.311 55.752,30.736 64.953,-5.484 C 5.003,8.419 0,0 0,0"
             id="path634"
             style="fill:#999999;fill-opacity:1;fill-rule:nonzero;stroke:none" /></g><g
           transform="translate(2261.1865,1675.9087)"
           id="g636"><path
             d="m 0,0 c -40.245,7.615 -71.649,-30.417 -69.009,-41.675 0,0 -14.834,-0.146 -23.931,14.404 -6.012,9.614 -0.492,23.233 3.261,28.906 4.803,7.262 19.506,17.8 27.379,21.515 11.258,5.311 55.752,30.736 64.953,-5.484 C 5.003,8.419 0,0 0,0 z"
             id="path638"
             style="fill:none;stroke:#000000;stroke-width:5;stroke-linecap:butt;stroke-linejoin:miter;stroke-miterlimit:10;stroke-opacity:1;stroke-dasharray:none" /></g><g
           id="g640"><g
             id="g642" /><g
             id="g648"><g
               clip-path="url(#clipPath644)"
               id="g650"
               style="opacity:0.30000299"><g
                 transform="translate(2218.6689,1707.7881)"
                 id="g652"><path
                   d="m 0,0 c 17.194,6.382 38.957,9.558 45.052,-14.557 2.338,-9.25 -2.675,-17.662 -2.675,-17.662 -10.857,2.364 -25.211,0.473 -33.95,-3.695 1.491,6.199 3.844,15.949 -0.489,24.953 C 5.694,-6.293 2.644,-2.622 0,0"
                   id="path654"
                   style="fill:#000000;fill-opacity:1;fill-rule:nonzero;stroke:none" /></g></g></g></g><g
           transform="translate(2359.7354,1058.5527)"
           id="g656"><path
             d="m 0,0 c -34.334,-22.333 -77.834,0.917 -79.668,12.334 0,0 -13.777,-5.501 -16.666,-22.417 -1.908,-11.177 8.373,-21.677 14,-25.5 7.201,-4.893 24.807,-9.055 33.5,-9.5 12.432,-0.637 63.25,-7.25 58,29.75 C 7.826,-5.887 0,0 0,0"
             id="path658"
             style="fill:#999999;fill-opacity:1;fill-rule:nonzero;stroke:none" /></g><g
           transform="translate(2359.7354,1058.5527)"
           id="g660"><path
             d="m 0,0 c -34.334,-22.333 -77.834,0.917 -79.668,12.334 0,0 -13.777,-5.501 -16.666,-22.417 -1.908,-11.177 8.373,-21.677 14,-25.5 7.201,-4.893 24.807,-9.055 33.5,-9.5 12.432,-0.637 63.25,-7.25 58,29.75 C 7.826,-5.887 0,0 0,0 z"
             id="path662"
             style="fill:none;stroke:#000000;stroke-width:5;stroke-linecap:butt;stroke-linejoin:miter;stroke-miterlimit:10;stroke-opacity:1;stroke-dasharray:none" /></g><g
           id="g664"><g
             id="g666" /><g
             id="g672"><g
               clip-path="url(#clipPath668)"
               id="g674"
               style="opacity:0.30000299"><g
                 transform="translate(2335.7197,1012.6172)"
                 id="g676"><path
                   d="M 0,0 C 18.332,0.606 39.676,5.91 36.182,30.537 34.842,39.983 27.016,45.87 27.016,45.87 17.863,39.57 3.863,35.883 -5.803,36.431 -2.074,31.258 3.795,23.126 3.197,13.151 2.887,7.982 1.455,3.429 0,0"
                   id="path678"
                   style="fill:#000000;fill-opacity:1;fill-rule:nonzero;stroke:none" /></g></g></g></g><g
           transform="translate(2184.333,1016.8101)"
           id="g680"><path
             d="m 0,0 c 6.666,-25 13.708,-109.628 13.708,-109.628 0,0 17.651,-13.934 20.448,-19.168 3.073,-5.75 -2.562,-25.332 -2.562,-25.332 0,0 -25.493,0.062 -37.82,0 -3.937,-0.022 -6.638,6.666 -6.638,6.666 l -15.933,1 c 0,0 -1.538,-18.09 -5.536,-22.389 -7.813,-8.4 -30.473,-8.383 -39.611,-1.451 -4.827,3.662 -6.723,24.172 -6.723,24.172 l -16.725,0.494 c 0,0 -2.669,-6.285 -4.668,-6.666 -9.607,-1.83 -37.07,-1.826 -37.07,-1.826 0,0 -9.687,19.767 -8.037,26.5 1.992,8.128 22.441,19.326 22.441,19.326 0,0 0.39,77.539 14.391,107.872 C -106.169,8.599 -2.031,7.618 0,0"
             id="path682"
             style="fill:#f2f2f2;fill-opacity:1;fill-rule:nonzero;stroke:none" /></g><g
           transform="translate(2184.333,1016.8101)"
           id="g684"><path
             d="m 0,0 c 6.666,-25 13.708,-109.628 13.708,-109.628 0,0 17.651,-13.934 20.448,-19.168 3.073,-5.75 -2.562,-25.332 -2.562,-25.332 0,0 -25.493,0.062 -37.82,0 -3.937,-0.022 -6.638,6.666 -6.638,6.666 l -15.933,1 c 0,0 -1.538,-18.09 -5.536,-22.389 -7.813,-8.4 -30.473,-8.383 -39.611,-1.451 -4.827,3.662 -6.723,24.172 -6.723,24.172 l -16.725,0.494 c 0,0 -2.669,-6.285 -4.668,-6.666 -9.607,-1.83 -37.07,-1.826 -37.07,-1.826 0,0 -9.687,19.767 -8.037,26.5 1.992,8.128 22.441,19.326 22.441,19.326 0,0 0.39,77.539 14.391,107.872 C -106.169,8.599 -2.031,7.618 0,0 z"
             id="path686"
             style="fill:none;stroke:#000000;stroke-width:5;stroke-linecap:butt;stroke-linejoin:miter;stroke-miterlimit:10;stroke-opacity:1;stroke-dasharray:none" /></g><g
           transform="translate(2075.3604,1039.2227)"
           id="g688"><path
             d="M 0,0 C 7.973,0 34.592,1.745 58.64,1.457 73.689,1.276 92.973,0 103.973,0 108.146,0 105.142,25.811 97.907,68.31 96.113,78.851 65.665,84.279 54.973,84.124 43.411,83.956 13.687,81.738 6.894,66.544 4.052,60.188 -3.13,0 0,0"
             id="path690"
             style="fill:#f2f2f2;fill-opacity:1;fill-rule:nonzero;stroke:none" /></g><g
           transform="translate(2075.3604,1039.2227)"
           id="g692"><path
             d="M 0,0 C 7.973,0 34.592,1.745 58.64,1.457 73.689,1.276 92.973,0 103.973,0 108.146,0 105.142,25.811 97.907,68.31 96.113,78.851 65.665,84.279 54.973,84.124 43.411,83.956 13.687,81.738 6.894,66.544 4.052,60.188 -3.13,0 0,0 z"
             id="path694"
             style="fill:none;stroke:#000000;stroke-width:5;stroke-linecap:butt;stroke-linejoin:miter;stroke-miterlimit:10;stroke-opacity:1;stroke-dasharray:none" /></g><g
           id="g696"><g
             id="g698" /><g
             id="g704"><g
               clip-path="url(#clipPath700)"
               id="g706"
               style="opacity:0.14999402"><g
                 transform="translate(2142.2383,1122.2769)"
                 id="g708"><path
                   d="m 0,0 c 0.666,-3.074 5.056,-23.906 5.746,-41.975 0.578,-15.139 0.123,-30.509 -0.305,-39.992 11.738,-0.439 23.804,-1.087 31.654,-1.087 4.174,0 1.169,25.81 -6.066,68.309 C 29.715,-7.024 13.036,-2.05 0,0"
                   id="path710"
                   style="fill:#000000;fill-opacity:1;fill-rule:nonzero;stroke:none" /></g></g></g></g><g
           id="g712"><g
             id="g714" /><g
             id="g720"><g
               clip-path="url(#clipPath716)"
               id="g722"
               style="opacity:0.14999402"><g
                 transform="translate(2198.041,907.1816)"
                 id="g724"><path
                   d="m 0,0 c 0,0 -7.042,84.629 -13.708,109.628 -0.772,2.899 -16.329,4.834 -35.532,5.625 -0.766,-15.604 -2.897,-49.159 -7.857,-73.216 -7.849,-38.072 -53.167,-60.666 -53.167,-60.666 l 1.36,-17.445 14.529,-0.428 c 0,0 1.896,-20.51 6.723,-24.172 9.138,-6.931 31.798,-6.949 39.611,1.451 3.998,4.299 5.536,22.389 5.536,22.389 l 15.933,-1 c 0,0 2.701,-6.687 6.638,-6.666 12.327,0.062 37.82,0 37.82,0 0,0 5.635,19.582 2.562,25.332 C 17.651,-13.934 0,0 0,0"
                   id="path726"
                   style="fill:#000000;fill-opacity:1;fill-rule:nonzero;stroke:none" /></g></g></g></g><g
           transform="translate(1571.667,989.1055)"
           id="g728"><path
             d="m 0,0 c 5.395,-0.005 19.636,-5.118 19.09,-20.729 -0.786,-22.332 -30.304,-26.716 -37.081,-26.519 l -2.379,-21 C 41.498,-74.405 71.367,11.944 8.758,35.201"
             id="path730"
             style="fill:#808080;fill-opacity:1;fill-rule:nonzero;stroke:#000000;stroke-width:5;stroke-linecap:butt;stroke-linejoin:miter;stroke-miterlimit:10;stroke-opacity:1;stroke-dasharray:none" /></g><g
           transform="translate(1527.0117,992.0117)"
           id="g732"><path
             d="M 0,0 C -5.31,0.961 -20.236,-1.521 -22.492,-16.976 -25.718,-39.089 2.539,-48.688 9.241,-49.706 L 7.821,-70.793 C -54.149,-65.773 -68.076,24.528 -2.313,36.2"
             id="path734"
             style="fill:#adadad;fill-opacity:1;fill-rule:nonzero;stroke:#000000;stroke-width:5;stroke-linecap:butt;stroke-linejoin:miter;stroke-miterlimit:10;stroke-opacity:1;stroke-dasharray:none" /></g><g
           transform="translate(1578.6514,1023.6919)"
           id="g736"><path
             d="m 0,0 c -17.589,-1.651 -23.613,-1.169 -29.902,-0.258 -10.292,1.485 -16.447,2.321 -23.195,4.05 0,0 -2.003,-34.763 6.727,-43.098 8.468,-8.091 29.222,-10.82 37.39,-0.756 3.842,4.728 4.402,6.866 5.429,9.121 C 0.454,-22.136 0,0 0,0"
             id="path738"
             style="fill:#adadad;fill-opacity:1;fill-rule:nonzero;stroke:none" /></g><g
           transform="translate(1578.6514,1023.6919)"
           id="g740"><path
             d="m 0,0 c -17.589,-1.651 -23.613,-1.169 -29.902,-0.258 -10.292,1.485 -16.447,2.321 -23.195,4.05 0,0 -2.003,-34.763 6.727,-43.098 8.468,-8.091 29.222,-10.82 37.39,-0.756 3.842,4.728 4.402,6.866 5.429,9.121 C 0.454,-22.136 0,0 0,0 z"
             id="path742"
             style="fill:none;stroke:#000000;stroke-width:5;stroke-linecap:butt;stroke-linejoin:miter;stroke-miterlimit:10;stroke-opacity:1;stroke-dasharray:none" /></g><g
           transform="translate(1536.0566,1018.7129)"
           id="g744"><path
             d="m 0,0 c 0.197,0.669 -3.525,0.355 -3.845,-0.299 -2.198,-4.477 -1.102,-16.013 2.811,-26.809 0,0 -2.583,14.734 1.034,27.108"
             id="path746"
             style="fill:#ffffff;fill-opacity:1;fill-rule:nonzero;stroke:none" /></g><g
           transform="translate(1516.3242,1018.6138)"
           id="g748"><path
             d="m 0,0 c 0,0 -8.233,-4.53 -16.508,-15.162 -8.165,-10.489 -12.042,-22.691 -12.042,-22.691 0,0 -2.759,7.699 9.919,24.999 8.716,11.892 18.002,12.939 18.002,12.939 L 0,0 z"
             id="path750"
             style="fill:#ffffff;fill-opacity:1;fill-rule:nonzero;stroke:none" /></g><g
           id="g752"><g
             id="g754" /><g
             id="g760"><g
               clip-path="url(#clipPath756)"
               id="g762"
               style="opacity:0.30000299"><g
                 transform="translate(1564.4893,995.1367)"
                 id="g764"><path
                   d="m 0,0 c -2.454,-5.496 -6.065,-10.771 -10.636,-12.883 -5.461,-2.523 -11.533,-2.028 -13.834,-1.711 9.87,-4.102 23.746,-3.987 30.074,3.811 3.842,4.727 4.403,6.864 5.43,9.121 4.004,8.805 3.55,30.94 3.55,30.94 C 8.673,28.723 4.074,28.41 0.327,28.273 1.407,18.224 2.247,5.035 0,0"
                   id="path766"
                   style="fill:#000000;fill-opacity:1;fill-rule:nonzero;stroke:none" /></g></g></g></g><g
           id="g768"><g
             id="g770" /><g
             id="g776"><g
               clip-path="url(#clipPath772)"
               id="g778"
               style="opacity:0.39999402"><g
                 transform="translate(2314.5918,1098.5767)"
                 id="g780"><path
                   d="m 0,0 c -12.033,0 -22.405,3.095 -27.729,5.676 l 2.154,4.802 c 4.616,-2.237 17.123,-6.127 31.391,-4.813 17.45,1.6 31.212,10.145 40.903,25.398 l 4.253,-2.921 C 36.951,6.075 16.85,0 0,0"
                   id="path782"
                   style="fill:#000000;fill-opacity:1;fill-rule:nonzero;stroke:none" /></g></g></g></g><g
           id="g784"><g
             id="g786" /><g
             id="g792"><g
               clip-path="url(#clipPath788)"
               id="g794"
               style="opacity:0.30000299"><g
                 transform="translate(2160.2568,1236.5669)"
                 id="g796"><path
                   d="M 0,0 C 1.312,21.93 -14.337,23.466 -20.268,24.823 L -32.502,-2.179 c 7.622,-2.801 15.591,-13.329 16.786,-18.35 2.824,-11.851 -8.671,-44.782 -20.871,-60.013 9.691,6.156 17.53,18.651 25.195,34.626 8.309,17.312 11.304,43.819 11.304,43.819 L 0,0 z"
                   id="path798"
                   style="fill:#000000;fill-opacity:1;fill-rule:nonzero;stroke:none" /></g></g></g></g><g
           id="g800"><g
             id="g802" /><g
             id="g808"><g
               clip-path="url(#clipPath804)"
               id="g810"
               style="opacity:0.39999402"><g
                 transform="translate(2269.8525,1137.7964)"
                 id="g812"><path
                   d="M 0,0 -1.234,4.846 C 10.48,7.829 50.884,32.695 46.897,71.704 L 51.62,70.177 C 54.007,46.821 42.055,29.829 31.607,19.688 19.769,8.194 5.937,1.513 0,0"
                   id="path814"
                   style="fill:#000000;fill-opacity:1;fill-rule:nonzero;stroke:none" /></g></g></g></g><g
           id="g816"><g
             id="g818" /><g
             id="g824"><g
               clip-path="url(#clipPath820)"
               id="g826"
               style="opacity:0.39999402"><g
                 transform="translate(2224.7188,1162.4355)"
                 id="g828"><path
                   d="m 0,0 -1.959,4.524 c 8.224,3.422 35.355,34.552 24.811,74.309 l 4.837,1.228 C 38.957,37.574 10.262,4.27 0,0"
                   id="path830"
                   style="fill:#000000;fill-opacity:1;fill-rule:nonzero;stroke:none" /></g></g></g></g><g
           id="g832"><g
             id="g834" /><g
             id="g840"><g
               clip-path="url(#clipPath836)"
               id="g842"
               style="opacity:0.39999402"><g
                 transform="translate(2165.9082,1167.4146)"
                 id="g844"><path
                   d="m 0,0 -2.848,4.109 c 8.557,5.929 20.983,38.502 14.811,71.797 l 4.916,0.911 C 23.516,41.018 9.723,6.736 0,0"
                   id="path846"
                   style="fill:#000000;fill-opacity:1;fill-rule:nonzero;stroke:none" /></g></g></g></g><g
           transform="translate(2086.6074,871.5059)"
           id="g848"><path
             d="m 0,0 c 0,0 -2.668,-6.285 -4.668,-6.666 -9.607,-1.83 -37.07,-1.826 -37.07,-1.826 0,0 -9.688,19.767 -8.037,26.5 1.992,8.129 22.441,19.326 22.441,19.326 l 1.127,0.463 c 0,0 13.053,0.17 16.469,-1.789 4.142,-2.379 6.697,-10.52 7.797,-15.168 C -0.738,15.748 0,0 0,0"
             id="path850"
             style="fill:#666666;fill-opacity:1;fill-rule:nonzero;stroke:none" /></g><g
           transform="translate(2086.6074,871.5059)"
           id="g852"><path
             d="m 0,0 c 0,0 -2.668,-6.285 -4.668,-6.666 -9.607,-1.83 -37.07,-1.826 -37.07,-1.826 0,0 -9.688,19.767 -8.037,26.5 1.992,8.129 22.441,19.326 22.441,19.326 l 1.127,0.463 c 0,0 13.053,0.17 16.469,-1.789 4.142,-2.379 6.697,-10.52 7.797,-15.168 C -0.738,15.748 0,0 0,0 z"
             id="path854"
             style="fill:none;stroke:#000000;stroke-width:5;stroke-linecap:butt;stroke-linejoin:miter;stroke-miterlimit:10;stroke-opacity:1;stroke-dasharray:none" /></g><g
           transform="translate(2155.0352,870.0137)"
           id="g856"><path
             d="m 0,0 c 0,0 -1.537,-17.09 -5.535,-21.389 -7.813,-8.4 -30.473,-8.382 -39.611,-1.451 -4.827,3.662 -6.723,24.172 -6.723,24.172 l 0,1 c 0,0 1.031,16.789 5.357,20.668 7.141,6.4 30.272,6.523 38.334,1.334 C -2.566,20.721 0,1 0,1 L 0,0 z"
             id="path858"
             style="fill:#666666;fill-opacity:1;fill-rule:nonzero;stroke:none" /></g><g
           transform="translate(2155.0352,870.0137)"
           id="g860"><path
             d="m 0,0 c 0,0 -1.537,-17.09 -5.535,-21.389 -7.813,-8.4 -30.473,-8.382 -39.611,-1.451 -4.827,3.662 -6.723,24.172 -6.723,24.172 l 0,1 c 0,0 1.031,16.789 5.357,20.668 7.141,6.4 30.272,6.523 38.334,1.334 C -2.566,20.721 0,1 0,1 L 0,0 z"
             id="path862"
             style="fill:none;stroke:#000000;stroke-width:5;stroke-linecap:butt;stroke-linejoin:miter;stroke-miterlimit:10;stroke-opacity:1;stroke-dasharray:none" /></g><g
           transform="translate(2197.7129,906.9922)"
           id="g864"><path
             d="m 0,0 c 0,0 -13.189,0.348 -16.564,-1.68 -4.094,-2.463 -6.487,-10.652 -7.493,-15.322 -1.099,-5.115 -1.521,-20.873 -1.521,-20.873 l 0,-0.104 c 0,0 2.701,-6.687 6.639,-6.666 12.326,0.063 37.82,0 37.82,0 0,0 5.635,19.582 2.562,25.332 C 18.646,-14.078 0.994,-0.145 0.994,-0.145 L 0,0 z"
             id="path866"
             style="fill:#666666;fill-opacity:1;fill-rule:nonzero;stroke:none" /></g><g
           transform="translate(2197.7129,906.9922)"
           id="g868"><path
             d="m 0,0 c 0,0 -13.189,0.348 -16.564,-1.68 -4.094,-2.463 -6.487,-10.652 -7.493,-15.322 -1.099,-5.115 -1.521,-20.873 -1.521,-20.873 l 0,-0.104 c 0,0 2.701,-6.687 6.639,-6.666 12.326,0.063 37.82,0 37.82,0 0,0 5.635,19.582 2.562,25.332 C 18.646,-14.078 0.994,-0.145 0.994,-0.145 L 0,0 z"
             id="path870"
             style="fill:none;stroke:#000000;stroke-width:5;stroke-linecap:butt;stroke-linejoin:miter;stroke-miterlimit:10;stroke-opacity:1;stroke-dasharray:none" /></g><g
           transform="translate(1726.2744,872.1719)"
           id="g872"><path
             d="m 0,0 c 0,0 -2.668,-6.285 -4.668,-6.666 -9.607,-1.83 -37.07,-1.826 -37.07,-1.826 0,0 -9.688,19.767 -8.037,26.5 1.992,8.129 22.441,19.326 22.441,19.326 l 1.127,0.463 c 0,0 13.053,0.17 16.469,-1.789 4.142,-2.379 6.697,-10.52 7.797,-15.168 C -0.738,15.748 0,0 0,0"
             id="path874"
             style="fill:#666666;fill-opacity:1;fill-rule:nonzero;stroke:none" /></g><g
           transform="translate(1726.2744,872.1719)"
           id="g876"><path
             d="m 0,0 c 0,0 -2.668,-6.285 -4.668,-6.666 -9.607,-1.83 -37.07,-1.826 -37.07,-1.826 0,0 -9.688,19.767 -8.037,26.5 1.992,8.129 22.441,19.326 22.441,19.326 l 1.127,0.463 c 0,0 13.053,0.17 16.469,-1.789 4.142,-2.379 6.697,-10.52 7.797,-15.168 C -0.738,15.748 0,0 0,0 z"
             id="path878"
             style="fill:none;stroke:#000000;stroke-width:5;stroke-linecap:butt;stroke-linejoin:miter;stroke-miterlimit:10;stroke-opacity:1;stroke-dasharray:none" /></g><g
           transform="translate(1795.7021,870.6797)"
           id="g880"><path
             d="m 0,0 c 0,0 -1.537,-17.09 -5.535,-21.389 -7.813,-8.4 -30.473,-8.382 -39.611,-1.451 -4.827,3.662 -6.723,24.172 -6.723,24.172 l 0,1 c 0,0 1.031,16.789 5.357,20.668 7.141,6.4 30.272,6.523 38.334,1.334 C -2.566,20.721 0,1 0,1 L 0,0 z"
             id="path882"
             style="fill:#666666;fill-opacity:1;fill-rule:nonzero;stroke:none" /></g><g
           transform="translate(1795.7021,870.6797)"
           id="g884"><path
             d="m 0,0 c 0,0 -1.537,-17.09 -5.535,-21.389 -7.813,-8.4 -30.473,-8.382 -39.611,-1.451 -4.827,3.662 -6.723,24.172 -6.723,24.172 l 0,1 c 0,0 1.031,16.789 5.357,20.668 7.141,6.4 30.272,6.523 38.334,1.334 C -2.566,20.721 0,1 0,1 L 0,0 z"
             id="path886"
             style="fill:none;stroke:#000000;stroke-width:5;stroke-linecap:butt;stroke-linejoin:miter;stroke-miterlimit:10;stroke-opacity:1;stroke-dasharray:none" /></g><g
           transform="translate(1838.3799,907.6582)"
           id="g888"><path
             d="m 0,0 c 0,0 -13.189,0.348 -16.564,-1.68 -4.094,-2.463 -6.487,-10.652 -7.493,-15.322 -1.099,-5.115 -1.521,-20.873 -1.521,-20.873 l 0,-0.104 c 0,0 2.701,-6.687 6.639,-6.666 12.326,0.063 37.82,0 37.82,0 0,0 5.635,19.582 2.562,25.332 C 18.646,-14.078 0.994,-0.145 0.994,-0.145 L 0,0 z"
             id="path890"
             style="fill:#666666;fill-opacity:1;fill-rule:nonzero;stroke:none" /></g><g
           transform="translate(1838.3799,907.6582)"
           id="g892"><path
             d="m 0,0 c 0,0 -13.189,0.348 -16.564,-1.68 -4.094,-2.463 -6.487,-10.652 -7.493,-15.322 -1.099,-5.115 -1.521,-20.873 -1.521,-20.873 l 0,-0.104 c 0,0 2.701,-6.687 6.639,-6.666 12.326,0.063 37.82,0 37.82,0 0,0 5.635,19.582 2.562,25.332 C 18.646,-14.078 0.994,-0.145 0.994,-0.145 L 0,0 z"
             id="path894"
             style="fill:none;stroke:#000000;stroke-width:5;stroke-linecap:butt;stroke-linejoin:miter;stroke-miterlimit:10;stroke-opacity:1;stroke-dasharray:none" /></g><g
           transform="translate(2331.9854,978.2656)"
           id="g896"><path
             d="m 0,0 c 5.393,-0.118 19.522,-5.531 18.646,-21.128 -1.258,-22.311 -30.862,-26.07 -37.634,-25.728 l -2.824,-20.946 c 61.726,-7.465 93.416,78.235 31.313,102.81"
             id="path898"
             style="fill:#808080;fill-opacity:1;fill-rule:nonzero;stroke:#000000;stroke-width:5;stroke-linecap:butt;stroke-linejoin:miter;stroke-miterlimit:10;stroke-opacity:1;stroke-dasharray:none" /></g><g
           transform="translate(2287.4014,982.1152)"
           id="g900"><path
             d="M 0,0 C -5.288,1.074 -20.264,-1.09 -22.847,-16.494 -26.54,-38.533 1.507,-48.73 8.187,-49.889 L 6.32,-70.942 c -61.848,6.33 -73.862,96.906 -7.867,107.184"
             id="path902"
             style="fill:#adadad;fill-opacity:1;fill-rule:nonzero;stroke:#000000;stroke-width:5;stroke-linecap:butt;stroke-linejoin:miter;stroke-miterlimit:10;stroke-opacity:1;stroke-dasharray:none" /></g><g
           transform="translate(2339.6992,1012.6963)"
           id="g904"><path
             d="m 0,0 c -17.619,-1.278 -23.632,-0.669 -29.9,0.375 -10.259,1.702 -16.394,2.669 -23.104,4.54 0,0 -2.738,-34.713 5.813,-43.23 8.295,-8.27 28.986,-11.437 37.365,-1.548 3.942,4.645 4.547,6.771 5.621,9.006 C -0.014,-22.14 0,0 0,0"
             id="path906"
             style="fill:#adadad;fill-opacity:1;fill-rule:nonzero;stroke:none" /></g><g
           transform="translate(2339.6992,1012.6963)"
           id="g908"><path
             d="m 0,0 c -17.619,-1.278 -23.632,-0.669 -29.9,0.375 -10.259,1.702 -16.394,2.669 -23.104,4.54 0,0 -2.738,-34.713 5.813,-43.23 8.295,-8.27 28.986,-11.437 37.365,-1.548 3.942,4.645 4.547,6.771 5.621,9.006 C -0.014,-22.14 0,0 0,0 z"
             id="path910"
             style="fill:none;stroke:#000000;stroke-width:5;stroke-linecap:butt;stroke-linejoin:miter;stroke-miterlimit:10;stroke-opacity:1;stroke-dasharray:none" /></g><g
           transform="translate(2297.0098,1008.6201)"
           id="g912"><path
             d="m 0,0 c 0.211,0.665 -3.518,0.43 -3.851,-0.218 -2.293,-4.429 -1.441,-15.985 2.243,-26.861 0,0 -2.271,14.784 1.608,27.079"
             id="path914"
             style="fill:#ffffff;fill-opacity:1;fill-rule:nonzero;stroke:none" /></g><g
           transform="translate(2277.2793,1008.939)"
           id="g916"><path
             d="m 0,0 c 0,0 -8.328,-4.355 -16.825,-14.81 -8.386,-10.315 -12.521,-22.431 -12.521,-22.431 0,0 -2.593,7.756 10.447,24.783 8.966,11.706 18.272,12.556 18.272,12.556 L 0,0 z"
             id="path918"
             style="fill:#ffffff;fill-opacity:1;fill-rule:nonzero;stroke:none" /></g><g
           id="g920"><g
             id="g922" /><g
             id="g928"><g
               clip-path="url(#clipPath924)"
               id="g930"
               style="opacity:0.30000299"><g
                 transform="translate(2324.9365,984.4473)"
                 id="g932"><path
                   d="m 0,0 c -2.569,-5.443 -6.292,-10.641 -10.907,-12.655 -5.513,-2.408 -11.572,-1.783 -13.866,-1.418 9.781,-4.309 23.657,-4.488 30.148,3.173 3.94,4.647 4.547,6.772 5.622,9.004 C 15.186,6.822 15.2,28.963 15.2,28.963 9.278,28.533 4.674,28.317 0.925,28.26 1.792,18.189 2.353,4.985 0,0"
                   id="path934"
                   style="fill:#000000;fill-opacity:1;fill-rule:nonzero;stroke:none" /></g></g></g></g><g
           transform="translate(1707.6221,1648.3369)"
           id="g936"><path
             d="M 0,0 C 4.486,-2.993 19.167,-6.655 27.389,6.629 39.143,25.635 17.036,45.681 11.29,49.281 l 9.689,18.783 C 75.842,38.809 52.701,-49.583 -12.275,-34.134"
             id="path938"
             style="fill:#808080;fill-opacity:1;fill-rule:nonzero;stroke:#000000;stroke-width:5;stroke-linecap:butt;stroke-linejoin:miter;stroke-miterlimit:10;stroke-opacity:1;stroke-dasharray:none" /></g><g
           transform="translate(1668.877,1670.7314)"
           id="g940"><path
             d="M 0,0 C -4.947,2.15 -15.979,12.505 -9.271,26.609 0.333,46.788 29.161,39.072 35.3,36.193 L 45.836,54.517 C -8.479,84.771 -70.229,17.427 -22.035,-28.815"
             id="path942"
             style="fill:#adadad;fill-opacity:1;fill-rule:nonzero;stroke:#000000;stroke-width:5;stroke-linecap:butt;stroke-linejoin:miter;stroke-miterlimit:10;stroke-opacity:1;stroke-dasharray:none" /></g><g
           transform="translate(1694.2129,1615.7002)"
           id="g944"><path
             d="m 0,0 c -13.707,11.144 -18.983,14.09 -24.72,16.827 -9.382,4.485 -14.964,7.207 -21.535,9.52 0,0 17.65,30.016 29.537,32.096 C -5.18,60.466 13.592,51.205 14.791,38.3 15.359,32.233 14.637,30.144 14.237,27.697 12.676,18.151 0,0 0,0"
             id="path946"
             style="fill:#adadad;fill-opacity:1;fill-rule:nonzero;stroke:none" /></g><g
           transform="translate(1694.2129,1615.7002)"
           id="g948"><path
             d="m 0,0 c -13.707,11.144 -18.983,14.09 -24.72,16.827 -9.382,4.485 -14.964,7.207 -21.535,9.52 0,0 17.65,30.016 29.537,32.096 C -5.18,60.466 13.592,51.205 14.791,38.3 15.359,32.233 14.637,30.144 14.237,27.697 12.676,18.151 0,0 0,0 z"
             id="path950"
             style="fill:none;stroke:#000000;stroke-width:5;stroke-linecap:butt;stroke-linejoin:miter;stroke-miterlimit:10;stroke-opacity:1;stroke-dasharray:none" /></g><g
           transform="translate(1661.5645,1643.5044)"
           id="g952"><path
             d="M 0,0 C -0.209,-0.666 -3.13,1.663 -3.031,2.385 -2.372,7.329 4.948,16.311 14.199,23.113 14.199,23.113 3.866,12.298 0,0"
             id="path954"
             style="fill:#ffffff;fill-opacity:1;fill-rule:nonzero;stroke:none" /></g><g
           transform="translate(1645.2119,1654.5488)"
           id="g956"><path
             d="m 0,0 c 0,0 -4.329,8.342 -5.302,21.779 -0.961,13.259 2.595,25.556 2.595,25.556 0,0 -6.571,-4.868 -5.643,-26.295 C -7.71,6.309 -0.57,0.279 -0.57,0.279 L 0,0 z"
             id="path958"
             style="fill:#ffffff;fill-opacity:1;fill-rule:nonzero;stroke:none" /></g><g
           id="g960"><g
             id="g962" /><g
             id="g968"><g
               clip-path="url(#clipPath964)"
               id="g970"
               style="opacity:0.30000299"><g
                 transform="translate(1698.3037,1647.3105)"
                 id="g972"><path
                   d="m 0,0 c 1.012,5.933 0.94,12.326 -1.687,16.622 -3.138,5.131 -8.462,8.092 -10.551,9.107 C -1.753,23.656 9.721,15.85 10.65,5.853 c 0.566,-6.067 -0.154,-8.156 -0.552,-10.601 -1.563,-9.545 -14.24,-27.698 -14.24,-27.698 -4.606,3.745 -8.256,6.561 -11.296,8.757 C -8.956,-15.934 -0.93,-5.434 0,0"
                   id="path974"
                   style="fill:#000000;fill-opacity:1;fill-rule:nonzero;stroke:none" /></g></g></g></g><g
           transform="translate(2205.7939,1740.5288)"
           id="g976"><path
             d="M 0,0 C 4.871,2.314 15.55,13.034 8.37,26.908 -1.907,46.752 -30.458,38.069 -36.497,34.987 L -47.644,52.943 C 5.626,85.009 69.604,19.776 22.992,-28.056"
             id="path978"
             style="fill:#808080;fill-opacity:1;fill-rule:nonzero;stroke:#000000;stroke-width:5;stroke-linecap:butt;stroke-linejoin:miter;stroke-miterlimit:10;stroke-opacity:1;stroke-dasharray:none" /></g><g
           transform="translate(2166.6855,1718.7744)"
           id="g980"><path
             d="m 0,0 c -4.384,-3.142 -18.934,-7.294 -27.594,5.703 -12.387,18.6 9.032,39.379 14.654,43.17 L -23.257,67.32 C -77.103,36.239 -51.006,-51.325 13.418,-33.702"
             id="path982"
             style="fill:#adadad;fill-opacity:1;fill-rule:nonzero;stroke:#000000;stroke-width:5;stroke-linecap:butt;stroke-linejoin:miter;stroke-miterlimit:10;stroke-opacity:1;stroke-dasharray:none" /></g><g
           transform="translate(2226.9189,1712.2681)"
           id="g984"><path
             d="m 0,0 c -16.6,-6.042 -21.837,-9.058 -27.13,-12.576 -8.664,-5.749 -13.867,-9.142 -19.224,-13.595 0,0 -16.7,30.555 -12.383,41.824 4.186,10.941 21.77,22.297 33.461,16.701 5.498,-2.626 6.92,-4.318 8.814,-5.918 C -9.069,20.196 0,0 0,0"
             id="path986"
             style="fill:#adadad;fill-opacity:1;fill-rule:nonzero;stroke:none" /></g><g
           transform="translate(2226.9189,1712.2681)"
           id="g988"><path
             d="m 0,0 c -16.6,-6.042 -21.837,-9.058 -27.13,-12.576 -8.664,-5.749 -13.867,-9.142 -19.224,-13.595 0,0 -16.7,30.555 -12.383,41.824 4.186,10.941 21.77,22.297 33.461,16.701 5.498,-2.626 6.92,-4.318 8.814,-5.918 C -9.069,20.196 0,0 0,0 z"
             id="path990"
             style="fill:none;stroke:#000000;stroke-width:5;stroke-linecap:butt;stroke-linejoin:miter;stroke-miterlimit:10;stroke-opacity:1;stroke-dasharray:none" /></g><g
           transform="translate(2186.2988,1698.5225)"
           id="g992"><path
             d="M 0,0 C 0.463,-0.521 -3.034,-1.833 -3.604,-1.377 -7.508,1.726 -11.458,12.619 -12.547,24.05 -12.547,24.05 -8.57,9.63 0,0"
             id="path994"
             style="fill:#ffffff;fill-opacity:1;fill-rule:nonzero;stroke:none" /></g><g
           transform="translate(2168.4258,1690.1582)"
           id="g996"><path
             d="m 0,0 c 0,0 -9.381,0.567 -21.412,6.629 -11.871,5.982 -20.601,15.346 -20.601,15.346 0,0 0.806,-8.138 19.67,-18.341 12.971,-7.012 21.811,-3.981 21.811,-3.981 L 0,0 z"
             id="path998"
             style="fill:#ffffff;fill-opacity:1;fill-rule:nonzero;stroke:none" /></g><g
           id="g1000"><g
             id="g1002" /><g
             id="g1008"><g
               clip-path="url(#clipPath1004)"
               id="g1010"
               style="opacity:0.30000299"><g
                 transform="translate(2201.8906,1732.0054)"
                 id="g1012"><path
                   d="m 0,0 c -4.572,3.914 -10.095,7.134 -15.13,7.085 -6.015,-0.06 -11.289,-3.109 -13.232,-4.38 7.161,7.934 19.75,13.774 28.807,9.44 C 5.941,9.516 7.365,7.826 9.259,6.229 16.648,-0.012 25.72,-20.209 25.72,-20.209 20.141,-22.24 15.852,-23.928 12.406,-25.409 9.078,-15.865 4.187,-3.587 0,0"
                   id="path1014"
                   style="fill:#000000;fill-opacity:1;fill-rule:nonzero;stroke:none" /></g></g></g></g><g
           transform="translate(2176.793,1666.7236)"
           id="g1016"><path
             d="m 0,0 c 0,0 -0.482,-1.893 -0.007,-5.234 0.416,-2.925 1.219,-5.332 1.673,-6.324 0.764,-1.672 2.148,-4.313 3.839,-6.246 2.854,-3.262 7.821,-4.636 7.821,-4.636 0,0 -7.773,-0.721 -13.966,8.833 -4.384,6.765 -3.315,14.361 -3.315,14.361 L 0,0 z"
             id="path1018"
             style="fill:#ffffff;fill-opacity:1;fill-rule:nonzero;stroke:none" /></g><g
           transform="translate(1625.3027,1634.2017)"
           id="g1020"><path
             d="M 0,0 C 0,0 -1.829,-0.687 -4.298,-2.987 -6.46,-5 -7.976,-7.036 -8.529,-7.975 c -0.936,-1.583 -2.31,-4.229 -2.93,-6.721 -1.044,-4.207 0.669,-9.068 0.669,-9.068 0,0 -5.036,5.966 -0.739,16.508 3.043,7.466 9.886,10.932 9.886,10.932 L 0,0 z"
             id="path1022"
             style="fill:#ffffff;fill-opacity:1;fill-rule:nonzero;stroke:none" /></g><g
           transform="translate(1846.8027,1482.7847)"
           id="g1024"><path
             d="m 0,0 c 1.232,4.508 -19.01,-7.113 -20.834,-11.417 -12.5,-29.5 -12.084,-109.583 2.25,-186.25 0,0 -4.111,114.704 18.584,197.667"
             id="path1026"
             style="fill:#ffffff;fill-opacity:1;fill-rule:nonzero;stroke:none" /></g><g
           transform="translate(1950.4082,1044.9063)"
           id="g1028"><path
             d="m 0,0 -0.666,108.139 3,0.013 L 3,0.014 0,0 z"
             id="path1030"
             style="fill:#000000;fill-opacity:1;fill-rule:nonzero;stroke:none" /></g><g
           transform="translate(1944.4082,1044.334)"
           id="g1032"><path
             d="m 0,0 -0.666,108.998 3,0.013 L 3,0.014 0,0 z"
             id="path1034"
             style="fill:#000000;fill-opacity:1;fill-rule:nonzero;stroke:none" /></g><g
           transform="translate(1756.5176,889.0049)"
           id="g1036"><path
             d="m 0,0 c 0,0 -2.125,-2.875 -3.375,-8.875 -0.699,-3.354 -1,-4.25 -1.875,-11.25 0,0 -0.354,7.264 -0.125,9.375 0.5,4.625 2.25,10.125 2.25,10.125 L 0,0 z"
             id="path1038"
             style="fill:#ffffff;fill-opacity:1;fill-rule:nonzero;stroke:none" /></g><g
           transform="translate(1703.3008,900.7979)"
           id="g1040"><path
             d="m 0,0 c 0,0 -3.514,-0.662 -8.511,-4.211 -2.794,-1.982 -3.624,-2.434 -9.026,-6.971 0,0 4.681,5.565 6.285,6.959 3.512,3.049 8.536,5.891 8.536,5.891 L 0,0 z"
             id="path1042"
             style="fill:#ffffff;fill-opacity:1;fill-rule:nonzero;stroke:none" /></g><g
           transform="translate(1827.4697,901.0869)"
           id="g1044"><path
             d="m 0,0 c 0,0 -2.569,-2.486 -4.79,-8.199 -1.241,-3.194 -1.686,-4.028 -3.701,-10.787 0,0 0.846,7.22 1.42,9.267 1.255,4.479 3.886,9.617 3.886,9.617 L 0,0 z"
             id="path1046"
             style="fill:#ffffff;fill-opacity:1;fill-rule:nonzero;stroke:none" /></g><g
           transform="translate(2117.375,889.75)"
           id="g1048"><path
             d="m 0,0 c 0,0 -2.125,-2.875 -3.375,-8.875 -0.699,-3.354 -1,-4.25 -1.875,-11.25 0,0 -0.354,7.264 -0.125,9.375 0.5,4.625 2.25,10.125 2.25,10.125 L 0,0 z"
             id="path1050"
             style="fill:#ffffff;fill-opacity:1;fill-rule:nonzero;stroke:none" /></g><g
           transform="translate(2064.1582,901.543)"
           id="g1052"><path
             d="m 0,0 c 0,0 -3.514,-0.662 -8.511,-4.211 -2.794,-1.982 -3.624,-2.434 -9.026,-6.971 0,0 4.681,5.565 6.285,6.959 3.512,3.049 8.536,5.891 8.536,5.891 L 0,0 z"
             id="path1054"
             style="fill:#ffffff;fill-opacity:1;fill-rule:nonzero;stroke:none" /></g><g
           transform="translate(2188.3271,901.832)"
           id="g1056"><path
             d="m 0,0 c 0,0 -2.569,-2.486 -4.79,-8.199 -1.241,-3.194 -1.686,-4.028 -3.701,-10.787 0,0 0.846,7.22 1.42,9.267 1.255,4.479 3.886,9.617 3.886,9.617 L 0,0 z"
             id="path1058"
             style="fill:#ffffff;fill-opacity:1;fill-rule:nonzero;stroke:none" /></g><g
           transform="translate(1519.002,1069.168)"
           id="g1060"><path
             d="m 0,0 c 0,0 -1.588,-1.139 -3.375,-4 -1.564,-2.506 -2.5,-4.865 -2.791,-5.916 -0.492,-1.772 -1.133,-4.684 -1.084,-7.252 0.084,-4.334 3,-8.582 3,-8.582 0,0 -6.412,4.453 -5,15.75 1,8 6.709,13.123 6.709,13.123 L 0,0 z"
             id="path1062"
             style="fill:#ffffff;fill-opacity:1;fill-rule:nonzero;stroke:none" /></g><g
           transform="translate(2279.25,1058.168)"
           id="g1064"><path
             d="m 0,0 c 0,0 -1.588,-1.139 -3.375,-4 -1.564,-2.506 -2.5,-4.865 -2.791,-5.916 -0.492,-1.772 -1.133,-4.684 -1.084,-7.252 0.084,-4.334 3,-8.582 3,-8.582 0,0 -6.412,4.453 -5,15.75 1,8 6.709,13.123 6.709,13.123 L 0,0 z"
             id="path1066"
             style="fill:#ffffff;fill-opacity:1;fill-rule:nonzero;stroke:none" /></g></g></g></g></svg>