<svg xmlns="http://www.w3.org/2000/svg" width="271" height="303.718"><defs><clipPath id="a"><path d="m0 2000h3000v-2000h-3000v2000z"/></clipPath><clipPath id="b"><path d="m2145.45 1249.2h222.44v-203.35h-222.44v203.35z"/></clipPath><clipPath id="c"><path d="m2023.66 1111.38h62.87v-64.58h-62.87v64.58z"/></clipPath><clipPath id="d"><path d="m2151.45 1679.41h138.01v-346.89h-138.01v346.89z"/></clipPath><clipPath id="e"><path d="m2144.03 1438.28h34.76v-111.11h-34.76v111.11z"/></clipPath><clipPath id="f"><path d="m1627.13 1597.35h123.57v-201.7h-123.57v201.7z"/></clipPath><clipPath id="g"><path d="m1725.59 1442.84h39.31v-110.54h-39.31v110.54z"/></clipPath><clipPath id="h"><path d="m2203.4 1635.63h77.76v-36.26h-77.76v36.26z"/></clipPath><clipPath id="i"><path d="m2204.21 1567.04h84.01v-21.25h-84.01v21.25z"/></clipPath><clipPath id="j"><path d="m2195.67 1509.01h81.01v-28.62h-81.01v28.62z"/></clipPath><clipPath id="k"><path d="m2178.65 1463.43h70.14v-52.2h-70.14v52.2z"/></clipPath><clipPath id="l"><path d="m2170.36 1417.17h31.84v-57.6h-31.84v57.6z"/></clipPath><clipPath id="m"><path d="m1587.83 1555.43h74.28v-29.53h-74.28v29.53z"/></clipPath><clipPath id="n"><path d="m1627.65 1451.14h66.91v-51.65h-66.91v51.65z"/></clipPath><clipPath id="o"><path d="m1587.74 1493.79h74v-34.17h-74v34.17z"/></clipPath><clipPath id="p"><path d="m1689.06 1434.25h34.04v-68.22h-34.04v68.22z"/></clipPath><clipPath id="q"><path d="m1782.24 1123.94h38.99v-83.05h-38.99v83.05z"/></clipPath><clipPath id="r"><path d="m1725.15 1026.7h136.76v-186.062h-136.76v186.062z"/></clipPath><clipPath id="s"><path d="m1821.35 1082.87h54.26v-34.9h-54.26v34.9z"/></clipPath><clipPath id="t"><path d="m1566.08 1069.49h42.37v-45.87h-42.37v45.87z"/></clipPath><clipPath id="u"><path d="m1563.06 1192.81h211.75v-135.26h-211.75v135.26z"/></clipPath><clipPath id="v"><path d="m1550.19 1149.22h68.72v-52.58h-68.72v52.58z"/></clipPath><clipPath id="w"><path d="m1612.98 1196.6h39.02v-72.79h-39.02v72.79z"/></clipPath><clipPath id="x"><path d="m1680.88 1223.44h30.34v-75.4h-30.34v75.4z"/></clipPath><clipPath id="y"><path d="m1753.96 1261.43h47.69v-105.96h-47.69v105.96z"/></clipPath><clipPath id="z"><path d="m1933.38 1540.63h168.33v-385.86h-168.33v385.86z"/></clipPath><clipPath id="A"><path d="m1865.5 1491.53h282.96v-445.91h-282.96v445.91z"/></clipPath><clipPath id="B"><path d="m1659.43 1620.91h45.46v-53.09h-45.46v53.09z"/></clipPath><clipPath id="C"><path d="m2218.67 1712.37h45.67v-40.5h-45.67v40.5z"/></clipPath><clipPath id="D"><path d="m2329.92 1058.49h42.36v-45.87h-42.36v45.87z"/></clipPath><clipPath id="E"><path d="m2142.24 1122.28h38.99v-83.06h-38.99v83.06z"/></clipPath><clipPath id="F"><path d="m2087.78 1022.44h131.63v-180.968h-131.63v180.968z"/></clipPath><clipPath id="G"><path d="m1540.02 1024.42h39.07v-46.558h-39.07v46.558z"/></clipPath><clipPath id="H"><path d="m2286.86 1129.64h78.7v-31.06h-78.7v31.06z"/></clipPath><clipPath id="I"><path d="m2123.67 1261.39h36.66v-105.37h-36.66v105.37z"/></clipPath><clipPath id="J"><path d="m2268.62 1209.5h53.16v-71.7h-53.16v71.7z"/></clipPath><clipPath id="K"><path d="m2222.76 1242.5h32.23v-80.06h-32.23v80.06z"/></clipPath><clipPath id="L"><path d="m2163.06 1244.23h21.47v-76.82h-21.47v76.82z"/></clipPath><clipPath id="M"><path d="m2300.16 1013.41h39.98v-46.009h-39.98v46.009z"/></clipPath><clipPath id="N"><path d="m1682.87 1673.04h26.29v-58.18h-26.29v58.18z"/></clipPath><clipPath id="O"><path d="m2173.53 1745.63h54.08v-39.03h-54.08v39.03z"/></clipPath></defs><g transform="matrix(1.25 0 0 -1.25 -3.182 2494.204)"><path d="m230.403 299.258a99.642 32.442 0 1 1-199.285 0 99.642 32.442 0 1 1 199.285 0z" transform="matrix(.735 0 0 -.735 16.338 1998.487)" fill-opacity=".157"/><g clip-path="url(#a)" transform="matrix(.231 0 0 .231 -338.946 1576.922)"><path d="M2280.111 1124.802c13.425-20.999 5.637-40.409-.233-54.73 4.296-11.614 46.455-33.239 79.857-11.52 5.893 21.097 11.783 69.412-7.902 109.781-8.862 18.169-25.849 42.484-54.509 56.146-71.282 33.979-136.595 18.968-140.105 18.638l-21-74.999c25.334 2 57-.667 74.913-2.343 27.464-2.572 51.083-12.981 68.979-40.973" fill="#f2f2f2"/><path d="M0 0c13.425-20.999 5.637-40.409-.233-54.73 4.296-11.614 46.455-33.239 79.857-11.52 5.893 21.097 11.783 69.412-7.902 109.781-8.862 18.169-25.849 42.484-54.509 56.146-71.282 33.979-136.595 18.968-140.105 18.638l-21-74.999c25.334 2 57-.667 74.913-2.343 27.464-2.572 51.083-12.981 68.979-40.973z" stroke="#000" stroke-width="5" stroke-miterlimit="10" fill="none" transform="translate(2280.111 1124.802)"/><g clip-path="url(#b)" opacity=".15"><path d="m2359.735 1058.553c5.893 21.096 11.783 69.411-7.902 109.78-8.862 18.169-25.849 42.484-54.509 56.146-71.282 33.98-136.595 18.968-140.105 18.639l-8.219-27.118c51 8 93.631 1.137 103.317-2.03 41.183-13.47 59.683-32.47 76.849-63.303 11.502-20.66 7.766-78.85 1.751-101.618 15.583 2.951 22.703 5.527 28.818 9.504"/><path d="m0 0c5.893 21.096 11.783 69.411-7.902 109.78-8.862 18.169-25.849 42.484-54.509 56.146-71.282 33.98-136.595 18.968-140.105 18.639l-8.219-27.118c51 8 93.631 1.137 103.317-2.03 41.183-13.47 59.683-32.47 76.849-63.303 11.502-20.66 7.766-78.85 1.751-101.618 15.583 2.951 22.703 5.527 28.818 9.504z" stroke="#000" stroke-width="5" stroke-miterlimit="10" fill="none" transform="translate(2359.735 1058.553)"/></g><path d="m2146.333 1041.557h-39.333v-18.717h39.333v18.717z" fill="#808080" stroke="#000" stroke-width="5" stroke-miterlimit="10"/><path d="m0 0l51.75-20.5 11.549 64.58h-29.531" fill="#adadad" stroke="#000" stroke-width="5" stroke-miterlimit="10" transform="translate(2023.234 1067.303)"/><path d="m2074.984 1046.802l11.549 64.581h-7.704l-.329-.05s-6.682-29.614-21.694-39.329c-13.336-8.63-29.822-5.603-33.144-4.871l51.322-20.331z" clip-path="url(#c)" opacity=".3"/><path d="m1786.333 1043.223h-39.333v-18.717h39.333v18.717z" fill="#808080" stroke="#000" stroke-width="5" stroke-miterlimit="10"/><path d="m2261.854 1675.908c-40.245 7.615-71.649-30.417-69.009-41.675l-.162.002c9.984-8.235 14.984-30.235 14.317-72.902-.671-42.961-20-102.667-55-135.667l2.833-90c28.706 6.887 43.178 18.773 72.375 51.829 16.284 18.44 29.408 34.59 47.646 91.652 9.115 28.522 11.65 73.214 12.061 96.591 1.056 59.816-16.434 86.888-25.061 100.17" fill="#f2f2f2"/><path d="m0 0c-40.245 7.615-71.649-30.417-69.009-41.675l-.162.002c9.984-8.235 14.984-30.235 14.317-72.902-.671-42.961-20-102.667-55-135.667l2.833-90c28.706 6.887 43.178 18.773 72.375 51.829 16.284 18.44 29.408 34.59 47.646 91.652 9.115 28.522 11.65 73.214 12.061 96.591 1.056 59.816-16.434 86.888-25.061 100.17z" stroke="#000" stroke-width="5" stroke-miterlimit="10" fill="none" transform="translate(2261.854 1675.908)"/><g clip-path="url(#d)" opacity=".15"><path d="M2225.82 1671.142c24.959-28.601 29.362-55.328 31.255-93.459 3.209-64.656-39.281-182.568-103.075-214.516l.833-27.5c28.705 6.886 43.177 18.772 72.375 51.829 16.283 18.44 29.407 34.589 47.645 91.651 9.115 28.522 11.651 73.214 12.061 96.591 1.056 59.817-16.434 86.889-25.061 100.171-13.275 2.511-25.587.055-36.033-4.767"/><path d="M0 0c24.959-28.601 29.362-55.328 31.255-93.459 3.209-64.656-39.281-182.568-103.075-214.516l.833-27.5c28.705 6.886 43.177 18.772 72.375 51.829 16.283 18.44 29.407 34.589 47.645 91.651 9.115 28.522 11.651 73.214 12.061 96.591 1.056 59.817-16.434 86.889-25.061 100.171-13.275 2.511-25.587.055-36.033-4.767z" stroke="#000" stroke-width="5" stroke-miterlimit="10" fill="none" transform="translate(2225.82 1671.142)"/></g><path d="m0 0c5.795 1.851 20.045 8.494 30.08-11.05l.993-1.849s10.913-24.341 12.577-43.472c2.128-24.511.555-43.421-12.484-52.419-10.32-7.118-12.945-5.392-17.79-5.629" fill="#adadad" stroke="#000" stroke-width="5" stroke-miterlimit="10" transform="translate(2134.35 1441.614)"/><path d="m2178 1385.244c-1.664 19.13-12.577 43.472-12.577 43.472l-.993 1.849c-1.672 3.255-3.461 5.77-5.307 7.715 2.971-15.286 8.828-51.891-.176-65.135-4.66-6.854-14.916-10.175-14.916-10.175.929-10.864 1.409-12.018 1.759-16.339.28-3.44.54-6.628.768-9.442l1.168-9.993c4.844.236 7.469-1.489 17.79 5.629 13.039 8.997 14.612 27.908 12.484 52.419" clip-path="url(#e)" opacity=".3"/><path d="m1715.955 1435.673c-24.368 12.927-51.41 28.785-55.65 61.738-3.774 29.303-.375 40.469 20.834 70.499-15.133 36.173-60.864 42.652-71.338 35.646-12.742-18.296-25.914-53.082-27.246-94.395-.653-20.205 4.511-51.073 21.332-78 37.033-59.277 98.344-65.05 118.736-71.197l25 66.592c-12.168 1.784-21.631 3.793-31.668 9.117" fill="#f2f2f2"/><path d="m0 0c-24.368 12.927-51.41 28.785-55.65 61.738-3.774 29.303-.375 40.469 20.834 70.499-15.133 36.173-60.864 42.652-71.338 35.646-12.742-18.296-25.914-53.082-27.246-94.395-.653-20.205 4.511-51.073 21.332-78 37.033-59.277 98.344-65.05 118.736-71.197l25 66.592c-12.168 1.784-21.631 3.793-31.668 9.117z" stroke="#000" stroke-width="5" stroke-miterlimit="10" fill="none" transform="translate(1715.955 1435.673)"/><g clip-path="url(#f)" opacity=".15"><path d="m1746.777 1424.06l.719 2.462c-12.166 1.784-21.629 3.792-31.666 9.117-24.367 12.926-51.41 28.785-55.651 61.738-3.773 29.303-.375 40.468 20.834 70.499-.523 1.251-1.019 2.557-1.505 3.889-4.844 9.57-11.913 16.844-19.754 22.178-10.284-13.638-21.479-29.286-28.09-56.764-5.334-22.166-.774-68.621 21.097-91.636 33.004-34.729 65.414-41.536 84.487-46.866l9.529 25.383z"/><path d="m0 0l.719 2.462c-12.166 1.784-21.629 3.792-31.666 9.117-24.367 12.926-51.41 28.785-55.651 61.738-3.773 29.303-.375 40.468 20.834 70.499-.523 1.251-1.019 2.557-1.505 3.889-4.844 9.57-11.913 16.844-19.754 22.178-10.284-13.638-21.479-29.286-28.09-56.764-5.334-22.166-.774-68.621 21.097-91.636 33.004-34.729 65.414-41.536 84.487-46.866l9.529 25.383z" stroke="#000" stroke-width="5" stroke-miterlimit="10" fill="none" transform="translate(1746.777 1424.06)"/></g><path d="m0 0s-4.94-3.841-15.473-.012c-9.093 3.305-10.411 18.651-10.411 18.651s-.078 1.226-.159 3.348c-.255 6.784-.524 22.733 1.732 37.181 2.245 14.372 5.208 28.543 9.466 36.803 1.999 3.877 8.764 10.408 12.778 11.929 11.721 4.444 13.858 2.139 18.618 1.21" fill="#adadad" stroke="#000" stroke-width="5" stroke-miterlimit="10" transform="translate(1748.347 1332.299)"/><path d="m1725.594 1400.457c1.87 9.198 5.036 22.241 7.908 27.813 1.999 3.876 8.764 10.408 12.778 11.928 11.721 4.444 13.858 2.139 18.618 1.21l-16.551-109.11c-.174-.197.156 38.176-1.834 47.296-3.525 16.156-14.371 19.075-20.919 20.863" clip-path="url(#g)" opacity=".3"/><path d="M0 0c5.931-1.357 21.579-2.894 20.268-24.823l-.088-2.097s-2.995-26.507-11.304-43.819c-10.644-22.183-21.627-37.659-37.43-38.764-12.506-.875-13.885 1.946-18.176 4.209" fill="#adadad" stroke="#000" stroke-width="5" stroke-miterlimit="10" transform="translate(2139.989 1261.39)"/><path d="m1824.333 1018.477c6.666-25 13.708-109.629 13.708-109.629s17.651-13.934 20.448-19.168c3.073-5.75-2.562-25.332-2.562-25.332s-25.493.062-37.82 0c-3.937-.022-6.638 6.666-6.638 6.666l-15.933 1s-1.538-18.09-5.536-22.389c-7.813-8.4-30.473-8.383-39.611-1.451-4.827 3.662-6.723 24.172-6.723 24.172l-16.725.494s-2.669-6.285-4.668-6.666c-9.607-1.83-37.07-1.826-37.07-1.826s-9.687 19.767-8.037 26.5c1.992 8.129 22.441 19.326 22.441 19.326s.39 77.539 14.391 107.873c4.166 9.029 108.304 8.047 110.335.43" fill="#f2f2f2"/><path d="m0 0c6.666-25 13.708-109.629 13.708-109.629s17.651-13.934 20.448-19.168c3.073-5.75-2.562-25.332-2.562-25.332s-25.493.062-37.82 0c-3.937-.022-6.638 6.666-6.638 6.666l-15.933 1s-1.538-18.09-5.536-22.389c-7.813-8.4-30.473-8.383-39.611-1.451-4.827 3.662-6.723 24.172-6.723 24.172l-16.725.494s-2.669-6.285-4.668-6.666c-9.607-1.83-37.07-1.826-37.07-1.826s-9.687 19.767-8.037 26.5c1.992 8.129 22.441 19.326 22.441 19.326s.39 77.539 14.391 107.873c4.166 9.029 108.304 8.047 110.335.43z" stroke="#000" stroke-width="5" stroke-miterlimit="10" fill="none" transform="translate(1824.333 1018.477)"/><path d="m0 0l-54-18-10.266 64.643 27.6.024" fill="#adadad" stroke="#000" stroke-width="5" stroke-miterlimit="10" transform="translate(1875.734 1065.969)"/><path d="M1715.36 1040.889c7.973 0 34.592 1.745 58.64 1.457 15.049-.181 34.333-1.457 45.333-1.457 4.173 0 1.169 25.811-6.066 68.31-1.794 10.541-32.242 15.969-42.934 15.814-11.562-.168-41.286-2.386-48.079-17.58-2.842-6.356-10.024-66.544-6.894-66.544" fill="#f2f2f2"/><path d="M0 0c7.973 0 34.592 1.745 58.64 1.457 15.049-.181 34.333-1.457 45.333-1.457 4.173 0 1.169 25.811-6.066 68.31-1.794 10.541-32.242 15.969-42.934 15.814-11.562-.168-41.286-2.386-48.079-17.58-2.842-6.356-10.024-66.544-6.894-66.544z" stroke="#000" stroke-width="5" stroke-miterlimit="10" fill="none" transform="translate(1715.36 1040.889)"/><path d="m2208.092 1599.371l-4.688 2.431c22.247 48.25 75.498 30.959 77.754 30.2l-1.58-5.275c-2.08.702-51.194 16.655-71.486-27.356" clip-path="url(#h)" opacity=".4"/><path d="m2208.014 1545.787l-3.799 3.661c37.86 36.635 83.55 4.726 84.008 4.4l-3.193-4.167c-.419.3-42.387 29.614-77.016-3.894" clip-path="url(#i)" opacity=".4"/><path d="m2272.477 1480.394c-1.275 1.452-31.723 35.393-74.774 19.258l-2.033 4.634c46.723 17.509 79.629-19.172 81.007-20.742l-4.2-3.15z" clip-path="url(#j)" opacity=".4"/><path d="m2243.486 1411.226c-2.714 7.845-22.783 40.914-64.833 47.278l.921 4.931c45.266-6.852 66.11-41.751 69.215-50.722l-5.303-1.487z" clip-path="url(#k)" opacity=".4"/><path d="m2170.364 1417.172c22.822-15.114 29.779-42.038 31.839-54.805l-4.937-2.796c-2.229 13.821-8.475 36.373-25.941 50.518" clip-path="url(#l)" opacity=".4"/><path d="m1657.864 1525.895c-6.26 10.022-32.194 35.117-68.032 19.502l-1.997 4.584c17.051 7.429 34.331 7.265 49.973-.474 12.799-6.333 21.295-16.157 24.297-20.964l-4.241-2.648z" clip-path="url(#m)" opacity=".3"/><path d="m1632.926 1399.486l-5.273.114c.664 20.429 13.996 33 25.06 39.948 14.702 9.231 32.829 12.931 41.852 11.17l-1.223-4.193c-6.423 1.248-22.75-1.189-37.413-10.396-10.157-6.377-22.394-17.912-23.003-36.643" clip-path="url(#n)" opacity=".4"/><path d="M1591.96 1459.621l-4.222 2.165c18.095 38.808 62.976 33.026 74.003 29.355l-1.421-4.697c-9.595 3.194-51.911 8.461-68.36-26.823" clip-path="url(#o)" opacity=".4"/><path d="M1691.83 1366.034c-11.895 37.588 17.677 63.51 29.207 68.213l2.063-4.104c-9.055-3.692-37.563-27.794-26.461-62.874l-4.809-1.235z" clip-path="url(#p)" opacity=".4"/><path d="m1518.484 1069.718s-1.588-1.138-3.375-4c-1.564-2.506-2.499-4.865-2.791-5.916-.492-1.772-1.133-4.684-1.084-7.251.084-4.334 3.001-8.583 3.001-8.583s-6.413 4.453-5.001 15.75c1 8 6.709 13.124 6.709 13.124l2.541-3.124z" fill="#fff"/><path d="m2283.733 1053.718s-1.588-1.138-3.375-4c-1.564-2.506-2.5-4.865-2.791-5.916-.492-1.772-1.133-4.684-1.084-7.251.084-4.334 3-8.583 3-8.583s-6.412 4.453-5 15.75c1 8 6.709 13.124 6.709 13.124l2.541-3.124z" fill="#fff"/><path d="m1628.326 1625.854s-1.293-1.146-2.502-3.591c-1.057-2.14-1.556-4.048-1.66-4.873-.179-1.39-.317-3.643.131-5.508.756-3.147 4.121-5.67 4.121-5.67s-6.637 1.977-7.096 10.504c-.326 6.039 4.162 10.914 4.162 10.914l2.844-1.776z" fill="#fff"/><path d="m2120.109 868.844s-2.125-2.875-3.375-8.875c-.699-3.354-1-4.25-1.875-11.25 0 0-.354 7.264-.125 9.375.5 4.625 2.25 10.125 2.25 10.125l3.125.625z" fill="#fff"/><path d="m2066.309 882.93s-3.512-.664-8.51-4.211c-2.793-1.984-3.623-2.435-9.027-6.971 0 0 4.682 5.563 6.285 6.957 3.514 3.049 8.537 5.891 8.537 5.891l2.715-1.666z" fill="#fff"/><path d="m2191.144 880.551s-2.568-2.486-4.789-8.199c-1.242-3.194-1.686-4.028-3.701-10.787 0 0 .845 7.22 1.42 9.267 1.254 4.479 3.884 9.617 3.884 9.617l3.186.102z" fill="#fff"/><path d="m1782.238 1123.943c.666-3.074 5.056-23.906 5.746-41.975.578-15.139.123-30.509-.305-39.992 11.738-.439 23.804-1.087 31.654-1.087 4.174 0 1.169 25.81-6.066 68.309-1.314 7.721-17.993 12.695-31.029 14.745" clip-path="url(#q)" opacity=".15"/><g clip-path="url(#r)" opacity=".15"><path d="m1838.041 908.848s-7.042 84.629-13.708 109.629c-.772 2.898-16.329 4.834-35.532 5.625-.766-15.605-2.897-49.159-7.857-73.216-7.849-38.072-53.167-60.666-53.167-60.666l1.36-17.445 14.529-.429s1.896-20.51 6.723-24.172c9.138-6.931 31.798-6.949 39.611 1.451 3.998 4.299 5.536 22.389 5.536 22.389l15.933-1s2.701-6.687 6.638-6.666c12.327.062 37.82 0 37.82 0s5.635 19.582 2.562 25.332c-2.797 5.234-20.448 19.168-20.448 19.168"/><path d="m0 0s-7.042 84.629-13.708 109.629c-.772 2.898-16.329 4.834-35.532 5.625-.766-15.605-2.897-49.159-7.857-73.216-7.849-38.072-53.167-60.666-53.167-60.666l1.36-17.445 14.529-.429s1.896-20.51 6.723-24.172c9.138-6.931 31.798-6.949 39.611 1.451 3.998 4.299 5.536 22.389 5.536 22.389l15.933-1s2.701-6.687 6.638-6.666c12.327.062 37.82 0 37.82 0s5.635 19.582 2.562 25.332c-2.797 5.234-20.448 19.168-20.448 19.168z" stroke="#000" stroke-width="5" stroke-miterlimit="10" fill="none" transform="translate(1838.041 908.848)"/></g><path d="M1821.609 1047.969l54 18-13.277 16.898c-1.957-2.395-5.027-5.792-9.848-10.523-8.451-8.295-20.977-16.631-31.131-22.766l.256-1.609z" clip-path="url(#s)" opacity=".3"/><path d="m1598.902 1069.553c-34.334-22.333-77.834.917-79.668 12.334 0 0-13.777-5.501-16.666-22.417-1.908-11.177 8.373-21.677 14-25.5 7.201-4.893 24.807-9.055 33.5-9.5 12.432-.637 63.25-7.25 58 29.75-1.34 9.446-9.166 15.333-9.166 15.333" fill="#999"/><path d="m0 0c-34.334-22.333-77.834.917-79.668 12.334 0 0-13.777-5.501-16.666-22.417-1.908-11.177 8.373-21.677 14-25.5 7.201-4.893 24.807-9.055 33.5-9.5 12.432-.637 63.25-7.25 58 29.75-1.34 9.446-9.166 15.333-9.166 15.333z" stroke="#000" stroke-width="5" stroke-miterlimit="10" fill="none" transform="translate(1598.902 1069.553)"/><path d="M1571.887 1023.617c18.332.606 39.676 5.91 36.182 30.537-1.34 9.446-9.166 15.333-9.166 15.333-9.153-6.3-23.153-9.987-32.819-9.439 3.729-5.173 9.598-13.305 9-23.28-.31-5.169-1.742-9.722-3.197-13.151" clip-path="url(#t)" opacity=".3"/><path d="m1740.909 1233.423c-53.001-8.825-200.512-39.434-222.009-151.698 1.834-11.417 45.334-34.667 79.668-12.334 22 40.667 51.508 69.188 142.832 88.417 6.813 1.434 19.508 2.868 29.786 3.887l-30.277 71.728z" fill="#f2f2f2"/><path d="m0 0c-53.001-8.825-200.512-39.434-222.009-151.698 1.834-11.417 45.334-34.667 79.668-12.334 22 40.667 51.508 69.188 142.832 88.417 6.813 1.434 19.508 2.868 29.786 3.887l-30.277 71.728z" stroke="#000" stroke-width="5" stroke-miterlimit="10" fill="none" transform="translate(1740.909 1233.423)"/><g clip-path="url(#u)" opacity=".15"><path d="M1741.4 1157.803c6.813 1.435 19.508 2.868 29.786 3.888l-12.042 28.529c-27.32-1.546-174.453-33.315-193.06-130.171 10.72-.033 22.027 2.536 32.484 9.337 22 40.667 51.508 69.188 142.832 88.417"/><path d="M0 0c6.813 1.435 19.508 2.868 29.786 3.888l-12.042 28.529c-27.32-1.546-174.453-33.315-193.06-130.171 10.72-.033 22.027 2.536 32.484 9.337 22 40.667 51.508 69.188 142.832 88.417z" stroke="#000" stroke-width="5" stroke-miterlimit="10" fill="none" transform="translate(1741.4 1157.803)"/></g><path d="m1614.061 1096.635c-17.953 0-34.703 7.147-47.598 20.419-11.443 11.778-16.896 25.362-16.215 32.163l4.975-.496c-.473-4.727 3.912-16.95 14.826-28.183 9.199-9.468 25.084-20.4 48.509-18.742l.355-4.988c-1.625-.115-3.245-.173-4.852-.173" clip-path="url(#v)" opacity=".4"/><path d="M1649.975 1123.808c-40.681 17.981-38.477 61.991-35.658 72.792l4.838-1.262c-2.591-9.931-4.61-50.402 32.841-66.958l-2.021-4.572z" clip-path="url(#w)" opacity=".4"/><path d="m1708.422 1148.036c-35.104 23.676-28.555 63.365-23.492 75.402l4.609-1.937c-1.822-4.334-4.799-16.123-3.023-29.729 2.177-16.683 10.488-30.004 24.703-39.59l-2.797-4.146z" clip-path="url(#x)" opacity=".4"/><path d="m0 0s-5.693 2.598-15.059-3.558c-8.086-5.313-5.828-20.548-5.828-20.548s.206-1.211.617-3.295c1.317-6.661 4.734-22.241 10.262-35.78 5.498-13.465 11.651-26.572 17.699-33.627 2.839-3.311 10.928-8.106 15.184-8.66 12.431-1.62 13.979 1.115 18.396 3.117" fill="#adadad" stroke="#000" stroke-width="5" stroke-miterlimit="10" transform="translate(1760.377 1261.425)"/><path d="m1753.958 1189.856c3.941-8.519 10.03-20.48 14.11-25.239 2.839-3.312 10.928-8.107 15.184-8.66 12.431-1.621 13.978 1.115 18.395 3.117l-41.27 102.35c-.215.153 8.957-37.11 9.124-46.443.296-16.533-9.584-21.875-15.543-25.125" clip-path="url(#y)" opacity=".3"/><path d="m1948.708 1044.287h0z" fill="#f2f2f2"/><path d="m0 0h0z" stroke="#000" stroke-width="5" stroke-miterlimit="10" fill="none" transform="translate(1948.708 1044.287)"/><path d="m2146.983 1391.575c-2.521 20.495-9.751 50.922-20.946 69.621-4.073 6.803-45.537 63.546-169.037 64.046-136.235.552-181.606-57.243-185.678-64.046-11.195-18.699-18.425-49.126-20.946-69.621-2.646-21.505-1.22-62.588.278-83.379.818-11.342 17.346-89.954 51.115-144.746 15.483-25.12 77.877-105.938 83.215-108.117 13.621-5.561 42.267-9.315 63.695-9.546 21.429.231 50.075 3.985 63.696 9.546 5.337 2.179 68.098 82.775 83.214 108.117 44.911 75.292 50.297 133.404 51.116 144.746 1.498 20.791 2.924 61.874.278 83.379" fill="#f2f2f2"/><path d="m0 0c-2.521 20.495-9.751 50.922-20.946 69.621-4.073 6.803-45.537 63.546-169.037 64.046-136.235.552-181.606-57.243-185.678-64.046-11.195-18.699-18.425-49.126-20.946-69.621-2.646-21.505-1.22-62.588.278-83.379.818-11.342 17.346-89.954 51.115-144.746 15.483-25.12 77.877-105.938 83.215-108.117 13.621-5.561 42.267-9.315 63.695-9.546 21.429.231 50.075 3.985 63.696 9.546 5.337 2.179 68.098 82.775 83.214 108.117 44.911 75.292 50.297 133.404 51.116 144.746 1.498 20.791 2.924 61.874.278 83.379z" stroke="#000" stroke-width="5" stroke-miterlimit="10" fill="none" transform="translate(2146.983 1391.575)"/><path d="M1948.65 1490.413h0z" fill="#f2f2f2"/><path d="M0 0h0z" stroke="#000" stroke-width="5" stroke-miterlimit="10" fill="none" transform="translate(1948.65 1490.413)"/><path d="m1948.708 1045.572h0z" fill="#ccc"/><path d="m1840.568 1483.636c1.233 4.508-19.01-7.113-20.834-11.417-12.5-29.5-12.083-109.583 2.25-186.25 0 0-4.111 114.704 18.584 197.667" fill="#fff"/><path d="m1950.22 1155.036c-23 0-53.034.373-69 6.334-15.641 5.84-40.673 27.654-50 41.5-13.042 19.363-23.447 64.855-26.5 88-3.392 25.716-6.142 77.063-6.386 103-.197 21.053 1.496 63.19 9.886 82.5 16.952 39.02 71.44 67.1 138.849 67.1h1c69.554 0 118.574-9.438 143.74-67.364 8.389-19.309 10.084-61.447 9.885-82.5-.243-25.937-2.993-77.283-6.385-103-3.053-23.144-13.459-68.636-26.5-88-9.326-13.845-33.718-37.811-50-41.5-16.789-3.803-68.589-6.07-68.589-6.07" fill="#6cc5e0"/><path d="m0 0c-23 0-53.034.373-69 6.334-15.641 5.84-40.673 27.654-50 41.5-13.042 19.363-23.447 64.855-26.5 88-3.392 25.716-6.142 77.063-6.386 103-.197 21.053 1.496 63.19 9.886 82.5 16.952 39.02 71.44 67.1 138.849 67.1h1c69.554 0 118.574-9.438 143.74-67.364 8.389-19.309 10.084-61.447 9.885-82.5-.243-25.937-2.993-77.283-6.385-103-3.053-23.144-13.459-68.636-26.5-88-9.326-13.845-33.718-37.811-50-41.5-16.789-3.803-68.589-6.07-68.589-6.07z" stroke="#000" stroke-width="5" stroke-miterlimit="10" fill="none" transform="translate(1950.22 1155.036)"/><path d="m1999.879 1540.629c17.348-7.336 55.389-51.483 63.602-101.478 12.05-73.359 1.158-176.444-30.664-226.244-26.075-40.798-70.579-54.782-99.436-57.746 5.814-.105 11.516-.126 16.838-.126l-.41-.263c23 0 53.033.373 69 6.334 15.64 5.839 40.674 27.654 50 41.5 13.041 19.363 23.447 64.855 26.5 88 3.392 25.716 6.142 77.062 6.384 103 .2 21.052-1.496 63.19-9.884 82.5-18.367 42.274-49.442 58.721-91.93 64.523" clip-path="url(#z)" opacity=".15"/><path d="m2126.037 1461.029c-1.862 3.11-11.548 16.659-33.306 30.499 17.812-41.134 44.008-153.347 1.084-266.027-8-21-34.75-86-82.25-119.5-79.248-55.89-123.928-41.03-146.062-28.692 10.101-12.554 17.76-21.441 19.481-22.144 13.621-5.56 42.267-9.314 63.696-9.545 21.428.231 50.074 3.985 63.695 9.545 5.338 2.18 68.099 82.776 83.215 108.118 44.91 75.292 50.297 133.404 51.115 144.746 1.498 20.791 2.924 61.874.278 83.379-2.521 20.495-9.751 50.922-20.946 69.621" clip-path="url(#A)" opacity=".15"/><path d="m1681.418 1567.885c-15.592 37.875-64.602 43.422-72.592 35.064 0 0-8.221 12.349-.998 27.915 4.774 10.285 19.197 13.095 25.999 13.048 8.706-.059 25.563-6.624 32.974-11.192 10.596-6.532 56.189-29.93 30.866-57.413-6.464-7.017-16.249-7.422-16.249-7.422" fill="#999"/><path d="m0 0c-15.592 37.875-64.602 43.422-72.592 35.064 0 0-8.221 12.349-.998 27.915 4.774 10.285 19.197 13.095 25.999 13.048 8.706-.059 25.563-6.624 32.974-11.192 10.596-6.532 56.189-29.93 30.866-57.413-6.464-7.017-16.249-7.422-16.249-7.422z" stroke="#000" stroke-width="5" stroke-miterlimit="10" fill="none" transform="translate(1681.418 1567.885)"/><path d="m1684.914 1620.913c14.734-10.922 29.276-27.421 12.4-45.693-6.472-7.009-16.257-7.402-16.257-7.402-3.948 10.387-13.368 21.38-21.631 26.426 6.008 2.135 15.461 5.488 20.638 14.033 2.686 4.428 4.097 8.988 4.85 12.636" clip-path="url(#B)" opacity=".3"/><path d="m2261.186 1675.909c-40.245 7.615-71.649-30.417-69.009-41.675 0 0-14.834-.146-23.931 14.404-6.012 9.614-.492 23.233 3.261 28.906 4.803 7.262 19.506 17.8 27.379 21.515 11.258 5.311 55.752 30.736 64.953-5.484 2.35-9.247-2.653-17.666-2.653-17.666" fill="#999"/><path d="m0 0c-40.245 7.615-71.649-30.417-69.009-41.675 0 0-14.834-.146-23.931 14.404-6.012 9.614-.492 23.233 3.261 28.906 4.803 7.262 19.506 17.8 27.379 21.515 11.258 5.311 55.752 30.736 64.953-5.484 2.35-9.247-2.653-17.666-2.653-17.666z" stroke="#000" stroke-width="5" stroke-miterlimit="10" fill="none" transform="translate(2261.186 1675.909)"/><path d="m2218.669 1707.788c17.194 6.382 38.957 9.558 45.052-14.557 2.338-9.25-2.675-17.662-2.675-17.662-10.857 2.364-25.211.473-33.95-3.695 1.491 6.199 3.844 15.949-.489 24.953-2.244 4.668-5.294 8.339-7.938 10.961" clip-path="url(#C)" opacity=".3"/><path d="m2359.735 1058.553c-34.334-22.333-77.834.917-79.668 12.334 0 0-13.777-5.501-16.666-22.417-1.908-11.177 8.373-21.677 14-25.5 7.201-4.893 24.807-9.055 33.5-9.5 12.432-.637 63.25-7.25 58 29.75-1.34 9.446-9.166 15.333-9.166 15.333" fill="#999"/><path d="m0 0c-34.334-22.333-77.834.917-79.668 12.334 0 0-13.777-5.501-16.666-22.417-1.908-11.177 8.373-21.677 14-25.5 7.201-4.893 24.807-9.055 33.5-9.5 12.432-.637 63.25-7.25 58 29.75-1.34 9.446-9.166 15.333-9.166 15.333z" stroke="#000" stroke-width="5" stroke-miterlimit="10" fill="none" transform="translate(2359.735 1058.553)"/><path d="M2335.72 1012.617c18.332.606 39.676 5.91 36.182 30.537-1.34 9.446-9.166 15.333-9.166 15.333-9.153-6.3-23.153-9.987-32.819-9.439 3.729-5.173 9.598-13.305 9-23.28-.31-5.169-1.742-9.722-3.197-13.151" clip-path="url(#D)" opacity=".3"/><path d="m2184.333 1016.81c6.666-25 13.708-109.628 13.708-109.628s17.651-13.934 20.448-19.168c3.073-5.75-2.562-25.332-2.562-25.332s-25.493.062-37.82 0c-3.937-.022-6.638 6.666-6.638 6.666l-15.933 1s-1.538-18.09-5.536-22.389c-7.813-8.4-30.473-8.383-39.611-1.451-4.827 3.662-6.723 24.172-6.723 24.172l-16.725.494s-2.669-6.285-4.668-6.666c-9.607-1.83-37.07-1.826-37.07-1.826s-9.687 19.767-8.037 26.5c1.992 8.128 22.441 19.326 22.441 19.326s.39 77.539 14.391 107.872c4.166 9.029 108.304 8.048 110.335.43" fill="#f2f2f2"/><path d="m0 0c6.666-25 13.708-109.628 13.708-109.628s17.651-13.934 20.448-19.168c3.073-5.75-2.562-25.332-2.562-25.332s-25.493.062-37.82 0c-3.937-.022-6.638 6.666-6.638 6.666l-15.933 1s-1.538-18.09-5.536-22.389c-7.813-8.4-30.473-8.383-39.611-1.451-4.827 3.662-6.723 24.172-6.723 24.172l-16.725.494s-2.669-6.285-4.668-6.666c-9.607-1.83-37.07-1.826-37.07-1.826s-9.687 19.767-8.037 26.5c1.992 8.128 22.441 19.326 22.441 19.326s.39 77.539 14.391 107.872c4.166 9.029 108.304 8.048 110.335.43z" stroke="#000" stroke-width="5" stroke-miterlimit="10" fill="none" transform="translate(2184.333 1016.81)"/><path d="M2075.36 1039.223c7.973 0 34.592 1.745 58.64 1.457 15.049-.181 34.333-1.457 45.333-1.457 4.173 0 1.169 25.811-6.066 68.31-1.794 10.541-32.242 15.969-42.934 15.814-11.562-.168-41.286-2.386-48.079-17.58-2.842-6.356-10.024-66.544-6.894-66.544" fill="#f2f2f2"/><path d="M0 0c7.973 0 34.592 1.745 58.64 1.457 15.049-.181 34.333-1.457 45.333-1.457 4.173 0 1.169 25.811-6.066 68.31-1.794 10.541-32.242 15.969-42.934 15.814-11.562-.168-41.286-2.386-48.079-17.58-2.842-6.356-10.024-66.544-6.894-66.544z" stroke="#000" stroke-width="5" stroke-miterlimit="10" fill="none" transform="translate(2075.36 1039.223)"/><path d="m2142.238 1122.277c.666-3.074 5.056-23.906 5.746-41.975.578-15.139.123-30.509-.305-39.992 11.738-.439 23.804-1.087 31.654-1.087 4.174 0 1.169 25.81-6.066 68.309-1.314 7.721-17.993 12.695-31.029 14.745" clip-path="url(#E)" opacity=".15"/><path d="m2198.041 907.182s-7.042 84.629-13.708 109.628c-.772 2.899-16.329 4.834-35.532 5.625-.766-15.604-2.897-49.159-7.857-73.216-7.849-38.072-53.167-60.666-53.167-60.666l1.36-17.445 14.529-.428s1.896-20.51 6.723-24.172c9.138-6.931 31.798-6.949 39.611 1.451 3.998 4.299 5.536 22.389 5.536 22.389l15.933-1s2.701-6.687 6.638-6.666c12.327.062 37.82 0 37.82 0s5.635 19.582 2.562 25.332c-2.797 5.234-20.448 19.168-20.448 19.168" clip-path="url(#F)" opacity=".15"/><path d="m0 0c5.395-.005 19.636-5.118 19.09-20.729-.786-22.332-30.304-26.716-37.081-26.519l-2.379-21c61.868-6.157 91.737 80.192 29.128 103.449" fill="#808080" stroke="#000" stroke-width="5" stroke-miterlimit="10" transform="translate(1571.667 989.106)"/><path d="M0 0c-5.31.961-20.236-1.521-22.492-16.976-3.226-22.113 25.031-31.712 31.733-32.73l-1.42-21.087c-61.97 5.02-75.897 95.321-10.134 106.993" fill="#adadad" stroke="#000" stroke-width="5" stroke-miterlimit="10" transform="translate(1527.012 992.012)"/><path d="m1578.651 1023.692c-17.589-1.651-23.613-1.169-29.902-.258-10.292 1.485-16.447 2.321-23.195 4.05 0 0-2.003-34.763 6.727-43.098 8.468-8.091 29.222-10.82 37.39-.756 3.842 4.728 4.402 6.866 5.429 9.121 4.005 8.805 3.551 30.941 3.551 30.941" fill="#adadad"/><path d="m0 0c-17.589-1.651-23.613-1.169-29.902-.258-10.292 1.485-16.447 2.321-23.195 4.05 0 0-2.003-34.763 6.727-43.098 8.468-8.091 29.222-10.82 37.39-.756 3.842 4.728 4.402 6.866 5.429 9.121 4.005 8.805 3.551 30.941 3.551 30.941z" stroke="#000" stroke-width="5" stroke-miterlimit="10" fill="none" transform="translate(1578.651 1023.692)"/><path d="m1536.057 1018.713c.197.669-3.525.355-3.845-.299-2.198-4.477-1.102-16.013 2.811-26.809 0 0-2.583 14.734 1.034 27.108" fill="#fff"/><path d="m1516.324 1018.614s-8.233-4.53-16.508-15.162c-8.165-10.489-12.042-22.691-12.042-22.691s-2.759 7.699 9.919 24.999c8.716 11.892 18.002 12.939 18.002 12.939l.629-.085z" fill="#fff"/><path d="m1564.489 995.137c-2.454-5.496-6.065-10.771-10.636-12.883-5.461-2.523-11.533-2.028-13.834-1.711 9.87-4.102 23.746-3.987 30.074 3.811 3.842 4.727 4.403 6.864 5.43 9.121 4.004 8.805 3.55 30.94 3.55 30.94-5.911-.555-10.51-.868-14.257-1.005 1.08-10.049 1.92-23.238-.327-28.273" clip-path="url(#G)" opacity=".3"/><path d="m2314.592 1098.577c-12.033 0-22.405 3.095-27.729 5.676l2.154 4.802c4.616-2.237 17.123-6.127 31.391-4.813 17.45 1.6 31.212 10.145 40.903 25.398l4.253-2.921c-14.021-22.067-34.122-28.142-50.972-28.142" clip-path="url(#H)" opacity=".4"/><path d="M2160.257 1236.567c1.312 21.93-14.337 23.466-20.268 24.823l-12.234-27.002c7.622-2.801 15.591-13.329 16.786-18.35 2.824-11.851-8.671-44.782-20.871-60.013 9.691 6.156 17.53 18.651 25.195 34.626 8.309 17.312 11.304 43.819 11.304 43.819l.088 2.097z" clip-path="url(#I)" opacity=".3"/><path d="M2269.852 1137.796l-1.234 4.846c11.714 2.983 52.118 27.849 48.131 66.858l4.723-1.527c2.387-23.356-9.565-40.348-20.013-50.489-11.838-11.494-25.67-18.175-31.607-19.688" clip-path="url(#J)" opacity=".4"/><path d="m2224.719 1162.436l-1.959 4.524c8.224 3.422 35.355 34.552 24.811 74.309l4.837 1.228c11.268-42.487-17.427-75.791-27.689-80.061" clip-path="url(#K)" opacity=".4"/><path d="m2165.908 1167.415l-2.848 4.109c8.557 5.929 20.983 38.502 14.811 71.797l4.916.911c6.637-35.799-7.156-70.081-16.879-76.817" clip-path="url(#L)" opacity=".4"/><path d="m2086.607 871.506s-2.668-6.285-4.668-6.666c-9.607-1.83-37.07-1.826-37.07-1.826s-9.688 19.767-8.037 26.5c1.992 8.129 22.441 19.326 22.441 19.326l1.127.463s13.053.17 16.469-1.789c4.142-2.379 6.697-10.52 7.797-15.168 1.203-5.092 1.941-20.84 1.941-20.84" fill="#666"/><path d="m0 0s-2.668-6.285-4.668-6.666c-9.607-1.83-37.07-1.826-37.07-1.826s-9.688 19.767-8.037 26.5c1.992 8.129 22.441 19.326 22.441 19.326l1.127.463s13.053.17 16.469-1.789c4.142-2.379 6.697-10.52 7.797-15.168 1.203-5.092 1.941-20.84 1.941-20.84z" stroke="#000" stroke-width="5" stroke-miterlimit="10" fill="none" transform="translate(2086.607 871.506)"/><path d="m2155.035 870.014s-1.537-17.09-5.535-21.389c-7.813-8.4-30.473-8.382-39.611-1.451-4.827 3.662-6.723 24.172-6.723 24.172v1s1.031 16.789 5.357 20.668c7.141 6.4 30.272 6.523 38.334 1.334 5.612-3.613 8.178-23.334 8.178-23.334v-1z" fill="#666"/><path d="m0 0s-1.537-17.09-5.535-21.389c-7.813-8.4-30.473-8.382-39.611-1.451-4.827 3.662-6.723 24.172-6.723 24.172v1s1.031 16.789 5.357 20.668c7.141 6.4 30.272 6.523 38.334 1.334 5.612-3.613 8.178-23.334 8.178-23.334v-1z" stroke="#000" stroke-width="5" stroke-miterlimit="10" fill="none" transform="translate(2155.035 870.014)"/><path d="m2197.713 906.992s-13.189.348-16.564-1.68c-4.094-2.463-6.487-10.652-7.493-15.322-1.099-5.115-1.521-20.873-1.521-20.873v-.104s2.701-6.687 6.639-6.666c12.326.063 37.82 0 37.82 0s5.635 19.582 2.562 25.332c-2.797 5.235-20.449 19.168-20.449 19.168l-.994.145z" fill="#666"/><path d="m0 0s-13.189.348-16.564-1.68c-4.094-2.463-6.487-10.652-7.493-15.322-1.099-5.115-1.521-20.873-1.521-20.873v-.104s2.701-6.687 6.639-6.666c12.326.063 37.82 0 37.82 0s5.635 19.582 2.562 25.332c-2.797 5.235-20.449 19.168-20.449 19.168l-.994.145z" stroke="#000" stroke-width="5" stroke-miterlimit="10" fill="none" transform="translate(2197.713 906.992)"/><path d="m1726.274 872.172s-2.668-6.285-4.668-6.666c-9.607-1.83-37.07-1.826-37.07-1.826s-9.688 19.767-8.037 26.5c1.992 8.129 22.441 19.326 22.441 19.326l1.127.463s13.053.17 16.469-1.789c4.142-2.379 6.697-10.52 7.797-15.168 1.203-5.092 1.941-20.84 1.941-20.84" fill="#666"/><path d="m0 0s-2.668-6.285-4.668-6.666c-9.607-1.83-37.07-1.826-37.07-1.826s-9.688 19.767-8.037 26.5c1.992 8.129 22.441 19.326 22.441 19.326l1.127.463s13.053.17 16.469-1.789c4.142-2.379 6.697-10.52 7.797-15.168 1.203-5.092 1.941-20.84 1.941-20.84z" stroke="#000" stroke-width="5" stroke-miterlimit="10" fill="none" transform="translate(1726.274 872.172)"/><path d="m1795.702 870.68s-1.537-17.09-5.535-21.389c-7.813-8.4-30.473-8.382-39.611-1.451-4.827 3.662-6.723 24.172-6.723 24.172v1s1.031 16.789 5.357 20.668c7.141 6.4 30.272 6.523 38.334 1.334 5.612-3.613 8.178-23.334 8.178-23.334v-1z" fill="#666"/><path d="m0 0s-1.537-17.09-5.535-21.389c-7.813-8.4-30.473-8.382-39.611-1.451-4.827 3.662-6.723 24.172-6.723 24.172v1s1.031 16.789 5.357 20.668c7.141 6.4 30.272 6.523 38.334 1.334 5.612-3.613 8.178-23.334 8.178-23.334v-1z" stroke="#000" stroke-width="5" stroke-miterlimit="10" fill="none" transform="translate(1795.702 870.68)"/><path d="m1838.38 907.658s-13.189.348-16.564-1.68c-4.094-2.463-6.487-10.652-7.493-15.322-1.099-5.115-1.521-20.873-1.521-20.873v-.104s2.701-6.687 6.639-6.666c12.326.063 37.82 0 37.82 0s5.635 19.582 2.562 25.332c-2.797 5.235-20.449 19.168-20.449 19.168l-.994.145z" fill="#666"/><path d="m0 0s-13.189.348-16.564-1.68c-4.094-2.463-6.487-10.652-7.493-15.322-1.099-5.115-1.521-20.873-1.521-20.873v-.104s2.701-6.687 6.639-6.666c12.326.063 37.82 0 37.82 0s5.635 19.582 2.562 25.332c-2.797 5.235-20.449 19.168-20.449 19.168l-.994.145z" stroke="#000" stroke-width="5" stroke-miterlimit="10" fill="none" transform="translate(1838.38 907.658)"/><path d="m0 0c5.393-.118 19.522-5.531 18.646-21.128-1.258-22.311-30.862-26.07-37.634-25.728l-2.824-20.946c61.726-7.465 93.416 78.235 31.313 102.81" fill="#808080" stroke="#000" stroke-width="5" stroke-miterlimit="10" transform="translate(2331.985 978.266)"/><path d="M0 0c-5.288 1.074-20.264-1.09-22.847-16.494-3.693-22.039 24.354-32.236 31.034-33.395l-1.867-21.053c-61.848 6.33-73.862 96.906-7.867 107.184" fill="#adadad" stroke="#000" stroke-width="5" stroke-miterlimit="10" transform="translate(2287.401 982.115)"/><path d="m2339.699 1012.696c-17.619-1.278-23.632-.669-29.9.375-10.259 1.702-16.394 2.669-23.104 4.54 0 0-2.738-34.713 5.813-43.23 8.295-8.27 28.986-11.437 37.365-1.548 3.942 4.645 4.547 6.771 5.621 9.006 4.191 8.717 4.205 30.857 4.205 30.857" fill="#adadad"/><path d="m0 0c-17.619-1.278-23.632-.669-29.9.375-10.259 1.702-16.394 2.669-23.104 4.54 0 0-2.738-34.713 5.813-43.23 8.295-8.27 28.986-11.437 37.365-1.548 3.942 4.645 4.547 6.771 5.621 9.006 4.191 8.717 4.205 30.857 4.205 30.857z" stroke="#000" stroke-width="5" stroke-miterlimit="10" fill="none" transform="translate(2339.699 1012.696)"/><path d="m2297.01 1008.62c.211.665-3.518.43-3.851-.218-2.293-4.429-1.441-15.985 2.243-26.861 0 0-2.271 14.784 1.608 27.079" fill="#fff"/><path d="m2277.279 1008.939s-8.328-4.355-16.825-14.81c-8.386-10.315-12.521-22.431-12.521-22.431s-2.593 7.756 10.447 24.783c8.966 11.706 18.272 12.556 18.272 12.556l.627-.098z" fill="#fff"/><path d="m2324.936 984.447c-2.569-5.443-6.292-10.641-10.907-12.655-5.513-2.408-11.572-1.783-13.866-1.418 9.781-4.309 23.657-4.488 30.148 3.173 3.94 4.647 4.547 6.772 5.622 9.004 4.189 8.718 4.203 30.859 4.203 30.859-5.922-.43-10.526-.646-14.275-.703.867-10.071 1.428-23.275-.925-28.26" clip-path="url(#M)" opacity=".3"/><path d="M0 0c4.486-2.993 19.167-6.655 27.389 6.629 11.754 19.006-10.353 39.052-16.099 42.652l9.689 18.783c54.863-29.255 31.722-117.647-33.254-102.198" fill="#808080" stroke="#000" stroke-width="5" stroke-miterlimit="10" transform="translate(1707.622 1648.337)"/><path d="M0 0c-4.947 2.15-15.979 12.505-9.271 26.609 9.604 20.179 38.432 12.463 44.571 9.584l10.536 18.324c-54.315 30.254-116.065-37.09-67.871-83.332" fill="#adadad" stroke="#000" stroke-width="5" stroke-miterlimit="10" transform="translate(1668.877 1670.731)"/><path d="m1694.213 1615.7c-13.707 11.144-18.983 14.09-24.72 16.827-9.382 4.485-14.964 7.207-21.535 9.52 0 0 17.65 30.016 29.537 32.096 11.538 2.023 30.31-7.238 31.509-20.143.568-6.067-.154-8.156-.554-10.603-1.561-9.546-14.237-27.697-14.237-27.697" fill="#adadad"/><path d="m0 0c-13.707 11.144-18.983 14.09-24.72 16.827-9.382 4.485-14.964 7.207-21.535 9.52 0 0 17.65 30.016 29.537 32.096 11.538 2.023 30.31-7.238 31.509-20.143.568-6.067-.154-8.156-.554-10.603-1.561-9.546-14.237-27.697-14.237-27.697z" stroke="#000" stroke-width="5" stroke-miterlimit="10" fill="none" transform="translate(1694.213 1615.7)"/><path d="M1661.564 1643.504c-.209-.666-3.13 1.663-3.031 2.385.659 4.944 7.979 13.926 17.23 20.728 0 0-10.333-10.815-14.199-23.113" fill="#fff"/><path d="m1645.212 1654.549s-4.329 8.342-5.302 21.779c-.961 13.259 2.595 25.556 2.595 25.556s-6.571-4.868-5.643-26.295c.64-14.731 7.78-20.761 7.78-20.761l.57-.279z" fill="#fff"/><path d="m1698.304 1647.311c1.012 5.933.94 12.326-1.687 16.622-3.138 5.131-8.462 8.092-10.551 9.107 10.485-2.073 21.959-9.879 22.888-19.876.566-6.067-.154-8.156-.552-10.601-1.563-9.545-14.24-27.698-14.24-27.698-4.606 3.745-8.256 6.561-11.296 8.757 6.482 7.755 14.508 18.255 15.438 23.689" clip-path="url(#N)" opacity=".3"/><path d="M0 0c4.871 2.314 15.55 13.034 8.37 26.908-10.277 19.844-38.828 11.161-44.867 8.079l-11.147 17.956c53.27 32.066 117.248-33.167 70.636-80.999" fill="#808080" stroke="#000" stroke-width="5" stroke-miterlimit="10" transform="translate(2205.794 1740.529)"/><path d="m0 0c-4.384-3.142-18.934-7.294-27.594 5.703-12.387 18.6 9.032 39.379 14.654 43.17l-10.317 18.447c-53.846-31.081-27.749-118.645 36.675-101.022" fill="#adadad" stroke="#000" stroke-width="5" stroke-miterlimit="10" transform="translate(2166.686 1718.774)"/><path d="m2226.919 1712.268c-16.6-6.042-21.837-9.058-27.13-12.576-8.664-5.749-13.867-9.142-19.224-13.595 0 0-16.7 30.555-12.383 41.824 4.186 10.941 21.77 22.297 33.461 16.701 5.498-2.626 6.92-4.318 8.814-5.918 7.393-6.24 16.462-26.436 16.462-26.436" fill="#adadad"/><path d="m0 0c-16.6-6.042-21.837-9.058-27.13-12.576-8.664-5.749-13.867-9.142-19.224-13.595 0 0-16.7 30.555-12.383 41.824 4.186 10.941 21.77 22.297 33.461 16.701 5.498-2.626 6.92-4.318 8.814-5.918 7.393-6.24 16.462-26.436 16.462-26.436z" stroke="#000" stroke-width="5" stroke-miterlimit="10" fill="none" transform="translate(2226.919 1712.268)"/><path d="M2186.299 1698.523c.463-.521-3.034-1.833-3.604-1.377-3.904 3.103-7.854 13.996-8.943 25.427 0 0 3.977-14.42 12.547-24.05" fill="#fff"/><path d="m2168.426 1690.158s-9.381.567-21.412 6.629c-11.871 5.982-20.601 15.346-20.601 15.346s.806-8.138 19.67-18.341c12.971-7.012 21.811-3.981 21.811-3.981l.532.347z" fill="#fff"/><path d="m2201.891 1732.005c-4.572 3.914-10.095 7.134-15.13 7.085-6.015-.06-11.289-3.109-13.232-4.38 7.161 7.934 19.75 13.774 28.807 9.44 5.496-2.629 6.92-4.319 8.814-5.916 7.389-6.241 16.461-26.438 16.461-26.438-5.579-2.031-9.868-3.719-13.314-5.2-3.328 9.544-8.219 21.822-12.406 25.409" clip-path="url(#O)" opacity=".3"/><path d="m2176.793 1666.724s-.482-1.893-.007-5.234c.416-2.925 1.219-5.332 1.673-6.324.764-1.672 2.148-4.313 3.839-6.246 2.854-3.262 7.821-4.636 7.821-4.636s-7.773-.721-13.966 8.833c-4.384 6.765-3.315 14.361-3.315 14.361l3.955-.754z" fill="#fff"/><path d="M1625.303 1634.202s-1.829-.687-4.298-2.987c-2.162-2.013-3.678-4.049-4.231-4.988-.936-1.583-2.31-4.229-2.93-6.721-1.044-4.207.669-9.068.669-9.068s-5.036 5.966-.739 16.508c3.043 7.466 9.886 10.932 9.886 10.932l1.643-3.676z" fill="#fff"/><path d="m1846.803 1482.785c1.232 4.508-19.01-7.113-20.834-11.417-12.5-29.5-12.084-109.583 2.25-186.25 0 0-4.111 114.704 18.584 197.667" fill="#fff"/><path d="m1950.408 1044.906l-.666 108.139 3 .013.666-108.138-3-.014z"/><path d="m1944.408 1044.334l-.666 108.998 3 .013.666-108.997-3-.014z"/><path d="m1756.518 889.005s-2.125-2.875-3.375-8.875c-.699-3.354-1-4.25-1.875-11.25 0 0-.354 7.264-.125 9.375.5 4.625 2.25 10.125 2.25 10.125l3.125.625z" fill="#fff"/><path d="m1703.301 900.798s-3.514-.662-8.511-4.211c-2.794-1.982-3.624-2.434-9.026-6.971 0 0 4.681 5.565 6.285 6.959 3.512 3.049 8.536 5.891 8.536 5.891l2.716-1.668z" fill="#fff"/><path d="m1827.47 901.087s-2.569-2.486-4.79-8.199c-1.241-3.194-1.686-4.028-3.701-10.787 0 0 .846 7.22 1.42 9.267 1.255 4.479 3.886 9.617 3.886 9.617l3.185.102z" fill="#fff"/><path d="m2117.375 889.75s-2.125-2.875-3.375-8.875c-.699-3.354-1-4.25-1.875-11.25 0 0-.354 7.264-.125 9.375.5 4.625 2.25 10.125 2.25 10.125l3.125.625z" fill="#fff"/><path d="m2064.158 901.543s-3.514-.662-8.511-4.211c-2.794-1.982-3.624-2.434-9.026-6.971 0 0 4.681 5.565 6.285 6.959 3.512 3.049 8.536 5.891 8.536 5.891l2.716-1.668z" fill="#fff"/><path d="m2188.327 901.832s-2.569-2.486-4.79-8.199c-1.241-3.194-1.686-4.028-3.701-10.787 0 0 .846 7.22 1.42 9.267 1.255 4.479 3.886 9.617 3.886 9.617l3.185.102z" fill="#fff"/><path d="m1519.002 1069.168s-1.588-1.139-3.375-4c-1.564-2.506-2.5-4.865-2.791-5.916-.492-1.772-1.133-4.684-1.084-7.252.084-4.334 3-8.582 3-8.582s-6.412 4.453-5 15.75c1 8 6.709 13.123 6.709 13.123l2.541-3.123z" fill="#fff"/><path d="m2279.25 1058.168s-1.588-1.139-3.375-4c-1.564-2.506-2.5-4.865-2.791-5.916-.492-1.772-1.133-4.684-1.084-7.252.084-4.334 3-8.582 3-8.582s-6.412 4.453-5 15.75c1 8 6.709 13.123 6.709 13.123l2.541-3.123z" fill="#fff"/></g></g></svg>